

<svg version="1.1" id="Layer_1" xmlns="http://www.w3.org/2000/svg" xmlns:xlink="http://www.w3.org/1999/xlink" x="0px" y="0px" viewBox="0 0 128 128" style="enable-background:new 0 0 128 128;" xml:space="preserve">

<g>
	<g>
		<path d="M101,26c-0.8-6.7-17-12-37-12s-36.2,5.3-37,12h0v60h0c0,0.2,0,0.3,0,0.5C27,93.4,43.6,99,64,99
			s37-5.6,37-12.5c0-0.2,0-0.3,0-0.5h0L101,26L101,26z" style="fill:#FFFFFF;"></path>
	</g>
	<g>
		<g>
			<path d="M101,29.5c-1.7,0-3-1.3-3-3c0-3.2-12-9.5-34-9.5s-34,6.3-34,9.5c0,1.7-1.3,3-3,3s-3-1.3-3-3
				C24,16.3,44.1,11,64,11s40,5.3,40,15.5C104,28.2,102.7,29.5,101,29.5z" style="fill:#444B54;"></path>
		</g>
		<path d="M103.9,25.2C102.2,15.9,83,11,64,11c-19.9,0-40,5.3-40,15.5S44.1,42,64,42c13.2,0,26.6-2.4,34-6.9v11.4
			c0,3.2-12,9.5-34,9.5s-34-6.3-34-9.5c0-1.7-1.3-3-3-3s-3,1.3-3,3v40C24,96.7,44.1,102,64,102c2.8,0,5.6-0.1,8.3-0.3
			c1.7-0.1,2.9-1.6,2.8-3.2c-0.1-1.7-1.6-2.9-3.2-2.8C69.3,95.9,66.7,96,64,96c-22,0-34-6.3-34-9.5V75.1c7.4,4.6,20.8,6.9,34,6.9
			c19.9,0,40-5.3,40-15.5V26C104,25.7,103.9,25.4,103.9,25.2z M64,36c-22,0-34-6.3-34-9.5S42,17,64,17s34,6.3,34,9.5S86,36,64,36z
			 M64,76c-22,0-34-6.3-34-9.5V55.1c7.4,4.6,20.8,6.9,34,6.9c13.2,0,26.6-2.4,34-6.9v11.4C98,69.7,86,76,64,76z" style="fill:#444B54;"></path>
	</g>
	<g>
		<g>
			<g>
				<g>
					<g>
						<g>
							<path d="M126.5,119.4l-21.2-35.3c-0.9-1.5-2.5-2.4-4.3-2.4s-3.4,0.9-4.3,2.4l-21.2,35.3c-0.9,1.6-1,3.4-0.1,5
								c0.9,1.6,2.5,2.5,4.4,2.5h42.3c1.8,0,3.5-0.9,4.4-2.5C127.4,122.9,127.4,121,126.5,119.4z" style="fill:#FCCA3D;"></path>
						</g>
					</g>
				</g>
				<g>
					<g>
						<g>
							<path d="M101,110c-1.7,0-3-1.3-3-3V97c0-1.7,1.3-3,3-3s3,1.3,3,3v10C104,108.7,102.7,110,101,110z" style="fill:#FFFFFF;"></path>
						</g>
					</g>
				</g>
				<g>
					<g>
						<g>
							<path d="M101,120c-0.8,0-1.6-0.3-2.1-0.9c-0.1-0.1-0.3-0.3-0.4-0.5c-0.1-0.2-0.2-0.3-0.3-0.5
								c-0.1-0.2-0.1-0.4-0.2-0.6c0-0.2-0.1-0.4-0.1-0.6c0-0.8,0.3-1.6,0.9-2.1c1.1-1.1,3.1-1.1,4.2,0c0.6,0.6,0.9,1.3,0.9,2.1
								c0,0.2,0,0.4-0.1,0.6c0,0.2-0.1,0.4-0.2,0.6c-0.1,0.2-0.2,0.4-0.3,0.5c-0.1,0.2-0.2,0.3-0.4,0.5
								C102.6,119.7,101.8,120,101,120z" style="fill:#FFFFFF;"></path>
						</g>
					</g>
				</g>
			</g>
		</g>
	</g>
</g>
</svg>