<svg version="1.1" xmlns="http://www.w3.org/2000/svg" xmlns:xlink="http://www.w3.org/1999/xlink" viewBox="0 0 224 224"><g fill="none" fill-rule="nonzero" stroke="none" stroke-width="1" stroke-linecap="butt" stroke-linejoin="miter" stroke-miterlimit="10" stroke-dasharray="" stroke-dashoffset="0" font-family="none" font-weight="none" font-size="none" text-anchor="none" style="mix-blend-mode: normal"><path d="M0,224v-224h224v224z" fill="none"></path><g id="Layer_1"><g><g fill="#ffffff"><path d="M176.75,45.5c-1.4,-11.725 -29.75,-21 -64.75,-21c-35,0 -63.35,9.275 -64.75,21v0v105v0c0,0.35 0,0.525 0,0.875c0,12.075 29.05,21.875 64.75,21.875c35.7,0 64.75,-9.8 64.75,-21.875c0,-0.35 0,-0.525 0,-0.875v0v-105z"></path></g><g fill="#444b54"><g><path d="M176.75,51.625c-2.975,0 -5.25,-2.275 -5.25,-5.25c0,-5.6 -21,-16.625 -59.5,-16.625c-38.5,0 -59.5,11.025 -59.5,16.625c0,2.975 -2.275,5.25 -5.25,5.25c-2.975,0 -5.25,-2.275 -5.25,-5.25c0,-17.85 35.175,-27.125 70,-27.125c34.825,0 70,9.275 70,27.125c0,2.975 -2.275,5.25 -5.25,5.25z"></path></g><path d="M181.825,44.1c-2.975,-16.275 -36.575,-24.85 -69.825,-24.85c-34.825,0 -70,9.275 -70,27.125c0,17.85 35.175,27.125 70,27.125c23.1,0 46.55,-4.2 59.5,-12.075v19.95c0,5.6 -21,16.625 -59.5,16.625c-38.5,0 -59.5,-11.025 -59.5,-16.625c0,-2.975 -2.275,-5.25 -5.25,-5.25c-2.975,0 -5.25,2.275 -5.25,5.25v70c0,17.85 35.175,27.125 70,27.125c4.9,0 9.8,-0.175 14.525,-0.525c2.975,-0.175 5.075,-2.8 4.9,-5.6c-0.175,-2.975 -2.8,-5.075 -5.6,-4.9c-4.55,0.35 -9.1,0.525 -13.825,0.525c-38.5,0 -59.5,-11.025 -59.5,-16.625v-19.95c12.95,8.05 36.4,12.075 59.5,12.075c34.825,0 70,-9.275 70,-27.125v-70.875c0,-0.525 -0.175,-1.05 -0.175,-1.4zM112,63c-38.5,0 -59.5,-11.025 -59.5,-16.625c0,-5.6 21,-16.625 59.5,-16.625c38.5,0 59.5,11.025 59.5,16.625c0,5.6 -21,16.625 -59.5,16.625zM112,133c-38.5,0 -59.5,-11.025 -59.5,-16.625v-19.95c12.95,8.05 36.4,12.075 59.5,12.075c23.1,0 46.55,-4.2 59.5,-12.075v19.95c0,5.6 -21,16.625 -59.5,16.625z"></path></g><g fill="#3498db"><ellipse cx="-0.7081" cy="143.54306" transform="rotate(-45) scale(1.74998,1.74998)" rx="20" ry="20"></ellipse></g><g fill="#ffffff"><path d="M188.825,183.75h-24.5c-2.975,0 -5.25,-2.275 -5.25,-5.25c0,-2.975 2.275,-5.25 5.25,-5.25h24.5c2.975,0 5.25,2.275 5.25,5.25c0,2.975 -2.275,5.25 -5.25,5.25z"></path></g></g></g></g></svg>