<?xml version="1.0" encoding="utf-8"?>
<!-- Generator: Adobe Illustrator 16.0.0, SVG Export Plug-In . SVG Version: 6.00 Build 0)  -->
<!DOCTYPE svg PUBLIC "-//W3C//DTD SVG 1.1//EN" "http://www.w3.org/Graphics/SVG/1.1/DTD/svg11.dtd">
<svg version="1.1" id="Layer_1" xmlns="http://www.w3.org/2000/svg" xmlns:xlink="http://www.w3.org/1999/xlink" x="0px" y="0px"
	 width="1000px" height="1000px" viewBox="0 0 1000 1000" enable-background="new 0 0 1000 1000" xml:space="preserve">
<rect fill="#1E4276" width="1000" height="1000"/>
<g>
	<g>
		<g>
			<g>
				<path fill="#FFFFFF" d="M272.036,91.629c0,3.99,2.964,5.32,2.964,5.32V86.313C275,86.313,272.036,87.644,272.036,91.629z"/>
				<g>
					<path fill="#FFFFFF" d="M466.974,719.244c-5.752-3.961-9.858-8.828-12.211-14.609c-3.531-8.656-5.563-18.697-5.563-30.135
						c0,11.438,1.974,21.479,5.504,30.135C457.061,710.416,461.199,715.283,466.974,719.244z"/>
				</g>
				<g>
					<path fill="#FFFFFF" d="M634.934,440.95c10.435-15.685,17.342-31.929,20.722-48.763c2.284-11.375,3.778-21.952,4.514-31.77
						c0.356-4.694,0.555-9.232,0.555-13.571c0-18.621-2.073-37.555-6.221-56.834c-2.85-13.266-7.121-25.376-12.812-36.321
						c-2.567-4.982-5.429-9.724-8.595-14.219c-10.751-15.356-24.867-29.218-42.367-37.716C573.233,193.265,551.429,187,525.341,187
						H464v309h43.383c33.156,0,60.09-4.324,80.813-15.277C608.918,469.782,624.495,457.289,634.934,440.95z"/>
					<path fill="#FFFFFF" d="M718.05,197.417c-37.916-31.191-87.257-47.019-148.042-47.019c60.785,0,109.853,15.827,147.767,47.019
						c37.911,31.206,56.601,72.881,56.601,124.827c0-51.946-18.962-93.622-56.873-124.827
						c37.911,31.206,56.873,72.884,56.873,124.827c0,0.415-0.016,0.821-0.018,1.233c-0.146,35.759-6.558,67.562-19.759,95.176
						c-2.504,5.237-5.182,10.305-8.029,15.198c-12.38,21.221-28.102,39.265-47.306,54.123c-23.331,18.301-48.9,31.673-76.833,40.161
						c-27.937,8.5-57.488,12.698-88.799,12.698c31.311,0,60.933-4.198,88.87-12.698c27.93-8.487,53.569-21.859,76.9-40.161
						c23.638-18.294,42.137-41.397,55.487-69.328c13.354-27.937,20.032-60.141,20.032-96.403
						C774.922,270.301,755.961,228.622,718.05,197.417z"/>
					<path fill="#FFFFFF" d="M725.338,188.53C685.459,155.718,633.193,140,570.008,140H259.318c0,0-23.738,5.507-23.738,26.559
						c0,21.048,14.244,30.448,23.738,31.21l11.216,0.696c7.981,0.629,17.789,1.742,28.956,3.482
						c10.654,1.668,21.619,4.462,32.505,8.406c7.894,3.217,14.441,7.416,16.277,12.884c2.601,7.752,5.728,16.682,5.728,26.597
						v501.797c0,10.566-3.399,19.088-6.582,25.349c-2.86,5.642-8.427,9.899-15.285,13.062c-2.458,1.162-9.504,3.402-26.145,5.346
						c-13.768,1.619-24.683,2.757-31.931,3.399l-14.633,1.751c0,0-23.793,5.258-23.793,26.309c0,21.05,14.22,30.813,23.715,31.577
						l307.356,0.464c9.492-0.781,23.734-11.262,23.734-32.844c0-21.589-23.744-26.979-23.744-26.979l-11.358-0.317
						c-11.149-0.308-23.541-1.421-37.08-3.324c-16.146-2.265-23.245-4.307-26.421-5.62c-8.04-3.32-13.661-7.603-15.893-13.08
						c-2.856-7.001-4.941-15.444-4.941-25.091V555h62.632c32.287,0,63.289-5.155,92.144-13.927
						c29.183-8.879,56.33-23.417,80.629-42.476c25.065-19.396,44.949-44.423,59.103-74.021
						c14.151-29.603,21.327-63.564,21.327-101.674C786.834,267.082,766.143,222.114,725.338,188.53z M449,528v223.633
						c0,13.139,1.858,24.979,6.026,35.174c4.819,11.845,14.283,20.81,28.357,26.625c6.47,2.681,16.671,5.013,31.739,7.123
						c9.883,1.389,19.588,2.386,27.893,2.978c0,0,2.96,1.122,2.96,5.217c0,4.087-2.976,5.121-2.976,5.121v0.097l-259.923,0.513
						c0,0-3.501-1.22-3.501-5.73c0-4.095,2.424-5.217,2.424-5.217v-0.035c11-0.625,17.325-1.947,25.549-2.905
						c15.565-1.819,26.282-4.17,32.968-7.338c11.678-5.376,21.883-13.533,27.31-24.229c5.078-9.996,9.174-22.574,9.174-37.392
						V249.835c0-12.817-3.162-24.642-6.679-35.142c-4.287-12.753-14.613-22.233-29.329-28.164l-0.715-0.146
						c-12.32-4.476-25.139-7.712-37.299-9.615c-7.048-1.097-13.913-1.993-19.846-2.678c0,0-6.416,0.055-6.416-4.546
						c0-4.6,6.336-4.545,6.336-4.545h286.955c57.79,0,105.148,14.119,140.758,43.413c35.157,28.931,52.243,66.078,52.243,114.319
						c0,34.074-6.302,64.363-18.734,90.368c-12.433,26.003-29.887,47.717-51.939,64.788c-22.068,17.309-46.665,29.986-73.105,38.031
						C592.503,524.051,563.707,528,533.632,528H449z"/>
					<g>
						<path fill="#1E4276" d="M623.566,247.171c-9.508-13.577-22.214-24.665-37.781-32.226C569.928,207.252,549.59,203,525.341,203
							H471v286h36.383c31.156,0,56.564-6.778,75.518-16.79c18.77-9.911,32.962-22.964,42.187-37.408l0.128-0.688
							c9.446-14.197,15.771-29.276,18.796-44.328c3.187-15.888,4.8-30.368,4.8-42.796c0-17.579-1.99-35.813-5.918-54.075
							C639.144,275.478,632.644,260.057,623.566,247.171z"/>
						<path fill="#FFFFFF" d="M666.116,287.196c-4.497-20.919-12.401-39.515-23.474-55.228
							c-11.909-17.008-27.709-29.051-46.972-38.409C576.686,184.348,553.022,181,525.341,181H449v331h58.383
							c34.863,0,63.837-6.492,86.107-18.26c22.44-11.85,39.675-27.262,51.233-45.306c11.288-16.99,18.882-35.064,22.581-53.467
							c3.536-17.628,5.33-33.832,5.33-48.038C672.635,327.447,670.44,307.309,666.116,287.196z M625.087,433.823
							c-9.225,14.437-23.417,28.476-42.187,38.387C563.947,482.222,538.539,489,507.383,489H471V203h54.341
							c24.249,0,44.587,4.252,60.444,11.945c15.567,7.561,28.273,18.445,37.781,32.023c9.077,12.884,15.577,28.348,19.326,45.788
							c3.928,18.261,5.918,36.483,5.918,54.064c0,12.428-1.613,26.811-4.8,42.695c-3.025,15.054-9.35,29.898-18.796,44.096
							L625.087,433.823z"/>
					</g>
					<path fill="#1E4276" d="M710.766,208.413C675.156,179.119,627.798,165,570.008,165H283.053c0,0-6.377-0.055-6.377,4.545
						c0,4.602,6.377,4.934,6.377,4.934c5.937,0.689,12.714,1.389,19.763,2.486c12.161,1.897,24.82,5.04,37.141,9.516l0.398,0.094
						c14.715,5.934,25.68,15.388,29.967,28.142c3.517,10.501,6.679,22.301,6.679,35.119v501.797c0,14.817-3.973,27.396-9.047,37.392
						c-5.422,10.696-14.853,18.854-26.53,24.229c-6.689,3.168-17.989,5.519-33.553,7.338c-8.226,0.958-14.87,2.28-25.87,2.905v0.035
						c0,0-2.438,1.122-2.438,5.217c0,4.511,3.249,5.73,3.249,5.73L543,833.967v-0.097c0,0,2.943-1.034,2.943-5.121
						c0-4.095-2.979-5.217-2.979-5.217c-8.309-0.592-18.076-1.589-27.961-2.978c-15.07-2.11-25.394-4.442-31.865-7.123
						c-14.069-5.815-23.285-14.78-28.108-26.625c-4.164-10.195-6.03-22.035-6.03-35.174V528h84.632c30.075,0,58.871-4,85.598-12.134
						c26.44-8.035,51.037-20.714,73.105-38.028c22.053-17.066,39.507-38.906,51.939-64.909c12.433-26,18.734-56.106,18.734-90.186
						C763.009,274.506,745.923,237.344,710.766,208.413z M667.305,394.864c-3.699,18.407-11.293,36.371-22.581,53.361
						c-11.559,18.048-28.793,33.666-51.233,45.515C571.22,505.508,542.246,512,507.383,512H449V181h76.341
						c27.682,0,51.345,3.348,70.33,12.559c19.263,9.357,35.063,21.933,46.972,38.943c11.072,15.71,18.977,34.041,23.474,54.957
						c4.324,20.113,6.519,40.068,6.519,59.548C672.635,361.216,670.841,377.237,667.305,394.864z"/>
				</g>
			</g>
			<path fill="#FFFFFF" d="M612.6,90.5c0,12.848-13.482,22.5-30.115,22.5H243.282c-16.632,0-30.116-9.652-30.116-22.5l0,0
				c0-12.846,13.484-22.5,30.116-22.5h339.202C599.117,68,612.6,77.654,612.6,90.5L612.6,90.5z"/>
			<path fill="#FFFFFF" d="M612.6,909.5c0,12.851-13.482,21.5-30.115,21.5H243.282c-16.632,0-30.116-8.649-30.116-21.5l0,0
				c0-12.851,13.484-21.5,30.116-21.5h339.202C599.117,888,612.6,896.649,612.6,909.5L612.6,909.5z"/>
		</g>
	</g>
</g>
</svg>
