<svg version="1.1" xmlns="http://www.w3.org/2000/svg" xmlns:xlink="http://www.w3.org/1999/xlink" viewBox="0 0 224 224"><g fill="none" fill-rule="nonzero" stroke="none" stroke-width="1" stroke-linecap="butt" stroke-linejoin="miter" stroke-miterlimit="10" stroke-dasharray="" stroke-dashoffset="0" font-family="none" font-weight="none" font-size="none" text-anchor="none" style="mix-blend-mode: normal"><path d="M0,224v-224h224v224z" fill="none"></path><g fill="#333333"><path d="M49.28,31.36c-12.31783,0 -22.4,10.08217 -22.4,22.4v116.48c0,12.31783 10.08217,22.4 22.4,22.4h125.44c12.31783,0 22.4,-10.08217 22.4,-22.4v-116.48c0,-12.31783 -10.08217,-22.4 -22.4,-22.4zM49.28,40.32h125.44c7.47481,0 13.44,5.96519 13.44,13.44v116.48c0,7.47481 -5.96519,13.44 -13.44,13.44h-125.44c-7.47481,0 -13.44,-5.96519 -13.44,-13.44v-116.48c0,-7.47481 5.96519,-13.44 13.44,-13.44zM69.3,119.98875c-4.8384,0 -7.88466,1.00317 -9.1525,3.00125c-1.20512,1.344 -1.81125,3.80121 -1.81125,7.37625v2.14375h-4.7775v6.16h4.90875v26.92375h8.6625v-26.92375h5.73125v-6.16h-5.73125v-2.8175c0,-0.6496 0.22596,-1.24292 0.665,-1.785c0.43904,-0.5376 1.22864,-0.79709 2.38,-0.76125c1.15136,0.02688 1.97918,0.06853 2.4675,0.13125v-7.105c-0.77504,-0.05824 -1.3895,-0.10437 -1.8375,-0.13125c-0.448,-0.03584 -0.94948,-0.0525 -1.505,-0.0525zM96.3725,131.41625c-2.74624,0 -5.01998,0.67277 -6.8075,2.02125c-0.99904,0.75712 -2.0475,1.98541 -3.1675,3.70125v-4.865h-8.4525v33.32h8.72375v-18.06875c0,-2.0608 0.28427,-3.75767 0.84875,-5.08375c1.0976,-2.51328 3.11612,-3.77125 6.055,-3.77125c2.38784,0 4.0138,0.85666 4.865,2.5725c0.46592,0.9408 0.7,2.28634 0.7,4.0425v20.30875h8.93375v-22.4875c0,-4.1888 -1.08626,-7.18529 -3.2725,-8.98625c-2.18624,-1.80992 -4.99457,-2.70823 -8.42625,-2.70375z"></path></g></g></svg>