<?xml version="1.0" encoding="utf-8"?>
<!-- Generator: Adobe Illustrator 16.0.0, SVG Export Plug-In . SVG Version: 6.00 Build 0)  -->
<!DOCTYPE svg PUBLIC "-//W3C//DTD SVG 1.1//EN" "http://www.w3.org/Graphics/SVG/1.1/DTD/svg11.dtd">
<svg version="1.1" id="Layer_1" xmlns="http://www.w3.org/2000/svg" xmlns:xlink="http://www.w3.org/1999/xlink" x="0px" y="0px"
	 width="960px" height="560px" viewBox="0 0 960 560" enable-background="new 0 0 960 560" xml:space="preserve">
<g>
	<g>
		<g>
			<path fill="#1E4276" d="M594.758,199.095c-1.206-0.589-2.475-1.057-3.708-1.591c-1.203-0.522-2.401-1.067-3.551-1.58
				c-0.194-1.252-0.165-12.285,0.034-13.225c1.554-0.437,3.246,0.24,4.909-0.443c0.072-0.409,0.209-0.83,0.211-1.25
				c0.02-2.769,0.018-5.538,0.009-8.308c-0.006-1.209-0.271-1.47-1.496-1.477c-1.726-0.01-3.452,0.389-5.178,0.389
				c-10.355,0-20.712,0.39-31.068,0.39c-0.63,0-0.92,0-1.92,0c0-2,0-4.848,0-6.882c3-1.911,2.979-3.858,4.506-5.786
				c1.674-2.109,3.369-4.192,5.035-6.307c0.234-0.298,0.324-0.708,0.46-1.014c-0.11-0.264-0.188-0.449-0.253-0.605
				c-0.428-0.431-0.949-0.419-1.475-0.417c-2.609,0.006-5.22-0.025-7.828,0.021c-0.816,0.014-1.476-0.248-2.11-0.695
				c-1.613-1.135-3.22-2.278-4.851-3.388c-1.371-0.935-2.755-1.849-4.16-2.731c-0.843-0.53-1.63-0.954-2.445-1.397l1.313,0.682
				c-1.897-1.212-5.893-3.242-8.815-4.686c-1.007-0.514-2.166-1.085-3.444-1.677c-0.022-0.01-0.038-0.018-0.038-0.018l0.012,0.006
				c-1.664-0.769-3.526-1.571-5.511-2.33c-4.788-1.829-7.368-2.759-8.592-3.149l0.01-0.059l-6.288-1.906
				c-2.518-0.603-5.051-1.146-7.58-1.693c-1.56-0.336-3.124-0.526-4.738-0.521c-12.403,0.04-24.806,0.042-37.208-0.002
				c-2.274-0.008-4.428,0.545-6.61,0.994c-1.56,0.319-3.096,0.75-4.645,1.13c-0.039,0.011-0.08,0.004-0.119,0.013
				c-1.188,0.322-2.385,0.615-3.563,0.974c-1.142,0.347-2.243,0.846-3.398,1.128c-2.443,0.597-4.824,1.645-7.167,2.51l-2.099,0.857
				c-4.871,2.186-9.604,4.552-14.182,7.211c-4.601,2.67-8.98,5.736-13.333,8.736c-1.226,0-2.431,0-3.634,0
				c-1.164,0-2.327-0.009-3.492-0.002c-1.193,0.007-2.387,0.022-3.605,0.034c-0.2,0.411-0.691,0.723-0.898,1.154
				c3.227,4.464,7.746,8.587,9.746,12.963c0,2.292,0,4.481,0,6.716c0,0.043-0.176,0.108-0.404,0.109
				c-3.451,0.015-6.732,0.03-10.184,0.029c-8.229-0.002-16.371-0.019-24.6-0.01c-0.455,0-0.865,0.167-1.327,0.257
				c-0.089,0.464-0.192,0.811-0.193,1.158c-0.017,2.81,0.002,5.62-0.005,8.429c-0.002,0.496,0.103,0.944,0.55,1.413
				c0.306,0.021,0.698,0.067,1.091,0.069c1.524,0.01,2.794-0.002,4.319,0.011c0.304,0.002,0.753,0.075,0.753,0.126
				c0,1.128,0,2.166,0,3.203c0,1.004,0,2.007,0,3.01c0,1.044,0.279,2.087,0.248,3.13c-0.029,1.026,0.267,2.068,0.021,3.069
				c-0.875,0.382-1.611,0.716-2.398,1.079c-1.468,0.673-3.095,1.344-4.542,2.056c-0.445,0.219-0.328,0.569-1.328,0.812
				c0,0.462,0,0.778,0,1.098c3,1.539,3.469,3.058,5.095,4.58c2.052,1.917,4.204,3.828,6.233,5.77
				c0.232,0.223,0.393,0.607,0.479,0.938c0.068,0.262,0.035,0.559,0.037,0.839c0.016,5.258-0.002,10.517,0.076,15.773
				c0.035,2.276,0.305,4.548,0.437,6.823c0.118,2.039,0.175,4.081,0.313,6.117c0.081,1.172,0.257,2.302,1.286,3.053
				c0.346,0.252,1.044,0.438,1.044,0.68c0,23.941,0,47.888,0,71.852c-1,0.71-2.268,2.325-2.6,4.059
				c-2.028,0.525-2.767,1.507-3.309,3.622c-0.617,0-1.443-0.029-1.973-0.029c-0.305,0.705-0.119,0.313-0.119,1.18
				c0,2.102,0,4.141,0,6.123c0,0.541,0.919,0.582,1.539,0.58c4.977-0.01,9.868-0.006,14.844-0.004c4.497,0,8.949,0,13.443,0.003
				c0.564,0,1.108,0.032,1.558-0.446c0.073-0.331,0.201-0.68,0.207-1.03c0.023-1.484,0.007-2.97,0-4.455
				c-0.003-0.698-0.265-1.242-0.992-1.513c-0.255,0-0.539,0.01-0.817-0.003c-0.31-0.015-0.617-0.052-0.928-0.079
				c-0.465-1.91-1.349-3.373-3.367-3.763c0.02-0.694-0.179-1.431-0.906-2.579c-0.737-0.736-1.399-1.277-1.953-1.446l-0.18-70.905
				c0-0.314,0.035-0.63,0.056-0.96c0.546-0.313,1.155-0.517,1.557-0.924c0.882-0.897,1.478-1.986,1.476-3.295
				c-0.006-3.528,0.259-6.718,0.534-10.23c0.064-0.828,0.171-2.242,0.267-2.242c1.432,0,2.77,0,4.11,0
				c1.886,0,3.772-0.302,5.659-0.328c1.915-0.028,3.828-0.102,5.744-0.14c3.13-0.063,6.262-0.103,9.393-0.093
				c0.424,0.002,0.846,0.037,1.236,0.075c0.071,0.234,0.128,0.323,0.138,0.438c0.14,1.592,0.349,3.172,0.39,4.768
				c0.075,2.802,0.177,5.591,0.476,8.383c0.144,1.341,1.215,2.333,2.34,3.033c0.195,0.121-0.821,0.128,1.179,0.269v71.613
				c-2,0.696-2.018,1.153-2.427,1.825c-0.434,0.714-0.782,1.63-1.085,2.644c-1.24,0.459-2.527,1.297-3.139,2.736
				c-0.046,0.352-0.154,0.703-0.213,1.141c-0.682,0.037-1.019,0.071-1.744,0.11c-0.245,0.223-0.393,0.487-0.393,0.625
				c0,2.233,0,4.233,0,6.21c0,0.414,0.576,0.568,1.135,0.561c1.686-0.021,3.209-0.002,4.894,0c7.827,0,15.573,0.004,23.401-0.008
				c0.542,0,1.043-0.118,1.613-0.186c0.113-0.448,0.245-0.788,0.251-1.13c0.028-1.485,0.032-3.16-0.009-4.643
				c-0.018-0.678-0.144-0.902-1.137-1.902c-0.36,0-0.915,0-1.494,0c-0.611-2-1.322-3.223-3.478-3.578
				c-0.116-0.508-0.258-0.906-0.343-1.41c-0.176-1.059-0.863-1.77-1.706-2.362c-0.279-0.198-1.128-0.258-1.128-0.463
				c0-0.379,0-0.771,0-1.163c0-0.521,0-1.876,0-1.876v-67.233c0,0,0-0.729,0-1.223c0-0.175,0.656-0.321,0.919-0.483
				c0.3-0.185,0.653-0.352,0.919-0.577c0.99-0.839,1.293-2.009,1.367-3.218c0.143-2.318,0.214-4.64,0.325-6.96
				c0.063-1.318,0.149-2.314,0.258-3.63c0.059-0.702,0.199-1.823,0.307-1.823c0.517,0,0.953,0,1.392,0c1.686,0,3.371,0,5.057,0
				s3.375-0.39,5.057-0.306c1.679,0.087,3.349-0.216,5.023-0.19c3.244,0.056,6.49-0.04,9.732-0.006
				c0.287,0.002,0.571,0.107,0.783,0.165c0.335,5.007,0.659,9.848,0.988,14.78c0.568,0.585,1.061,1.215,1.681,1.689
				c0.731,0.56,0.893,0.727,0.778,1.515c-0.072,0.509,0.131,1.02,0.129,1.532C475.707,269.17,476,290.16,476,311.151
				c0,2.045,0,4.088,0,6.083c-2,0.558-1.869,1.009-2.221,1.824c-0.359,0.827-0.688,1.51-0.939,2.346
				c-2.031,0.494-2.851,3.596-3.451,3.596c-0.585,0-1.143,0-1.598,0c-0.87,1-1.094,1.471-1.051,2.342
				c0.059,1.195,0.121,2.573,0.051,3.765c-0.045,0.785,0.178,0.894,0.892,1.894c0.192,0,0.433,0,0.673,0
				c9.594,0,19.186-0.064,28.778-0.064c0.161,0,0.323-0.029,0.481-0.041c0.778-0.065,1.115-0.368,1.127-1.125
				c0.029-1.687,0.032-3.383,0.002-5.067c-0.016-0.842-0.421-1.206-1.28-1.266c-0.43-0.03-0.859-0.036-1.228-0.049
				c-0.45-0.884-0.607-1.753-1.212-2.447c-0.626-0.72-1.367-1.167-2.158-1.358c-0.302-0.852-0.608-1.586-0.815-2.35
				c-0.147-0.551-0.49-0.922-0.904-1.229c-0.404-0.299-0.872-0.514-1.318-0.77c-0.188-2.206-0.102-70.819,0.093-71.706
				c1.887-0.708,2.787-2.031,2.783-4.085c-0.003-2.039,0.175-4.079,0.272-6.119c0.003-0.079,0.009-0.16,0.016-0.24
				c0.135-1.712,0.275-3.424,0.398-5.137c0.03-0.433,0.005-0.871,0.005-1.425c0.599-0.063,1.1-0.158,1.602-0.161
				c5.098-0.011,10.194-0.007,15.292-0.007c1.887,0,3.773-0.007,5.66,0.007c0.338,0.002,0.675,0.09,1.105,0.152
				c0.147,2.542,0.277,4.971,0.432,7.398c0.158,2.474,0.34,4.945,0.505,7.312c0.617,0.975,1.227,1.791,2.142,2.147
				c0.076,0.138,0.095,0.173,0.114,0.208c0.019,0.036,0.039,0.07,0.057,0.106c0.018,0.036,0.034,0.073,0.046,0.111
				c0.013,0.039,0.028,0.076,0.032,0.115c0.008,0.079,0.014,0.16,0.015,0.24c0.003,0.161,0.002,0.321,0.002,0.482
				c-0.007,23.48-0.012,46.962-0.02,70.441c0,0.04-0.01,0.081-0.025,0.118c-0.015,0.035-0.039,0.066-0.061,0.1
				c-1.006,0.54-1.455,0.754-2.185,2.17c-0.169,0.813-0.307,1.471-0.446,2.14c-0.416,0.117-0.757-0.012-0.951,0.043
				c-1.395,0.896-2,3.355-2.486,3.355c-0.607,0-1.167,0-1.729,0c-0.841,0-0.74,0.619-0.759,1.051c0,1.738,0.002,3.64-0.001,5.364
				c-0.001,0.553,0.129,0.585,0.771,1.585c1.032,0,3.248,0,3.248,0l28.099-0.27c-0.032-0.033-0.034-0.06-0.065-0.09l-0.068-5.688
				c0.012-0.742-0.211-0.953-0.971-1.953c-0.472,0-1.026,0-1.586,0c-0.742-2-1.236-3.252-3.404-3.615
				c-0.135-2.031-0.758-3.468-2.758-4.145c0-14.776,0-29.521,0-44.292c0-2.324,0-4.643,0-6.968v-1.611v-1.609v-1.428
				c0-1.074,0-2.07,0-2.973v-1.968c0,0.007-0.208,0.017-0.19,0.023c0.035-3.686-0.132-7.284-0.091-10.898
				c1.506-0.292,2.166-1.313,2.774-2.496c0.111-2.047,0.145-4.129,0.318-6.204c0.205-2.432,0.442-4.86,0.426-7.305
				c-0.002-0.276-0.007-0.553-0.007-0.833c0.208-0.097,0.342-0.209,0.484-0.22c0.711-0.05,1.422-0.1,2.134-0.101
				c4.737-0.008,9.472-0.003,14.209-0.003c2.248,0,4.493-0.005,6.741,0.004c0.278,0,0.581-0.062,0.852,0.073
				c0.992,0.078,0.918,14.961,1.813,15.94c0.072,0.079,0.85,0.636,0.932,0.692c0.164,0.147,0.605,0.278,0.605,0.395
				c0,23.957,0,47.87,0,71.824c0,0.333-1.475,0.85-1.85,1.711c-0.051,0.115-0.116,0.233-0.155,0.351
				c-0.209,0.711-0.218,1.436-0.395,2.045c-0.792,0.468-1.473,0.712-2.164,1.118c-0.422,0.908-0.843,2.492-1.262,2.492
				c-0.56,0-1.078,0-1.605,0c-0.29,0-0.423,0.672-0.712,0.906c0,1.043,0.143,2.274,0.143,3.292c0,0.006,0,0.01,0,0.014
				c0,0.02,0,0.04,0,0.059c0,0.032,0,0.063,0,0.095c0,1.024-0.105,2.065-0.096,2.907c0.033,0.039,0.021,0.07,0.05,0.105
				c0.096,0.106,0.168,0.213,0.272,0.287c0.03,0.019,0.05,0.025,0.081,0.04c0.292,0.143,0.589,0.234,0.881,0.234
				c0.096-0.002,0.187,0.061,0.282,0.061c0.015,0,0.029,0,0.043,0c0.001,0,0.001,0,0.001,0c0.015,0,0.029,0,0.043,0
				c5.11,0,10.212,0,15.319,0c0.229,0,0.462,0,0.692,0c1.836,0,3.71-0.066,5.566-0.066c2.348-0.002,4.987,0.19,7.133,0.19
				c0.443,0,1.731,0.002,1.731-0.732c0-2.061,0-4.182,0-6.336c0-0.824-0.711-0.404-0.929-0.598
				c-0.624-0.027-1.461-0.055-1.918-0.074c-0.499-0.95-0.871-1.836-1.406-2.605c-0.553-0.797-1.603-0.952-2.317-1.367
				c-0.182-0.874-0.339-1.614-0.473-2.259c-0.664-0.868-1.275-1.657-2.442-1.854c-0.037-0.538-0.101-1.048-0.101-1.557
				c-0.002-1.311,0.002-2.62,0-3.93c-0.005-5.68-0.009-11.359,0.003-17.038c0-0.788-0.002-1.575,0-2.362
				c0.025-8.625,0.091-17.25,0.126-25.874c0.004-1.078-0.122-2.157-0.126-3.235c-0.014-4.736-0.018-9.473,0.003-14.208
				c0.005-1.155,0.118-2.311,0.182-3.484c0.185-0.107,0.346-0.238,0.527-0.303c1.24-0.442,1.983-1.304,2.187-2.602
				c0.144-0.906,0.339-1.816,0.352-2.727c0.043-3.326,0.257-6.641,0.527-9.955c0.041-0.516,0.141-1.03,0.155-1.546
				c0.012-0.419,0.014-0.84,0.013-1.273c0.083-4.723,0.566-11.594,0.566-15.776c0-0.141,0.215-0.208,0.353-0.341
				c1.618-1.558,3.097-3.141,4.73-4.684c1.421-1.342,2.84-2.625,4.262-3.966c0.655-0.618,1.307-1.234,1.706-1.995
				C595.847,199.673,595.268,199.345,594.758,199.095z M553.652,174c0.005,0,0.175,0,0.175,0H558v0.839
				c0,0.877,0.291,2.161,1.167,2.161h0.045c0.876,0,1.788-1.284,1.788-2.161V174h3v0.839c0,0.877,0.726,2.161,1.602,2.161h0.045
				c0.876,0,1.354-1.284,1.354-2.161V174h4v0.839c0,0.877,0.16,2.161,1.037,2.161h0.045c0.876,0,1.918-1.284,1.918-2.161V174h3
				v0.839c0,0.877,0.596,2.161,1.472,2.161h0.045c0.876,0,1.483-1.284,1.483-2.161V174h4v0.839c0,0.877,0.03,2.161,0.906,2.161
				h0.045c0.876,0,2.049-1.284,2.049-2.161V174h3.174c0.191,1,0.154,5-0.039,6C577.85,180,566,180,553,180c0-2,0-4.092,0-6.242
				C554,173.724,553.432,174,553.652,174z M585.125,194.734c-1.038-0.143-1.903-0.724-2.83-1.1
				c-2.132-0.864-4.242-1.779-6.342-2.716c-1.927-0.859-3.813-1.804-5.74-2.654c-2.396-1.057-4.822-2.041-7.224-3.082
				c-1.343-0.583-2.658-1.227-3.991-1.829c-0.392-0.177-0.803-0.31-1.442-0.554c1.099-0.257,25.88-0.32,27.485-0.128
				C585.231,183.572,585.299,192.517,585.125,194.734z M559.03,152.975c0,0,0.221,0,0.238,0c-0.081,0.114-0.159,0.217-0.238,0.322
				V152.975z M556,153.493c0-0.156,0.727-0.075,1.469-0.096c0.689-0.02,0.3,0.324,1.552,0.331c-0.847,1.096-1.743,2.272-2.464,3.272
				c-0.676,0-0.557,0-0.557,0C556,155,556,154.608,556,153.493z M554.53,160.025c-1.215,1.072-2.312,1.975-3.394,3.975
				c-0.383,0-0.623,0-0.864,0c-3.532,0-7.188-0.251-10.721-0.243c-0.464,0.001-0.552-0.372-1.552,0.153c0,0.497,0,1.08,0,1.627
				c1,0.434,1.686,0.428,2.479,0.423c3.008-0.017,6.081-0.009,9.091-0.003c0.268,0.001,0.563,0.052,0.813,0.078
				c0.214,2.09,0.149,12.546-0.082,13.362l-45.214-19.683C520.572,159.735,539.363,160.025,554.53,160.025z M510.443,155.603
				c0.064,0.465,0.231,1.397-0.169,1.397c-0.958,0-8.595,0-12.089,0l-7.348-3.425l19.533-0.13c-0.029,0.451-0.078,0.867-0.064,1.182
				C510.32,154.942,510.4,155.289,510.443,155.603z M512,156.491c0-0.999,0-1.947,0-2.978c2-0.183,2.282-0.071,2.979-0.092
				c0.672-0.02,2.021-0.005,3.021-0.005c0,1.173,0,2.195,0,3.293c-1-0.042-2.383-0.17-3.102-0.1
				C514.208,156.677,514,156.769,512,156.491z M519.941,153c1.532,0,3.059,0,5.059,0c0,2,0,2.387,0,3.423
				c-1,0.449-1.247,0.495-1.761,0.361c-0.699-0.183-1.601-0.165-2.392-0.114c-0.242,0.019,0.152,0.04-0.848,0.057
				c0-0.002,0-0.004,0-0.006c0,0.002-0.01-0.291-0.04-0.289C519.793,155.409,519.953,155,519.941,153z M526.744,156.591
				c0.047-1.053,0.039-2.026,0.087-3.056c0.356-0.124,0.69-0.143,1.027-0.136c0.171,0.003,0.343,0.012,0.521,0.02
				c0.151,0.006,0.306,0.011,0.464,0.005c0.252-0.01,0.712-0.013,1.028-0.014c0.523,0,1.128,0.008,1.128,0.008
				c0,1.162,0,2.149,0,3.113c0,0.096-0.167,0.178-0.276,0.213c-0.021,0.007-0.097,0.01-0.114,0.016
				c-0.041,0.021-0.076,0.033-0.107,0.025c-0.035,0.007-0.086,0.005-0.139-0.012c-0.439-0.149-0.889-0.196-1.33-0.201
				c-0.602-0.002-1.216,0.061-1.82,0.048C527.059,156.616,526.898,156.607,526.744,156.591z M538.212,157c-1.454,0-2.212,0-4.212,0
				c0-2,0-2,0-4c1,0,1.309,0,1.977,0s1.334,0,2.144,0C538.308,155,538.127,155,538.212,157z M540.809,156.602
				c0.045-0.618,0.053-1.367,0.073-1.872c0.02-0.471-0.039-1.73-0.039-1.73c1.386,0,3.157,0,4.157,0c0,2,0,2.555,0,3.582
				c0,0-1.276,0.091-1.992-0.009c-0.719-0.102-1.008,0.436-2.008,0.055c0-0.002,0-0.002,0-0.005
				C541,156.614,540.826,156.612,540.809,156.602z M548,153.476c1-0.107,1.295-0.046,1.994-0.056
				c0.672-0.009,1.006-0.001,2.006-0.001c0,1.122,0,2.174,0,3.388c-1-0.324-3-0.312-4-0.017C548,155.689,548,154.634,548,153.476z
				 M536.477,141.034l0.006,0.003C536.48,141.036,536.478,141.036,536.477,141.034L536.477,141.034z M418.549,144
				c16.713,0,50.017,0,50.017,0l0.536-2c0,0-30.562,0-45.884,0c0.214,0,0.293-0.59,0.44-0.667c1.41-0.725,2.809-1.528,4.258-2.168
				c2.355-1.042,4.75-2.002,7.12-3.01l61.507-0.059l0.324-2.117c-17.099-0.004-34.38,0.021-51.479,0.021c-1.279,0-2.559,0-3.837,0
				c1.152,0,2.319-1.081,3.517-1.435c1.525-0.453,3.073-0.846,4.611-1.25c0.347-0.091,0.695-0.185,1.045-0.258
				c1.52-0.318,3.037-0.649,4.563-0.94c0.742-0.141,1.499-0.3,2.249-0.301c13.487-0.018,26.973-0.016,40.46-0.01
				c0.478,0.002,0.963,0.04,1.429,0.137c1.558,0.326,3.093,0.803,4.664,1c1.445,0.182,2.791,0.676,4.182,1.017
				c0.84,0.205,1.672,0.447,2.501,0.698c0.524,0.19,5.194,1.879,8.67,3.081c3.521,1.216,13.187,5.667,14.045,6.063
				c0.155,0.081,0.312,0.158,0.467,0.239c4.882,2.568,9.572,5.453,14.04,8.788c-7.75,0.167-15.467,0.149-23.184,0.154l-37.947,0.015
				c-0.941,0.034-1.822-0.12-2.674-0.492c-0.691-0.302-1.375-0.617-2.063-0.922c-1.961-0.868-3.923-1.726-5.894-2.595
				c-2.867,1.34-5.71,3.011-8.564,4.011c-0.354,0-0.716,0-1.076,0c-16.296,0-32.594,0-48.89,0c-2.648,0-5.297,0.003-7.946-0.009
				c-0.506-0.001-1.052,0.112-1.56-0.364C411.634,148.425,415.053,146,418.549,144z M462.155,153.47
				c-0.307,0.358-0.868,0.561-1.315,0.694c-0.598,0.177-1.271,0.472-1.837,0.746c-1.315,0.638-2.667,1.291-3.988,1.931
				c-1.779-0.322-7.63-0.229-8.66-0.206c-0.254,0.005-0.354-0.023-0.354-0.023c0-1.107,0-2.078,0-3.048
				C447,153.372,459.346,153.298,462.155,153.47z M443,153.418c0,1.108,0,2.021,0,2.934c0,0.276-0.555,0.315-0.92,0.292
				c-0.54-0.031-1.203,0.152-1.746,0.153c-0.525,0.003-1.214,0.202-1.844,0.202c-0.03,0-0.056,0-0.084,0s-0.15-0.494-0.16-0.734
				c-0.033-0.83-0.055-1.756-0.055-2.692c0.405-0.058,0.776-0.11,1.143-0.108c0.341,0,0.956-0.012,1.332-0.019
				C441.374,153.434,443,153.418,443,153.418z M436,153c0,2,0,2.59,0,3.661c-2-0.103-3-0.158-4,0.044c0-1.061,0-1.706,0-3.706
				C433,153,434,153,436,153z M429,153c0,2,0,2,0,4c-1,0-2.986,0-4.359,0c-0.192-2-0.163-2,0.079-4C425.989,153,428,153,429,153z
				 M422,153.419c0,1.125,0,2.181,0,3.322c-1-0.144-2.848-0.315-4.18,0.058c-0.066-0.118-0.261-0.238-0.281-0.356
				c-0.092-0.446-0.037-0.889-0.064-1.315c-0.034-0.514,0-1.03,0-1.617c0.387-0.089,0.721-0.104,1.063-0.101
				c0.311,0,0.924,0.022,1.283,0.012C420.493,153.406,422,153.419,422,153.419z M414,153c0,2,0,2,0,4c0,0-2,0-4,0c0-2,0-2,0-4
				C412,153,414,153,414,153z M403,153c2,0,4,0,6,0c0,2,0,2.407,0,3.456c0,0.061-0.813,0.267-0.996,0.238
				c-1.111-0.172-2.834-0.21-3.938,0.063c-0.148,0.037,0.935-0.112-1.065-0.147C403,155.537,403,155,403,153z M396.682,153.557
				c0.124-0.05,0.277-0.339,0.381-0.339c0.849-0.007,1.508-0.218,2.373-0.218c0.515,0,1.564,0,2.564,0c0,2,0,2.625,0,3.746
				c-1-0.063-1.881-0.121-2.547-0.179C398.654,155.553,397.476,154.569,396.682,153.557z M401.114,160c0.485,0,0.799,0,1.109,0
				c13.5,0,31.836-0.083,46.397-0.079l-6.918,3.161c-1.6,0.742-3.211,1.435-4.802,2.191c-1.14,0.541-2.249,1.129-3.386,1.678
				c-0.695,0.337-1.419,0.616-2.125,0.935c-0.575,0.259-1.146,0.524-1.715,0.801c-1.775,0.864-3.541,1.75-5.324,2.598
				c-1.679,0.799-3.373,1.562-5.063,2.337c-1.393,0.638-2.783,1.268-4.175,1.907c-1.316,0.606-2.621,1.21-3.935,1.827
				c-0.572,0.269-1.105,0.566-1.674,0.845c-1.309,0.641-2.724,1.282-4.036,1.914c-0.094,0.044-0.469-0.005-0.469-0.014
				c0-4.646,0-9.277,0-14.045c0-0.036,0.939-0.097,1.359-0.098c3.691-0.008,7.36,0.005,11.051-0.015
				c0.624-0.004,1.288-0.137,1.906-0.21c0.164-0.382,0.307-0.669,0.457-1.019c-0.16-0.343-0.313-0.697-0.51-1.126
				c-1.247-0.086-2.486-0.1-3.726-0.095c-1.242,0.005-2.478,0.18-3.714,0.17c-2.445-0.021-4.888,0.335-7.341,0.335h-0.002
				C403.382,162,402.304,161,401.114,160z M369.272,181c-0.476,0-0.272,0-0.272,0c0-2,0-4.306,0-6.463
				c0-0.155-0.185-0.181,0.094-0.174l1.906-0.005v1.019c0,0.876,0.681,1.624,1.557,1.624h0.045c0.876,0,1.398-0.748,1.398-1.624
				v-1.027l4-0.008v1.035c0,0.876,0.115,1.624,0.991,1.624h0.045c0.877,0,1.964-0.748,1.964-1.624v-1.042l3-0.008v1.051
				c0,0.876,0.551,1.624,1.426,1.624h0.045c0.877,0,2.529-0.748,2.529-1.624v-1.059l3-0.007v1.066c0,0.876-0.015,1.624,0.861,1.624
				h0.045c0.876,0,2.094-0.748,2.094-1.624v-1.074l3-0.007v1.082c0,0.876,0.42,1.624,1.297,1.624h0.044
				c0.876,0,1.659-0.748,1.659-1.624v-1.09l2-0.005c0,0,0,4.356,0,6.587c0,0.009-0.521,0.132-0.946,0.132
				C390.459,181,379.866,181,369.272,181z M398.457,183.538c-7.996,3.824-15.788,7.421-23.552,11.119
				c-0.25-0.891-0.302-9.744-0.082-11.154c1.001-0.225,18.899-0.343,22.661-0.16C397.71,183.354,397.933,183.43,398.457,183.538z
				 M372.023,198.474c1.805-0.833,3.623-1.64,5.418-2.49c1.758-0.833,3.49-1.724,5.246-2.561c2.188-1.043,4.39-2.056,6.583-3.084
				c0.504-0.237,0.995-0.5,1.501-0.731c1.361-0.623,2.732-1.228,4.092-1.856c1.292-0.598,2.574-1.221,3.864-1.826
				c2.196-1.028,4.401-2.039,6.592-3.078c1.794-0.852,3.565-1.75,5.359-2.6c1.864-0.882,3.749-1.721,5.615-2.597
				c1.723-0.808,3.434-1.639,5.149-2.459c0.538-0.257,1.074-0.517,1.615-0.767c1.259-0.579,2.526-1.14,3.78-1.73
				c1.296-0.61,2.575-1.257,3.871-1.865c1.254-0.587,2.525-1.134,3.779-1.718c1.371-0.638,2.729-1.302,4.096-1.948
				c1.216-0.574,2.439-1.129,3.652-1.707c1.793-0.856,3.571-1.746,5.372-2.583c1.764-0.82,3.561-1.568,5.322-2.396
				c0.581-0.273,1.152-0.57,1.723-0.868c0.124-0.04,0.248-0.075,0.371-0.087c0.068-0.007,0.127-0.087,0.19-0.105
				c0.085-0.024,0.173-0.063,0.25-0.107c0.01-0.004,0.015-0.025,0.025-0.03c0.113-0.069,0.215-0.159,0.305-0.26
				c0.317-0.162,0.637-0.32,0.959-0.47c2.298-1.076,4.627-2.083,6.926-3.157c3.244-1.515,6.47-3.068,9.706-4.598
				c0.965-0.456,1.941-0.886,2.92-1.332c3.818,1.68,7.601,3.343,11.364,4.997v0c0.021,0.009,0.061,0.026,0.109,0.048
				c1.757,0.772,3.518,1.546,5.261,2.312c0.008-0.002,0.013-0.005,0.02-0.009c1.441,0.629,2.646,1.155,2.798,1.222
				c1.994,0.88,3.989,1.761,5.984,2.641c1.347,0.593,2.697,1.178,4.04,1.78c0.758,0.34,1.496,0.724,2.256,1.056
				c1.418,0.622,2.854,1.209,4.271,1.833c1.306,0.575,2.59,1.195,3.895,1.769c1.346,0.59,2.712,1.135,4.056,1.727
				c1.381,0.61,2.741,1.267,4.121,1.877c1.452,0.64,2.921,1.246,4.379,1.876c1.458,0.631,2.907,1.282,4.367,1.912
				c1.272,0.549,2.563,1.057,3.826,1.626c1.267,0.572,2.498,1.224,3.766,1.794c1.519,0.681,3.063,1.302,4.588,1.97
				c1.239,0.543,2.46,1.133,3.703,1.668c1.346,0.579,2.715,1.107,4.064,1.679c0.947,0.403,1.875,0.849,2.817,1.265
				c1.303,0.574,2.617,1.126,3.917,1.709c1.34,0.602,2.658,1.248,4.001,1.84c2.509,1.107,5.029,2.182,7.537,3.286
				c1.311,0.577,2.6,1.205,3.912,1.779c2.107,0.921,4.231,1.807,6.338,2.729c1.166,0.511,2.304,1.084,3.47,1.593
				c1.237,0.541,2.492,1.041,3.74,1.559c-0.287,0.192-0.522,0.216-0.759,0.216c-6.422-0.001-12.844-0.009-19.267-0.001
				c-0.866,0.001-1.647-0.238-2.41-0.607c-0.285-0.137-0.567-0.278-0.857-0.404c-1.857-0.813-3.718-1.619-5.575-2.433
				c-1.997-0.875-3.99-1.757-5.988-2.633c-1.783-0.783-3.573-1.551-5.351-2.344c-1.41-0.629-2.797-1.303-4.211-1.92
				c-1.857-0.812-3.738-1.569-5.596-2.383c-1.889-0.828-3.762-1.694-5.641-2.547c-0.612-0.277-1.216-0.578-1.836-0.84
				c-1.388-0.587-2.797-1.127-4.172-1.738c-2.437-1.082-4.849-2.216-7.282-3.303c-1.589-0.71-3.198-1.369-4.795-2.062
				c-0.618-0.269-1.216-0.581-1.834-0.847c-2.081-0.894-4.17-1.768-6.249-2.664c-1.279-0.554-2.544-1.143-3.822-1.698
				c-1.895-0.822-3.807-1.605-5.693-2.445c-2.432-1.082-4.827-2.243-7.271-3.294c-2.176-0.936-4.373-1.812-6.498-2.87
				c-1.595-0.795-3.262-1.447-4.904-2.142c-0.879-0.37-1.778-0.692-2.717-1.056c-1.93,0.883-3.851,1.75-5.763,2.639
				c-1.322,0.614-2.626,1.273-3.948,1.887c-1.263,0.586-2.548,1.119-3.808,1.71c-2.298,1.08-4.572,2.21-6.878,3.271
				c-2.309,1.062-4.658,2.036-6.967,3.099c-1.828,0.842-3.615,1.778-5.435,2.642c-2.081,0.987-4.179,1.938-6.268,2.907
				c-0.572,0.266-1.135,0.56-1.712,0.818c-1.773,0.795-3.564,1.557-5.328,2.378c-1.793,0.837-3.552,1.752-5.345,2.59
				c-2.519,1.178-5.058,2.311-7.581,3.478c-1.151,0.533-2.275,1.122-3.428,1.648c-1.298,0.592-2.623,1.123-3.921,1.713
				c-1.405,0.638-2.79,1.319-4.188,1.971c-1.227,0.57-2.462,1.118-3.688,1.691c-1.715,0.802-3.421,1.624-5.137,2.426
				c-2.009,0.939-4.028,1.857-6.035,2.805c-0.771,0.364-1.55,0.566-2.419,0.563c-5.58-0.019-11.159-0.001-16.738-0.001
				c-0.208,0-0.414-0.057-0.782-0.112C371.318,198.84,371.664,198.641,372.023,198.474z M561.518,199c-55.341,0-110.682,0-166.022,0
				c13.392-6,26.881-12.617,40.344-18.893c13.47-6.282,26.959-12.583,40.343-18.797c17.785,7.812,35.533,15.735,53.271,23.527
				C540.143,189.505,550.832,194,561.518,199z M392,317.263l-10.27,0.022c-0.086-0.079-0.141-0.091-0.163-0.124
				c-0.022-0.031-0.278-0.067-0.278-0.104c-0.021-23.43-0.289-46.854-0.289-70.283c0-0.315,0-0.773,0-0.773c4,0,6.826,0,10.015,0
				c0.026,0,0.526,0.54,0.526,0.847c0,21.506,0.459,42.869,0.459,64.375C392,313.14,392,317.263,392,317.263z M394.684,232.008
				c-0.108,2.275-0.188,4.551-0.295,6.827c-0.041,0.875-0.078,1.751-0.199,2.617c-0.068,0.499-0.299,0.948-0.474,1.483
				c-0.616,0.211-1.103,0.52-1.591,0.52l0,0c-0.004,0-0.006-0.072-0.008-0.121c-1.465-0.044-2.932-0.078-4.35-0.121
				c-0.398-0.44-0.217-0.849-0.176-1.287c0.129-1.372,0.626-2.217-0.293-3.133c-1.049-0.077-1.299-0.057-1.299,1.065
				c0,1.066,0,2.13,0,3.258c-1,0.542-1.639,0.169-2.278,0.19c-0.342,0.013-0.878,0.013-1.224,0.013
				c-0.344-0.002-0.783-0.006-1.122-0.006c-0.17,0-0.386,0.006-0.556,0.006c-0.511,0.003-1.035-0.034-1.459-0.405
				c-0.412-0.587-0.522-1.236-0.544-1.936c-0.081-2.639-0.188-5.279-0.328-7.917c-0.077-1.462-0.245-2.92-0.384-4.518
				c1.398-0.026,2.791-0.035,4.184-0.035c2.78,0,5.551,0.035,8.33,0.043c1.391,0.005,2.782,0.002,4.18-0.016
				c0.033,0.322,0.098,0.588,0.082,0.849C394.828,230.261,394.726,231.132,394.684,232.008z M439,246.915l-0.034,68.893
				c-0.001,0.419,0.051,0.912-0.309,1.359c-0.327,0-0.734,0.01-1.092,0.018c-2.319,0.062-4.224,0.139-6.546,0.193
				c-0.471,0.013-1.02,0.096-1.02-0.443v-71.243c1-0.224,8-0.063,9,0.181C439,246.252,439,246.915,439,246.915z M442.373,232.418
				c-0.11,2.356-0.189,4.713-0.301,7.068c-0.038,0.794-0.116,1.59-0.226,2.377c-0.048,0.344-0.223,0.672-0.38,1.121
				c-0.475,0.113-0.853,0.279-1.235,0.286c-1.56,0.03-3.122,0.021-4.704,0.021c-0.16-0.306-0.192-0.608-0.192-0.909
				c-0.002-0.295,0.031-0.588,0.021-0.875c-0.014-0.297-0.016-0.588-0.014-0.88c0-0.286,0.007-0.518,0.007-0.826
				c-0.249-0.308-0.495-0.802-0.757-0.802c-0.284,0-0.557,0-0.863,0c-0.238,0-0.476,0.405-0.722,0.682
				c-0.034,0.313-0.046,0.596-0.048,0.909c-0.002,0.311,0.006,0.606,0.012,0.917c0.012,0.624,0.013,1.238-0.1,1.858
				c-3.689,0.149-4.83,0.056-5.812-0.392c-0.493-0.917-0.503-1.975-0.559-2.998c-0.136-2.516-0.61-5.041-0.745-7.557
				c-0.064-1.232,0.244-2.462-0.756-3.759c0-0.001,0-0.001,0-0.002c1-0.047,0.85-0.138,1.072-0.138
				c5.209,0.005,10.627,0.018,15.836,0.034c0.114,0,0.332,0.046,0.551,0.094c0,0.497,0.119,1.005,0.09,1.509
				C442.506,230.913,442.408,231.664,442.373,232.418z M487.22,317.061c-0.12,0.039-0.265,0.124-0.412,0.129
				c-2.56,0.072-5.12,0.14-7.679,0.198c-0.39,0.008-0.78-0.031-1.049-0.041c-0.144-0.136-0.175-0.16-0.2-0.191
				c-0.023-0.031-0.045-0.068-0.057-0.105c-0.024-0.075-0.059-0.153-0.059-0.229c-0.006-23.507-0.007-47.014-0.007-70.52
				c0-0.156,0.03-0.312,0.045-0.457c0.932-0.286,8.413-0.263,9.489,0.037C487.504,247.51,487.438,316.174,487.22,317.061z
				 M491.2,229.576c-0.269,1.941-0.392,3.862-0.453,5.821c-0.068,2.237-0.229,4.473-0.356,6.843
				c-0.283,0.799-1.014,1.08-1.967,1.046c-1.434-0.05-2.424-0.013-4.424-0.013c0-1.286,0-2.477,0-3.816
				c0-0.227-0.525-0.483-0.742-0.669c-0.162-0.056-0.402-0.079-0.523-0.079c-0.325,0.009-0.511,0.248-0.775,0.556
				c-0.359,1.307-0.02,3.638-0.123,3.884c-5.213,0.293-6.533,0.076-6.533,0.076c-0.164-2.278-0.349-4.908-0.493-7.259
				c-0.143-2.311-0.24-4.464-0.361-6.851c0.19-0.047,0.412,0.01,0.632,0.01l0,0c5.218,0,10.435-0.28,15.651-0.262
				c0.007,0,0.015-0.149,0.021-0.149c0.108,0.007,0.221-0.037,0.4-0.006C491.171,229.009,491.242,229.277,491.2,229.576z
				 M533,293.548c0,7.426-0.503,15.946-0.513,23.372l-10.149,0.157c0-23.252,0.143-46.971,0.145-70.367
				c0-0.281,0.073-0.551,0.092-0.831c0.002-0.033,0.068-0.062,0.094-0.09c0.025-0.03,0.066-0.057,0.095-0.085
				c2.104-0.171,8.667-0.063,9.573,0.186c0.014,0.392,0.088,0.822,0.09,1.25l0.574,25.81C533,279.815,533,286.682,533,293.548z
				 M535.844,231.424c-0.083,0.954-0.193,1.905-0.239,2.861c-0.117,2.395-0.191,4.792-0.312,7.187
				c-0.023,0.46-0.177,0.912-0.271,1.377c-0.42,0.164-0.747,0.396-1.08,0.404c-1.673,0.038-3.348,0.018-5.151,0.018
				c0-0.975-0.026-1.846,0.009-2.714c0.033-0.79-0.21-1.408-0.888-1.83c-1.23,0.105-1.495,0.362-1.516,1.508
				c-0.013,0.762,0.008,1.524-0.009,2.285c-0.005,0.268-0.072,0.533-0.121,0.869c-1.531,0-3.002,0.013-4.471-0.007
				c-0.57-0.007-1.088-0.21-1.584-0.691c-0.453-4.608-0.795-9.296-0.828-14.138c5.548-0.123,11.021,0.066,16.721-0.017
				C536.006,229.616,535.924,230.52,535.844,231.424z M476.586,225.974c-26.771,0.005-53.545,0.096-80.316,0.096
				c-5.619,0-10.795,0.048-16.413,0.038c-0.423-0.002-0.856,0.207-0.856-0.247c0-4.426,0-8.908,0-13.583
				c0-0.017,0.625-0.042,1.097-0.042c11.037-0.002,21.854-0.001,32.892-0.001c10.998,0,21.886-0.044,32.883,0.012
				c11.03,0.057,22.003-0.037,33.035,0.121c14.607,0.208,29.192,0.051,43.803,0.051c19.346,0,38.492-0.001,57.839,0.006
				c0.42,0,1.167-0.148,1.167,0.228c0,2.852,0.049,8.564,0.078,13.054c-2.918,0.015-10.294,0.054-10.681,0.054
				C539.604,225.759,508.096,225.968,476.586,225.974z M578.025,317.149c-3.196,0.101-6.248,0.193-9.223,0.288
				c-0.158-0.144-0.172-0.169-0.192-0.202c-0.002-0.004,0.21-0.009,0.208-0.013c-0.017-0.026,0.182-0.044,0.182-0.077
				c0-0.148,0-0.3,0-0.449c0-23.292-0.229-46.478-0.24-69.77c0-0.28-0.156-0.521-0.14-0.803c0.004-0.07,0.023-0.124,0.087-0.124
				c3.083,0,6.196,0,9.28,0c0.021,0,0.059,0.05,0.074,0.032c0.012,23.435-0.062,46.881-0.062,70.315c0,0.01,0,0.018,0,0.025
				C578,316.569,578.062,316.752,578.025,317.149z M581.547,235.755c-0.121,2.112-0.284,4.222-0.458,6.329
				c-0.024,0.301-0.208,0.589-0.3,0.833c-0.95,0.41-4.519,0.517-6.189,0.191c0-0.972,0.018-1.967-0.006-2.962
				c-0.025-1.116-0.407-1.427-1.665-1.346c-0.226,0.297-0.485,0.642-0.67,0.887c-0.126,1.326,0.098,2.529-0.14,3.655
				c-1.185,0-2.305-0.092-3.4,0.032c-0.795,0.09-1.501,0.058-2.199-0.333c-0.187-0.305-0.373-0.61-0.525-0.859
				c-0.061-0.932-0.116-1.84-0.176-2.74l-0.164-10.9c3.007-0.127,12.925-0.144,16.15-0.318l0.002,0.391
				c0.002,0.601,0.003,1.145,0.003,1.611h0.001C581.729,232.087,581.652,233.927,581.547,235.755z M582.813,210
				c-10.884,0-32.739,0-32.739,0l-112.109-0.074c-0.826,0-1.606,0.125-2.506,0.232c-0.149-0.074-0.347-0.274-0.59-0.313
				c-0.352-0.058-0.709,0.063-1.069,0.063c-18.222,0.001-36.431,0.092-54.652,0.092c-0.513,0-1.024,0-1.78,0
				c-2.755-3-5.688-5-8.715-8c1.991,0,3.392,0,5.537,0h0.092c-0.056,0-0.28-0.038-0.28,0.143v1.118c0,0.876,0.898,1.74,1.773,1.74
				h0.046c0.876,0,2.181-0.864,2.181-1.74v-1.118c0-0.18-0.631-0.143-0.687-0.143h0.092h0.034h7.565
				c-0.056,0-0.005-0.038-0.005,0.143v1.118c0,0.876,0.623,1.74,1.499,1.74h0.045c0.876,0,1.456-0.864,1.456-1.74v-1.118
				c0-0.18,0.093-0.143,0.038-0.143h7.155c-0.056,0-0.193-0.038-0.193,0.143v1.118c0,0.876,0.812,1.74,1.688,1.74h0.045
				c0.876,0,1.268-0.864,1.268-1.74v-1.118c0-0.18,0.282-0.143,0.227-0.143h7.691c-0.056,0,0.082-0.038,0.082,0.143v1.118
				c0,0.876,0.536,1.74,1.412,1.74h0.045c0.876,0,2.543-0.864,2.543-1.74v-1.118c0-0.18-0.994-0.143-1.049-0.143h7.691
				c-0.055,0,0.357-0.038,0.357,0.143v1.118c0,0.876,0.261,1.74,1.137,1.74h0.045c0.877,0,1.818-0.864,1.818-1.74v-1.118
				c0-0.18-0.269-0.143-0.324-0.143h7.156c-0.057,0,0.168-0.038,0.168,0.143v1.118c0,0.876,0.449,1.74,1.325,1.74h0.045
				c0.876,0,1.63-0.864,1.63-1.74v-1.118c0-0.18-0.08-0.143-0.136-0.143h7.691c-0.056,0,0.444-0.038,0.444,0.143v1.118
				c0,0.876,0.174,1.74,1.05,1.74h0.045c0.877,0,1.905-0.864,1.905-1.74v-1.118c0-0.18-0.355-0.143-0.411-0.143h7.155
				c-0.055,0,0.256-0.038,0.256,0.143v1.118c0,0.876,0.362,1.74,1.238,1.74h0.045c0.877,0,1.717-0.864,1.717-1.74v-1.118
				c0-0.18-0.167-0.143-0.223-0.143h7.691c-0.055,0,0.531-0.038,0.531,0.143v1.118c0,0.876,0.087,1.74,0.964,1.74h0.044
				c0.876,0,1.992-0.864,1.992-1.74v-1.118c0-0.18-0.442-0.143-0.498-0.143h7.155c-0.055,0,0.343-0.038,0.343,0.143v1.118
				c0,0.876,0.275,1.74,1.151,1.74h0.046c0.876,0,1.803-0.864,1.803-1.74v-1.118c0-0.18-0.254-0.143-0.31-0.143h7.692
				c-0.056,0-0.383-0.038-0.383,0.143v1.118c0,0.876,1,1.74,1.877,1.74h0.045c0.875,0,2.078-0.864,2.078-1.74v-1.118
				c0-0.18-0.529-0.143-0.584-0.143h7.691c-0.057,0,0.893-0.038,0.893,0.143v1.118c0,0.876-0.275,1.74,0.602,1.74h0.045
				c0.875,0,1.354-0.864,1.354-1.74v-1.118c0-0.18,0.196-0.143,0.141-0.143h7.155c-0.056,0,0.704-0.038,0.704,0.143v1.118
				c0,0.876-0.086,1.74,0.789,1.74h0.046c0.876,0,2.165-0.864,2.165-1.74v-1.118c0-0.18-0.616-0.143-0.672-0.143h7.692
				c-0.056,0-0.021-0.038-0.021,0.143v1.118c0,0.876,0.638,1.74,1.515,1.74h0.045c0.876,0,2.44-0.864,2.44-1.74v-1.118
				c0-0.18-0.892-0.143-0.946-0.143h6.619c-0.056,0,0.327-0.038,0.327,0.143v1.118c0,0.876,0.29,1.74,1.166,1.74h0.046
				c0.876,0,1.788-0.864,1.788-1.74v-1.118c0-0.18-0.239-0.143-0.294-0.143h7.691c-0.056,0,0.603-0.038,0.603,0.143v1.118
				c0,0.876,0.016,1.74,0.892,1.74h0.045c0.876,0,2.063-0.864,2.063-1.74v-1.118c0-0.18-0.514-0.143-0.569-0.143h7.155
				c-0.056,0,0.414-0.038,0.414,0.143v1.118c0,0.876,0.204,1.74,1.08,1.74h0.045c0.876,0,1.875-0.864,1.875-1.74v-1.118
				c0-0.18-0.326-0.143-0.381-0.143h7.691c-0.056,0,0.689-0.038,0.689,0.143v1.118c0,0.876-0.072,1.74,0.805,1.74h0.045
				c0.877,0,2.15-0.864,2.15-1.74v-1.118c0-0.18-0.601-0.143-0.656-0.143h7.691c-0.055,0-0.035-0.038-0.035,0.143v1.118
				c0,0.876,0.653,1.74,1.529,1.74h0.045c0.876,0,2.426-0.864,2.426-1.74v-1.118c0-0.18-0.876-0.143-0.932-0.143h7.155
				c-0.056,0-0.224-0.038-0.224,0.143v1.118c0,0.876,0.842,1.74,1.718,1.74h0.045c0.876,0,2.237-0.864,2.237-1.74v-1.118
				c0-0.18-0.688-0.143-0.743-0.143h7.691c-0.056,0,0.052-0.038,0.052,0.143v1.118c0,0.876,0.566,1.74,1.442,1.74h0.045
				c0.877,0,1.513-0.864,1.513-1.74v-1.118c0-0.18,0.037-0.143-0.019-0.143h4.533C588.607,205,585.703,207,582.813,210z"/>
			<g>
				<g>
					<path fill="#21D0A5" d="M395,320.59c0,0.779-0.631,1.41-1.41,1.41h-13.18c-0.779,0-1.41-0.631-1.41-1.41v-0.18
						c0-0.779,0.631-1.41,1.41-1.41h13.18c0.779,0,1.41,0.631,1.41,1.41V320.59z"/>
					<path fill="#21D0A5" d="M398,325c0,0.553-0.447,1-1,1h-20c-0.553,0-1-0.447-1-1l0,0c0-0.553,0.447-1,1-1h20
						C397.553,324,398,324.447,398,325L398,325z"/>
					<rect x="373" y="328" fill="#21D0A5" width="27" height="3"/>
				</g>
				<g>
					<path fill="#21D0A5" d="M442,320.59c0,0.779-0.631,1.41-1.41,1.41h-13.18c-0.779,0-1.41-0.631-1.41-1.41v-0.18
						c0-0.779,0.631-1.41,1.41-1.41h13.18c0.779,0,1.41,0.631,1.41,1.41V320.59z"/>
					<path fill="#21D0A5" d="M446,325c0,0.553-0.447,1-1,1h-20c-0.553,0-1-0.447-1-1l0,0c0-0.553,0.447-1,1-1h20
						C445.553,324,446,324.447,446,325L446,325z"/>
					<rect x="421" y="328" fill="#21D0A5" width="27" height="3"/>
				</g>
				<g>
					<path fill="#21D0A5" d="M490,320.59c0,0.779-0.631,1.41-1.41,1.41h-13.18c-0.779,0-1.41-0.631-1.41-1.41v-0.18
						c0-0.779,0.631-1.41,1.41-1.41h13.18c0.779,0,1.41,0.631,1.41,1.41V320.59z"/>
					<path fill="#21D0A5" d="M494,325c0,0.553-0.447,1-1,1h-20c-0.553,0-1-0.447-1-1l0,0c0-0.553,0.447-1,1-1h20
						C493.553,324,494,324.447,494,325L494,325z"/>
					<rect x="469" y="328" fill="#21D0A5" width="27" height="3"/>
				</g>
				<g>
					<path fill="#21D0A5" d="M536,320.59c0,0.779-0.631,1.41-1.41,1.41h-13.18c-0.779,0-1.41-0.631-1.41-1.41v-0.18
						c0-0.779,0.631-1.41,1.41-1.41h13.18c0.779,0,1.41,0.631,1.41,1.41V320.59z"/>
					<path fill="#21D0A5" d="M539,325c0,0.553-0.447,1-1,1h-20c-0.553,0-1-0.447-1-1l0,0c0-0.553,0.447-1,1-1h20
						C538.553,324,539,324.447,539,325L539,325z"/>
					<rect x="514" y="328" fill="#21D0A5" width="27" height="3"/>
				</g>
				<g>
					<path fill="#21D0A5" d="M581,320.59c0,0.779-0.631,1.41-1.41,1.41h-13.18c-0.779,0-1.41-0.631-1.41-1.41v-0.18
						c0-0.779,0.631-1.41,1.41-1.41h13.18c0.779,0,1.41,0.631,1.41,1.41V320.59z"/>
					<path fill="#21D0A5" d="M585,325c0,0.553-0.447,1-1,1h-20c-0.553,0-1-0.447-1-1l0,0c0-0.553,0.447-1,1-1h20
						C584.553,324,585,324.447,585,325L585,325z"/>
					<rect x="560" y="328" fill="#21D0A5" width="27" height="3"/>
				</g>
			</g>
		</g>
	</g>
	<g>
		<g>
			<g>
				<g>
					<g>
						<path fill="#1E4276" d="M251.184,394.5c0,1.971-0.471,3.765-1.412,5.383c-0.941,1.619-2.154,2.991-3.643,4.117
							c-1.486,1.126-3.152,1.979-5,2.559c-1.848,0.581-3.686,0.818-5.516,0.713v-0.475c1.408-0.141,2.719-0.439,3.932-0.897
							c1.215-0.456,2.252-1.099,3.115-1.927c0.861-0.826,1.539-1.82,2.031-2.981s0.738-2.515,0.738-4.063
							c0-1.443-0.229-2.832-0.686-4.17c-0.457-1.337-1.117-2.516-1.979-3.536c-0.863-1.021-1.91-1.855-3.141-2.507
							c-1.232-0.65-2.604-1.012-4.117-1.082c-0.809-0.07-1.529-0.07-2.164,0l-0.369,0.686v11.98l-0.053,5.596l0.053,7.758
							c0,1.127,0,2.27,0,3.431s0.035,2.041,0.105,2.639c0.07,0.739,0.211,1.364,0.422,1.874s0.555,0.932,1.029,1.266
							c0.475,0.336,1.117,0.607,1.928,0.818c0.809,0.211,1.846,0.369,3.113,0.475v0.37c-0.564-0.034-1.24-0.07-2.031-0.105
							c-0.793-0.034-1.629-0.062-2.508-0.079c-0.881-0.018-1.742-0.035-2.586-0.053s-1.602-0.026-2.27-0.026
							c-0.633,0-1.355,0.009-2.164,0.026c-0.811,0.018-1.627,0.045-2.453,0.079c-0.828,0.035-1.637,0.062-2.43,0.079
							c-0.791,0.018-1.469,0.045-2.031,0.079v-0.317c0.984-0.14,1.855-0.298,2.613-0.475c0.756-0.176,1.381-0.43,1.873-0.766
							c0.492-0.334,0.879-0.781,1.162-1.346c0.279-0.563,0.439-1.318,0.475-2.27c0.033-0.738,0.053-1.873,0.053-3.403
							s0-3.167,0-4.909c0-1.741,0-3.403,0-4.986c0-1.584,0-2.798,0-3.643c0-0.844,0-1.741,0-2.691c0-0.949,0-1.917,0-2.902
							c0-0.984-0.01-1.927-0.027-2.824c-0.018-0.896-0.045-1.715-0.078-2.453c-0.035-0.951-0.178-1.707-0.422-2.27
							c-0.248-0.563-0.617-1.021-1.109-1.373c-0.492-0.352-1.107-0.615-1.848-0.791c-0.738-0.176-1.602-0.334-2.586-0.475v-0.423
							c0.422,0.035,0.951,0.062,1.584,0.079s1.328,0.035,2.084,0.053s1.557,0.035,2.404,0.053c0.844,0.018,1.672,0.026,2.484,0.026
							l7.563-0.211c1.482,0,3.033,0.142,4.654,0.423c1.623,0.281,3.113,0.8,4.471,1.557s2.486,1.803,3.385,3.14
							C250.732,390.665,251.184,392.389,251.184,394.5z"/>
						<path fill="#1E4276" d="M315.465,429.491c-0.703,0.528-1.566,0.984-2.586,1.372c-1.021,0.387-2.084,0.703-3.193,0.95
							c-1.107,0.245-2.207,0.431-3.299,0.554c-1.09,0.123-2.057,0.186-2.902,0.186c-2.604,0-5.006-0.379-7.203-1.135
							c-2.199-0.758-4.232-1.787-6.096-3.088c-1.865-1.303-3.574-2.824-5.125-4.565c-1.553-1.741-3.008-3.597-4.367-5.567
							s-2.621-4.012-3.785-6.123s-2.275-4.169-3.334-6.175c-0.494,0.142-1.201,0.256-2.117,0.343
							c-0.918,0.088-1.854,0.098-2.805,0.027v3.008c0,2.322,0,4.161,0,5.516s0.033,2.331,0.105,2.929
							c0.07,0.739,0.211,1.364,0.422,1.874s0.555,0.932,1.029,1.266c0.475,0.336,1.115,0.607,1.926,0.818
							c0.809,0.211,1.848,0.369,3.113,0.475v0.37c-0.563-0.034-1.24-0.07-2.031-0.105c-0.791-0.034-1.627-0.062-2.508-0.079
							c-0.879-0.018-1.738-0.035-2.576-0.053c-0.84-0.018-1.59-0.026-2.252-0.026c-0.629,0-1.344,0.009-2.146,0.026
							s-1.619,0.045-2.445,0.079c-0.826,0.035-1.637,0.062-2.428,0.079s-1.469,0.045-2.031,0.079v-0.317
							c0.984-0.14,1.855-0.298,2.611-0.475c0.756-0.176,1.381-0.43,1.875-0.766c0.492-0.334,0.879-0.781,1.16-1.346
							c0.281-0.563,0.439-1.318,0.475-2.27c0.035-0.703,0.053-1.803,0.053-3.298s0-3.087,0-4.776c0-0.773,0-1.601,0-2.48
							c0-0.879-0.008-1.724-0.025-2.533c-0.02-0.809-0.027-1.549-0.027-2.217s0-1.195,0-1.584c0-0.844,0-1.75,0-2.717
							c0-0.969,0-1.944,0-2.93c0-0.984,0-1.936,0-2.85c0-0.915-0.018-1.742-0.053-2.48c-0.035-0.951-0.176-1.707-0.422-2.27
							s-0.615-1.012-1.107-1.346c-0.494-0.334-1.109-0.59-1.848-0.766c-0.74-0.176-1.602-0.334-2.586-0.475v-0.37
							c2.25,0,4.09,0.036,5.514,0.105c1.426,0.071,2.578,0.105,3.457,0.105l6.123-0.158c1.549,0,3.184,0.142,4.908,0.423
							s3.316,0.773,4.777,1.477c1.459,0.705,2.672,1.682,3.641,2.93c0.967,1.25,1.451,2.842,1.451,4.776
							c0,1.091-0.211,2.138-0.635,3.14c-0.424,1.004-0.996,1.928-1.721,2.771c-0.723,0.844-1.561,1.609-2.514,2.296
							s-1.959,1.259-3.018,1.716c0.988,1.794,2.064,3.693,3.229,5.699s2.434,3.994,3.811,5.964c1.375,1.972,2.861,3.853,4.463,5.647
							s3.326,3.377,5.172,4.75c1.848,1.372,3.818,2.463,5.912,3.271c2.092,0.81,4.336,1.215,6.729,1.215
							c1.195,0,2.367-0.124,3.51-0.369c1.143-0.247,2.277-0.564,3.404-0.951L315.465,429.491z M280.949,396.188
							c0-1.829-0.346-3.404-1.035-4.724s-1.59-2.401-2.703-3.246c-1.113-0.844-2.385-1.469-3.814-1.873
							c-1.432-0.404-2.889-0.607-4.373-0.607l-0.371,0.527v8.076l-0.053,8.391v2.164c1.518-0.034,3.012-0.281,4.479-0.738
							c1.465-0.457,2.783-1.064,3.949-1.821s2.111-1.663,2.834-2.718C280.586,398.563,280.949,397.42,280.949,396.188z"/>
						<path fill="#1E4276" d="M337.684,402.943c0,2.428-0.5,4.584-1.504,6.466c-1.002,1.883-2.33,3.483-3.984,4.803
							s-3.527,2.366-5.621,3.14c-2.094,0.775-4.213,1.285-6.359,1.531h-0.053c0.246,1.021,0.818,1.777,1.715,2.27
							c0.898,0.493,2.42,0.827,4.566,1.002v0.37c-0.564-0.034-1.24-0.062-2.033-0.079c-0.791-0.018-1.627-0.044-2.506-0.079
							c-0.881-0.034-1.742-0.062-2.586-0.079c-0.846-0.018-1.602-0.026-2.27-0.026c-0.635,0-1.355,0.009-2.164,0.026
							c-0.811,0.018-1.629,0.045-2.455,0.079c-0.826,0.035-1.635,0.071-2.428,0.105c-0.791,0.036-1.469,0.053-2.031,0.053v-0.317
							c1.689-0.245,3.016-0.562,3.984-0.949c0.967-0.387,1.609-1.179,1.926-2.375c-2.146-0.246-4.24-0.756-6.279-1.531
							c-2.041-0.773-3.863-1.803-5.463-3.087c-1.602-1.284-2.885-2.831-3.854-4.645c-0.967-1.812-1.451-3.913-1.451-6.307
							c0-2.322,0.492-4.381,1.479-6.175c0.984-1.795,2.27-3.343,3.852-4.645c1.584-1.301,3.387-2.349,5.41-3.141
							c2.023-0.791,4.09-1.328,6.201-1.609c-0.352-1.126-1.012-1.882-1.979-2.27c-0.969-0.387-2.279-0.703-3.932-0.95v-0.316
							c0.563,0,1.248,0.009,2.059,0.026c0.809,0.018,1.645,0.053,2.506,0.105s1.697,0.098,2.508,0.132
							c0.809,0.036,1.512,0.053,2.111,0.053c0.703,0,1.459-0.017,2.27-0.053c0.809-0.034,1.617-0.069,2.428-0.105
							c0.809-0.034,1.574-0.069,2.295-0.105c0.721-0.034,1.346-0.053,1.873-0.053v0.369c-1.76,0.177-3.07,0.476-3.932,0.897
							s-1.451,1.127-1.768,2.111c2.041,0.176,4.107,0.625,6.201,1.346c2.094,0.722,3.967,1.715,5.621,2.982
							c1.654,1.266,3.008,2.814,4.064,4.645C337.156,398.388,337.684,400.516,337.684,402.943z M314.145,395.027
							c0-0.668,0-1.406,0-2.217c0-0.809-0.018-2.023-0.053-3.642c-1.654,0.317-3.113,0.906-4.379,1.769
							c-1.268,0.862-2.322,1.918-3.168,3.166c-0.844,1.25-1.486,2.621-1.926,4.117s-0.66,3.034-0.66,4.617
							c0,1.865,0.264,3.59,0.793,5.173c0.527,1.583,1.256,2.991,2.189,4.222c0.932,1.232,2.006,2.27,3.219,3.114
							c1.215,0.845,2.508,1.443,3.879,1.794v-2.111c0.035-0.949,0.053-1.943,0.053-2.981c0-1.037,0-2.119,0-3.245
							c0.035-1.689,0.045-3.299,0.027-4.83c-0.018-1.53-0.027-2.718-0.027-3.563L314.145,395.027z M330.453,403.261
							c0-1.688-0.264-3.29-0.791-4.803s-1.25-2.885-2.164-4.116c-0.916-1.232-2.023-2.278-3.324-3.141
							c-1.303-0.861-2.711-1.469-4.223-1.821c-0.035,0.599-0.063,1.319-0.08,2.164s-0.025,1.813-0.025,2.903l-0.053,8.021
							c0,0.177,0,0.379,0,0.607s0,0.651,0,1.267c0,0.616,0.008,1.487,0.025,2.612c0.018,1.127,0.027,2.691,0.027,4.697
							c0,1.091,0,2.189,0,3.299c0,1.107,0.035,1.979,0.105,2.612c1.584-0.246,3.016-0.792,4.301-1.636
							c1.285-0.845,2.383-1.9,3.299-3.167c0.914-1.267,1.627-2.718,2.137-4.354C330.197,406.771,330.453,405.055,330.453,403.261z"
							/>
						<path fill="#1E4276" d="M385.078,402.996c0,3.238-0.6,6.097-1.795,8.577c-1.197,2.48-2.816,4.565-4.855,6.254
							c-2.041,1.688-4.426,2.965-7.152,3.827c-2.727,0.861-5.604,1.293-8.629,1.293l-10.555-0.581c-0.494,0-1.135,0-1.926,0
							c-0.793,0-1.629,0.009-2.508,0.026s-1.732,0.035-2.561,0.053c-0.826,0.018-1.521,0.045-2.084,0.079v-0.423
							c0.984-0.14,1.865-0.298,2.639-0.475c0.773-0.176,1.426-0.439,1.953-0.791s0.932-0.81,1.215-1.373
							c0.279-0.563,0.455-1.301,0.527-2.217c0.033-0.492,0.053-1.169,0.053-2.031c0-0.861,0.008-1.82,0.025-2.877
							c0.018-1.055,0.027-2.172,0.027-3.352c0-1.178-0.01-2.303-0.027-3.377c-0.018-1.073-0.025-2.066-0.025-2.982
							c0-0.914,0-1.653,0-2.217c0-0.844,0-1.75,0-2.718s0-1.952,0-2.956c0-1.002-0.01-1.961-0.027-2.875
							c-0.018-0.915-0.045-1.742-0.078-2.481c-0.035-0.845-0.195-1.548-0.475-2.11c-0.283-0.563-0.67-1.021-1.162-1.373
							c-0.492-0.352-1.117-0.624-1.873-0.818c-0.758-0.192-1.629-0.359-2.613-0.501v-0.369l8.973,0.211
							c1.195,0.036,2.541-0.009,4.037-0.132s3.035-0.185,4.619-0.185c3.096,0,6.104,0.325,9.023,0.976
							c2.92,0.652,5.506,1.716,7.76,3.193c2.25,1.479,4.063,3.422,5.436,5.832C384.391,396.514,385.078,399.479,385.078,402.996z
							 M378.322,404.158c0-2.779-0.553-5.305-1.66-7.574c-1.105-2.27-2.588-4.203-4.449-5.805c-1.859-1.602-3.992-2.842-6.396-3.721
							c-2.404-0.88-4.924-1.32-7.557-1.32c-0.844,0-1.572,0.115-2.186,0.344c-0.615,0.229-0.922,0.836-0.922,1.82
							c0,1.549-0.018,3.387-0.053,5.516s-0.053,4.389-0.053,6.781v6.123c0,2.252,0,4.318,0,6.201s0.018,3.264,0.053,4.143
							c0.211,0.985,0.535,1.777,0.975,2.375c0.438,0.599,0.992,1.064,1.658,1.398c0.666,0.335,1.414,0.563,2.238,0.687
							c0.824,0.124,1.711,0.185,2.658,0.185c2.564,0,4.828-0.413,6.793-1.24c1.967-0.826,3.607-1.987,4.924-3.483
							c1.316-1.495,2.309-3.298,2.977-5.409C377.988,409.066,378.322,406.727,378.322,404.158z"/>
						<path fill="#1E4276" d="M407.957,422.419c-0.793-0.034-1.629-0.062-2.508-0.079c-0.881-0.018-1.744-0.035-2.596-0.053
							c-0.85-0.018-1.611-0.026-2.287-0.026c-0.639,0-1.365,0.009-2.18,0.026c-0.816,0.018-1.637,0.045-2.463,0.079
							c-0.828,0.035-1.637,0.062-2.43,0.079c-0.791,0.018-1.469,0.045-2.031,0.079v-0.317c0.984-0.14,1.855-0.298,2.613-0.475
							c0.756-0.176,1.381-0.43,1.873-0.766c0.492-0.334,0.879-0.781,1.162-1.346c0.279-0.563,0.439-1.318,0.475-2.27
							c0.033-0.738,0.053-1.873,0.053-3.403s0-3.167,0-4.909c0-1.741,0-3.403,0-4.986c0-1.584,0-2.798,0-3.643
							c0-0.844,0.008-1.75,0.025-2.718s0.027-1.952,0.027-2.956c0-1.002,0-1.961,0-2.875c0-0.915-0.02-1.742-0.053-2.481
							c-0.035-0.95-0.203-1.706-0.502-2.269s-0.713-1.012-1.24-1.347c-0.527-0.334-1.17-0.589-1.926-0.765
							c-0.758-0.176-1.629-0.334-2.613-0.476v-0.316c0.563,0,1.248,0.009,2.059,0.026c0.809,0.018,1.645,0.053,2.508,0.105
							c0.861,0.053,1.699,0.098,2.516,0.132c0.814,0.036,1.523,0.053,2.127,0.053c0.711,0,1.475-0.009,2.289-0.026
							s1.625-0.043,2.436-0.079c0.809-0.034,1.574-0.069,2.295-0.105c0.721-0.034,1.346-0.07,1.875-0.105v0.369
							c-1.092,0.106-2.006,0.256-2.744,0.448c-0.74,0.194-1.338,0.467-1.795,0.818c-0.459,0.353-0.801,0.811-1.029,1.373
							c-0.23,0.563-0.361,1.266-0.396,2.11c-0.035,0.599-0.061,1.319-0.078,2.164c-0.02,0.845-0.027,1.83-0.027,2.956v17.205
							c0,1.127,0,2.27,0,3.431s0.035,2.041,0.105,2.639c0.07,0.739,0.211,1.364,0.422,1.874s0.555,0.932,1.029,1.266
							c0.475,0.336,1.117,0.607,1.928,0.818c0.809,0.211,1.846,0.369,3.113,0.475v0.37
							C409.426,422.49,408.748,422.454,407.957,422.419z"/>
						<path fill="#1E4276" d="M449.518,421.732c-0.844,0.388-1.82,0.687-2.93,0.897c-1.107,0.212-2.182,0.37-3.219,0.476
							c-1.039,0.105-1.945,0.176-2.719,0.211c-0.773,0.034-1.266,0.053-1.477,0.053c-3.133,0-6.115-0.422-8.945-1.268
							c-2.834-0.844-5.34-2.11-7.521-3.799c-2.182-1.689-3.914-3.801-5.199-6.334s-1.926-5.488-1.926-8.867
							c0-3.131,0.686-5.91,2.059-8.338c1.371-2.428,3.141-4.477,5.305-6.148c2.162-1.671,4.59-2.947,7.283-3.826
							c2.691-0.88,5.355-1.32,7.994-1.32c0.457,0,1.1,0.01,1.928,0.025c0.826,0.018,1.758,0.094,2.797,0.231
							c1.037,0.137,2.129,0.333,3.271,0.589s2.277,0.607,3.404,1.055l1.637,8.55l-0.633,0.105c-0.318-1.267-0.854-2.437-1.611-3.51
							c-0.756-1.073-1.68-2.005-2.77-2.797c-1.092-0.792-2.35-1.407-3.773-1.847c-1.426-0.44-2.965-0.66-4.619-0.66
							c-2.287,0-4.354,0.441-6.201,1.322s-3.439,2.078-4.775,3.594c-1.338,1.516-2.367,3.285-3.088,5.311
							c-0.723,2.027-1.082,4.185-1.082,6.475c0,3.137,0.51,5.929,1.531,8.378c1.02,2.449,2.348,4.528,3.984,6.237
							c1.635,1.708,3.447,3.012,5.436,3.91c1.988,0.899,3.967,1.348,5.938,1.348c1.301,0,2.568-0.185,3.801-0.554
							c1.23-0.37,2.375-0.924,3.43-1.663c1.055-0.738,1.996-1.662,2.824-2.771c0.826-1.108,1.504-2.383,2.031-3.826l0.369,0.423
							L449.518,421.732z"/>
						<path fill="#1E4276" d="M493.535,404.844c0,0.141,0.008,0.299,0.025,0.475c0.018,0.178,0.027,0.336,0.027,0.476
							c0,1.407-0.072,2.798-0.211,4.169c-0.141,1.373-0.414,2.684-0.818,3.933s-0.941,2.41-1.609,3.483
							c-0.67,1.073-1.531,2.031-2.586,2.876c-1.549,1.221-3.186,2.054-4.908,2.499c-1.725,0.444-3.537,0.668-5.438,0.668
							c-1.055,0-2.129-0.053-3.219-0.154c-1.092-0.104-2.156-0.292-3.193-0.566c-1.037-0.273-2.031-0.645-2.982-1.111
							c-0.949-0.467-1.813-1.053-2.586-1.758c-2.393-2.074-3.713-5.137-3.957-9.183c-0.072-0.668-0.115-1.433-0.133-2.296
							c-0.018-0.861-0.035-1.759-0.053-2.691c-0.018-0.932-0.025-1.848-0.025-2.744c0-0.897,0-1.716,0-2.455c0-0.844,0-1.75,0-2.717
							c0-0.969,0-1.944,0-2.93c0-0.984,0-1.936,0-2.85c0-0.915-0.02-1.742-0.055-2.48c-0.035-0.951-0.193-1.707-0.475-2.27
							s-0.678-1.012-1.188-1.346s-1.143-0.59-1.898-0.766c-0.758-0.176-1.629-0.334-2.613-0.475v-0.317
							c0.563,0,1.248,0.009,2.059,0.026c0.809,0.018,1.645,0.053,2.506,0.105c0.863,0.053,1.697,0.098,2.508,0.132
							c0.809,0.036,1.512,0.054,2.111,0.054c0.703,0,1.459-0.009,2.27-0.027c0.809-0.018,1.617-0.043,2.428-0.079
							c0.809-0.034,1.574-0.069,2.295-0.105c0.721-0.034,1.346-0.069,1.873-0.105v0.37c-1.09,0.105-2.004,0.255-2.744,0.447
							c-0.738,0.194-1.338,0.467-1.793,0.818c-0.459,0.353-0.801,0.811-1.029,1.373c-0.23,0.563-0.361,1.266-0.396,2.111
							c-0.035,0.598-0.063,1.318-0.08,2.163s-0.025,1.83-0.025,2.956l0.105,11.399c0,1.478,0.096,2.912,0.291,4.302
							c0.191,1.391,0.5,2.674,0.922,3.853c0.424,1.179,0.969,2.243,1.637,3.192c0.668,0.951,1.496,1.725,2.48,2.322
							c1.057,0.67,2.154,1.135,3.299,1.398c1.143,0.265,2.313,0.396,3.51,0.396c1.406,0,2.762-0.271,4.064-0.818
							c1.301-0.545,2.393-1.274,3.271-2.189c0.633-0.668,1.17-1.469,1.609-2.402c0.439-0.932,0.793-1.952,1.057-3.061
							s0.447-2.27,0.553-3.483c0.107-1.214,0.16-2.437,0.16-3.668l-0.107-9.289c-0.035-1.267-0.061-2.533-0.078-3.8
							s-0.045-2.357-0.08-3.271c-0.035-0.951-0.193-1.707-0.475-2.27s-0.678-1.012-1.188-1.346s-1.143-0.59-1.9-0.766
							c-0.756-0.176-1.627-0.334-2.611-0.476v-0.316c1.125-0.034,2.4,0.009,3.826,0.132s2.734,0.185,3.932,0.185
							c1.406,0,2.797-0.034,4.17-0.105c1.371-0.069,2.568-0.14,3.588-0.211v0.37c-1.09,0.105-2.004,0.255-2.744,0.447
							c-0.738,0.194-1.338,0.467-1.795,0.818c-0.457,0.353-0.801,0.811-1.027,1.373c-0.23,0.563-0.361,1.266-0.396,2.11
							c-0.035,0.599-0.063,1.319-0.08,2.164s-0.025,1.83-0.025,2.956v3.799c0,0.459-0.01,0.977-0.027,1.558
							s-0.025,1.161-0.025,1.741c0,0.581,0,1.117,0,1.61s0,0.88,0,1.161V404.844z"/>
						<path fill="#1E4276" d="M528.367,411.916c0,1.9-0.375,3.563-1.125,4.988c-0.75,1.424-1.744,2.604-2.982,3.535
							c-1.238,0.934-2.666,1.628-4.285,2.085s-3.289,0.687-5.014,0.687c-1.9,0-3.746-0.361-5.541-1.082s-3.432-1.697-4.908-2.93
							c0.141-1.301,0.246-2.516,0.316-3.642s0.141-2.462,0.211-4.011h0.369c0.281,3.308,1.32,5.788,3.115,7.441
							c1.793,1.654,4.115,2.48,6.965,2.48c1.057,0,2.023-0.193,2.904-0.58c0.879-0.387,1.635-0.897,2.27-1.531
							c0.633-0.633,1.115-1.363,1.451-2.189c0.334-0.826,0.5-1.697,0.5-2.613c0-0.844-0.105-1.592-0.316-2.242
							c-0.211-0.651-0.545-1.275-1.002-1.874s-1.057-1.214-1.795-1.847c-0.738-0.634-1.619-1.32-2.639-2.059
							c-1.232-0.879-2.49-1.75-3.773-2.613c-1.285-0.861-2.445-1.794-3.484-2.797c-1.037-1.003-1.881-2.137-2.533-3.404
							c-0.65-1.267-0.975-2.762-0.975-4.486c0-1.371,0.279-2.646,0.844-3.826c0.563-1.178,1.363-2.198,2.4-3.061
							c1.039-0.861,2.287-1.549,3.748-2.059c1.459-0.51,3.088-0.766,4.881-0.766c0.635,0,1.338,0.035,2.111,0.105
							c0.773,0.071,1.559,0.186,2.35,0.344s1.557,0.369,2.295,0.633c0.74,0.264,1.391,0.572,1.953,0.924
							c-0.035,1.232-0.01,2.48,0.08,3.747c0.086,1.267,0.166,2.517,0.236,3.747l-0.475,0.158c-0.246-1.617-0.678-2.963-1.293-4.037
							c-0.615-1.072-1.328-1.926-2.137-2.56c-0.811-0.634-1.664-1.082-2.561-1.346c-0.896-0.265-1.732-0.396-2.508-0.396
							c-0.914,0-1.768,0.176-2.559,0.527s-1.479,0.818-2.059,1.398s-1.039,1.275-1.373,2.085s-0.5,1.654-0.5,2.533
							c0,0.739,0.121,1.407,0.367,2.005c0.246,0.6,0.613,1.18,1.105,1.742c0.492,0.563,1.078,1.127,1.764,1.689
							c0.684,0.563,1.48,1.16,2.393,1.794c1.229,0.915,2.5,1.813,3.814,2.691c1.314,0.88,2.525,1.839,3.631,2.876
							c1.104,1.039,2.008,2.183,2.709,3.432S528.367,410.299,528.367,411.916z"/>
						<path fill="#1E4276" d="M591.014,405.082c-0.74,0.193-1.338,0.475-1.795,0.844s-0.801,0.827-1.029,1.372
							c-0.229,0.546-0.361,1.241-0.396,2.085c-0.035,0.493-0.053,1.232-0.053,2.217c0,0.985,0,1.9,0,2.744v6.809
							c-0.246,0.141-0.65,0.29-1.213,0.448c-0.564,0.159-1.18,0.317-1.848,0.476s-1.338,0.299-2.006,0.422s-1.232,0.219-1.689,0.29
							c-0.879,0.106-1.865,0.229-2.955,0.37c-1.09,0.14-2.305,0.211-3.641,0.211c-2.852,0-5.656-0.414-8.418-1.24
							c-2.764-0.826-5.227-2.076-7.389-3.748c-2.164-1.67-3.906-3.773-5.227-6.307c-1.318-2.533-1.979-5.523-1.979-8.973
							c0-3.096,0.65-5.857,1.953-8.285c1.301-2.428,3.016-4.486,5.145-6.176c2.129-1.688,4.549-2.973,7.258-3.852
							c2.709-0.88,5.453-1.32,8.232-1.32c0.457,0,1.127,0.01,2.006,0.025c0.879,0.018,1.865,0.094,2.957,0.231
							c1.09,0.137,2.232,0.333,3.43,0.589c1.195,0.256,2.357,0.607,3.482,1.055l1.637,8.55l-0.633,0.105
							c-0.316-1.267-0.854-2.437-1.609-3.51c-0.758-1.073-1.682-2.005-2.771-2.797c-1.092-0.792-2.348-1.407-3.773-1.847
							c-1.426-0.44-2.965-0.66-4.617-0.66c-2.289,0-4.373,0.449-6.256,1.348c-1.883,0.899-3.5,2.115-4.855,3.646
							c-1.354,1.533-2.41,3.322-3.166,5.365c-0.758,2.044-1.135,4.211-1.135,6.501c0,2.255,0.361,4.519,1.082,6.792
							s1.82,4.325,3.299,6.158c1.479,1.832,3.342,3.321,5.594,4.466c2.252,1.146,4.908,1.718,7.971,1.718
							c0.455,0,0.957-0.026,1.504-0.079c0.545-0.053,1.072-0.114,1.582-0.185s0.959-0.141,1.346-0.211s0.652-0.141,0.793-0.211
							c0-0.423,0.018-0.862,0.053-1.32c0-0.387,0.008-0.844,0.025-1.372s0.027-1.056,0.027-1.583v-2.059c0-0.703,0-1.504,0-2.401
							s-0.018-1.61-0.053-2.138c-0.035-0.949-0.193-1.715-0.475-2.295c-0.283-0.581-0.678-1.047-1.188-1.399
							c-0.512-0.351-1.145-0.624-1.9-0.817c-0.758-0.193-1.629-0.361-2.613-0.502v-0.422c0.563,0,1.248,0.009,2.059,0.025
							c0.809,0.02,1.645,0.053,2.508,0.106c0.861,0.053,1.697,0.097,2.506,0.132s1.514,0.053,2.111,0.053
							c0.703,0,1.459-0.008,2.27-0.026c0.809-0.018,1.617-0.044,2.428-0.079c0.809-0.035,1.574-0.07,2.295-0.105
							s1.348-0.07,1.875-0.105v0.422C592.666,404.738,591.752,404.889,591.014,405.082z"/>
						<path fill="#1E4276" d="M656.088,429.491c-0.705,0.528-1.566,0.984-2.586,1.372c-1.021,0.387-2.086,0.703-3.193,0.95
							c-1.109,0.245-2.209,0.431-3.299,0.554c-1.092,0.123-2.059,0.186-2.902,0.186c-2.605,0-5.006-0.379-7.205-1.135
							c-2.199-0.758-4.23-1.787-6.096-3.088c-1.865-1.303-3.572-2.824-5.125-4.565s-3.008-3.597-4.367-5.567
							c-1.357-1.971-2.619-4.012-3.783-6.123s-2.277-4.169-3.336-6.175c-0.494,0.142-1.199,0.256-2.117,0.343
							c-0.916,0.088-1.852,0.098-2.805,0.027v3.008c0,2.322,0,4.161,0,5.516s0.035,2.331,0.105,2.929
							c0.07,0.739,0.211,1.364,0.422,1.874s0.555,0.932,1.029,1.266c0.475,0.336,1.117,0.607,1.928,0.818
							c0.809,0.211,1.846,0.369,3.113,0.475v0.37c-0.564-0.034-1.24-0.07-2.031-0.105c-0.793-0.034-1.629-0.062-2.508-0.079
							c-0.881-0.018-1.74-0.035-2.578-0.053s-1.59-0.026-2.252-0.026c-0.627,0-1.342,0.009-2.146,0.026
							c-0.803,0.018-1.617,0.045-2.443,0.079c-0.828,0.035-1.637,0.062-2.43,0.079c-0.791,0.018-1.469,0.045-2.031,0.079v-0.317
							c0.984-0.14,1.855-0.298,2.613-0.475c0.756-0.176,1.381-0.43,1.873-0.766c0.492-0.334,0.879-0.781,1.162-1.346
							c0.279-0.563,0.439-1.318,0.475-2.27c0.033-0.703,0.053-1.803,0.053-3.298s0-3.087,0-4.776c0-0.773,0-1.601,0-2.48
							c0-0.879-0.01-1.724-0.027-2.533c-0.018-0.809-0.025-1.549-0.025-2.217s0-1.195,0-1.584c0-0.844,0-1.75,0-2.717
							c0-0.969,0-1.944,0-2.93c0-0.984,0-1.936,0-2.85c0-0.915-0.02-1.742-0.053-2.48c-0.035-0.951-0.178-1.707-0.422-2.27
							c-0.248-0.563-0.617-1.012-1.109-1.346s-1.107-0.59-1.848-0.766c-0.738-0.176-1.602-0.334-2.586-0.475v-0.37
							c2.252,0,4.09,0.036,5.516,0.105c1.426,0.071,2.576,0.105,3.457,0.105l6.123-0.158c1.547,0,3.184,0.142,4.908,0.423
							c1.723,0.281,3.314,0.773,4.775,1.477c1.459,0.705,2.674,1.682,3.643,2.93c0.967,1.25,1.451,2.842,1.451,4.776
							c0,1.091-0.213,2.138-0.635,3.14c-0.424,1.004-0.998,1.928-1.721,2.771c-0.725,0.844-1.563,1.609-2.516,2.296
							s-1.957,1.259-3.016,1.716c0.986,1.794,2.063,3.693,3.229,5.699c1.164,2.006,2.434,3.994,3.809,5.964
							c1.375,1.972,2.863,3.853,4.465,5.647c1.6,1.795,3.324,3.377,5.172,4.75c1.848,1.372,3.816,2.463,5.91,3.271
							c2.094,0.81,4.336,1.215,6.73,1.215c1.195,0,2.365-0.124,3.51-0.369c1.143-0.247,2.277-0.564,3.404-0.951L656.088,429.491z
							 M621.57,396.188c0-1.829-0.344-3.404-1.033-4.724s-1.59-2.401-2.703-3.246c-1.113-0.844-2.385-1.469-3.816-1.873
							s-2.889-0.607-4.373-0.607l-0.371,0.527v8.076l-0.053,8.391v2.164c1.52-0.034,3.012-0.281,4.479-0.738
							s2.783-1.064,3.949-1.821s2.111-1.663,2.836-2.718C621.207,398.563,621.57,397.42,621.57,396.188z"/>
						<path fill="#1E4276" d="M719.947,404.844c0,0.141,0.008,0.299,0.025,0.475c0.018,0.178,0.027,0.336,0.027,0.476
							c0,1.407-0.072,2.798-0.211,4.169c-0.141,1.373-0.414,2.684-0.818,3.933s-0.941,2.41-1.609,3.483
							c-0.67,1.073-1.531,2.031-2.586,2.876c-1.549,1.221-3.186,2.054-4.908,2.499c-1.725,0.444-3.537,0.668-5.438,0.668
							c-1.055,0-2.129-0.053-3.219-0.154c-1.092-0.104-2.156-0.292-3.193-0.566c-1.037-0.273-2.031-0.645-2.982-1.111
							c-0.949-0.467-1.813-1.053-2.586-1.758c-2.393-2.074-3.713-5.137-3.957-9.183c-0.072-0.668-0.115-1.433-0.133-2.296
							c-0.018-0.861-0.035-1.759-0.053-2.691c-0.018-0.932-0.025-1.848-0.025-2.744c0-0.897,0-1.716,0-2.455c0-0.844,0-1.75,0-2.717
							c0-0.969,0-1.944,0-2.93c0-0.984,0-1.936,0-2.85c0-0.915-0.02-1.742-0.055-2.48c-0.035-0.951-0.193-1.707-0.475-2.27
							s-0.678-1.012-1.188-1.346s-1.143-0.59-1.898-0.766c-0.758-0.176-1.629-0.334-2.613-0.475v-0.317
							c0.563,0,1.248,0.009,2.059,0.026c0.809,0.018,1.645,0.053,2.506,0.105c0.863,0.053,1.697,0.098,2.508,0.132
							c0.809,0.036,1.512,0.054,2.111,0.054c0.703,0,1.459-0.009,2.27-0.027c0.809-0.018,1.617-0.043,2.428-0.079
							c0.809-0.034,1.574-0.069,2.295-0.105c0.721-0.034,1.346-0.069,1.873-0.105v0.37c-1.09,0.105-2.004,0.255-2.744,0.447
							c-0.738,0.194-1.338,0.467-1.793,0.818c-0.459,0.353-0.801,0.811-1.029,1.373c-0.23,0.563-0.361,1.266-0.396,2.111
							c-0.035,0.598-0.063,1.318-0.08,2.163s-0.025,1.83-0.025,2.956l0.105,11.399c0,1.478,0.096,2.912,0.291,4.302
							c0.191,1.391,0.5,2.674,0.922,3.853c0.424,1.179,0.969,2.243,1.637,3.192c0.668,0.951,1.496,1.725,2.48,2.322
							c1.057,0.67,2.154,1.135,3.299,1.398c1.143,0.265,2.313,0.396,3.51,0.396c1.406,0,2.762-0.271,4.064-0.818
							c1.301-0.545,2.393-1.274,3.271-2.189c0.633-0.668,1.17-1.469,1.609-2.402c0.439-0.932,0.793-1.952,1.057-3.061
							s0.447-2.27,0.553-3.483c0.107-1.214,0.16-2.437,0.16-3.668l-0.107-9.289c-0.035-1.267-0.061-2.533-0.078-3.8
							s-0.045-2.357-0.08-3.271c-0.035-0.951-0.193-1.707-0.475-2.27s-0.678-1.012-1.188-1.346s-1.143-0.59-1.9-0.766
							c-0.756-0.176-1.627-0.334-2.611-0.476v-0.316c1.125-0.034,2.4,0.009,3.826,0.132s2.734,0.185,3.932,0.185
							c1.406,0,2.797-0.034,4.17-0.105c1.371-0.069,2.568-0.14,3.588-0.211v0.37c-1.09,0.105-2.004,0.255-2.744,0.447
							c-0.738,0.194-1.338,0.467-1.795,0.818c-0.457,0.353-0.801,0.811-1.027,1.373c-0.23,0.563-0.361,1.266-0.396,2.11
							c-0.035,0.599-0.063,1.319-0.08,2.164S720,393.374,720,394.5v3.799c0,0.459-0.01,0.977-0.027,1.558s-0.025,1.161-0.025,1.741
							c0,0.581,0,1.117,0,1.61s0,0.88,0,1.161V404.844z"/>
						<path fill="#1E4276" d="M760.531,394.5c0,1.971-0.471,3.765-1.412,5.383c-0.939,1.619-2.154,2.991-3.641,4.117
							s-3.154,1.979-5,2.559c-1.848,0.581-3.688,0.818-5.516,0.713v-0.475c1.406-0.141,2.717-0.439,3.932-0.897
							c1.213-0.456,2.252-1.099,3.113-1.927c0.861-0.826,1.539-1.82,2.033-2.981c0.492-1.161,0.738-2.515,0.738-4.063
							c0-1.443-0.23-2.832-0.686-4.17c-0.459-1.337-1.119-2.516-1.98-3.536s-1.908-1.855-3.141-2.507
							c-1.23-0.65-2.604-1.012-4.115-1.082c-0.811-0.07-1.531-0.07-2.164,0l-0.369,0.686v11.98l-0.053,5.596l0.053,7.758
							c0,1.127,0,2.27,0,3.431s0.033,2.041,0.105,2.639c0.07,0.739,0.211,1.364,0.422,1.874s0.555,0.932,1.029,1.266
							c0.475,0.336,1.115,0.607,1.926,0.818c0.809,0.211,1.848,0.369,3.113,0.475v0.37c-0.563-0.034-1.24-0.07-2.031-0.105
							c-0.791-0.034-1.627-0.062-2.508-0.079c-0.879-0.018-1.74-0.035-2.586-0.053c-0.844-0.018-1.602-0.026-2.27-0.026
							c-0.633,0-1.354,0.009-2.162,0.026c-0.811,0.018-1.629,0.045-2.455,0.079c-0.826,0.035-1.637,0.062-2.428,0.079
							s-1.469,0.045-2.031,0.079v-0.317c0.984-0.14,1.855-0.298,2.611-0.475c0.756-0.176,1.381-0.43,1.875-0.766
							c0.492-0.334,0.879-0.781,1.16-1.346c0.281-0.563,0.439-1.318,0.475-2.27c0.035-0.738,0.053-1.873,0.053-3.403
							s0-3.167,0-4.909c0-1.741,0-3.403,0-4.986c0-1.584,0-2.798,0-3.643c0-0.844,0-1.741,0-2.691c0-0.949,0-1.917,0-2.902
							c0-0.984-0.008-1.927-0.025-2.824c-0.02-0.896-0.045-1.715-0.08-2.453c-0.035-0.951-0.176-1.707-0.422-2.27
							s-0.615-1.021-1.107-1.373c-0.494-0.352-1.109-0.615-1.848-0.791c-0.74-0.176-1.602-0.334-2.586-0.475v-0.423
							c0.422,0.035,0.949,0.062,1.582,0.079c0.635,0.018,1.328,0.035,2.086,0.053c0.756,0.018,1.557,0.035,2.402,0.053
							s1.674,0.026,2.484,0.026l7.564-0.211c1.48,0,3.031,0.142,4.654,0.423c1.621,0.281,3.111,0.8,4.469,1.557
							s2.486,1.803,3.385,3.14C760.082,390.665,760.531,392.389,760.531,394.5z"/>
					</g>
					<g>
						<path fill="#1E4276" d="M203.596,413.736v0.613c-0.617,0.163-1.277,0.424-1.982,0.782s-1.084,0.69-1.139,0.993
							c-0.025,0.168-0.051,0.375-0.07,0.621c-0.021,0.246-0.031,0.457-0.031,0.636v0.369h11.313c0.244,0,0.461-0.034,0.646-0.103
							s0.334-0.201,0.441-0.401c0.063-0.12,0.125-0.308,0.189-0.563c0.064-0.254,0.109-0.471,0.137-0.648h0.793v6.227H213.1
							c-0.021-0.152-0.049-0.367-0.086-0.643s-0.084-0.463-0.139-0.563c-0.107-0.205-0.254-0.341-0.436-0.409
							c-0.184-0.067-0.4-0.103-0.652-0.103h-11.414v0.369c0,0.178,0.01,0.391,0.031,0.637c0.02,0.246,0.045,0.453,0.07,0.62
							c0.055,0.304,0.434,0.635,1.139,0.993c0.705,0.359,1.365,0.619,1.982,0.781v0.614h-4.127v-10.823H203.596z"/>
						<path fill="#1E4276" d="M213.893,397.846v6.037H213.1c-0.014-0.131-0.033-0.322-0.061-0.574s-0.068-0.426-0.123-0.52
							c-0.102-0.195-0.234-0.328-0.4-0.402c-0.166-0.073-0.379-0.109-0.637-0.109h-4.969v4.77h4.857c0.23,0,0.438-0.037,0.621-0.113
							c0.182-0.076,0.324-0.207,0.426-0.391c0.055-0.1,0.111-0.27,0.174-0.512c0.061-0.24,0.098-0.438,0.111-0.59h0.793v6.037H213.1
							c-0.008-0.131-0.029-0.324-0.066-0.578s-0.082-0.439-0.137-0.555c-0.088-0.189-0.223-0.32-0.402-0.395
							c-0.18-0.072-0.391-0.109-0.635-0.109h-10.205c-0.236,0-0.438,0.033-0.6,0.098c-0.162,0.066-0.305,0.201-0.428,0.406
							c-0.088,0.152-0.166,0.352-0.238,0.598c-0.07,0.247-0.113,0.426-0.127,0.535h-0.793v-6.037h0.793
							c0.014,0.162,0.047,0.357,0.102,0.582c0.055,0.227,0.105,0.399,0.152,0.52c0.088,0.205,0.229,0.34,0.422,0.406
							c0.193,0.064,0.398,0.098,0.615,0.098h4.311v-4.77h-4.209c-0.236,0-0.438,0.033-0.6,0.102s-0.305,0.205-0.428,0.41
							c-0.08,0.137-0.156,0.318-0.229,0.547c-0.07,0.229-0.117,0.41-0.137,0.547h-0.793v-6.037h0.793
							c0.014,0.168,0.043,0.356,0.086,0.566c0.045,0.21,0.102,0.398,0.168,0.566c0.088,0.199,0.227,0.334,0.418,0.402
							c0.189,0.067,0.395,0.102,0.619,0.102h10.215c0.244,0,0.451-0.034,0.621-0.102c0.168-0.068,0.311-0.203,0.426-0.402
							c0.068-0.126,0.129-0.309,0.184-0.547s0.088-0.434,0.102-0.586H213.893z"/>
						<path fill="#1E4276" d="M203.148,385.244v0.599c-0.547,0.151-1.1,0.415-1.66,0.787s-0.893,0.743-0.992,1.11
							c-0.049,0.156-0.076,0.376-0.086,0.656c-0.012,0.281-0.016,0.514-0.016,0.697v1.621h5.559v-1.148
							c0-0.289-0.043-0.552-0.131-0.787c-0.088-0.236-0.258-0.451-0.51-0.646c-0.154-0.12-0.43-0.242-0.822-0.365
							s-0.734-0.203-1.027-0.24v-0.599h6.018v0.599c-0.285,0.031-0.643,0.111-1.072,0.24s-0.727,0.25-0.889,0.365
							c-0.244,0.174-0.412,0.379-0.504,0.614c-0.092,0.236-0.137,0.509-0.137,0.819v1.148h4.156c0.434,0,0.779-0.024,1.033-0.074
							c0.254-0.051,0.447-0.143,0.584-0.279c0.129-0.131,0.213-0.312,0.254-0.539c0.041-0.229,0.061-0.54,0.061-0.934
							c0-0.184-0.004-0.404-0.01-0.661s-0.027-0.482-0.061-0.677c-0.035-0.221-0.086-0.426-0.152-0.618
							c-0.068-0.191-0.166-0.335-0.295-0.429c-0.332-0.252-0.84-0.535-1.52-0.85c-0.682-0.315-1.191-0.523-1.529-0.623v-0.574
							l4.492,0.213v10.477H213.1c-0.014-0.146-0.041-0.346-0.082-0.598s-0.088-0.431-0.143-0.535
							c-0.107-0.199-0.244-0.334-0.41-0.402s-0.379-0.102-0.637-0.102h-10.174c-0.244,0-0.445,0.029-0.605,0.086
							c-0.158,0.059-0.303,0.197-0.432,0.418c-0.08,0.137-0.156,0.328-0.223,0.574c-0.068,0.246-0.113,0.434-0.133,0.559h-0.793
							v-9.902H203.148z"/>
					</g>
				</g>
			</g>
			<g>
				<path fill="#1E4276" d="M679.481,395.096c-1.043-2.402-2.491-4.453-4.346-6.148c-1.855-1.696-4.055-3.003-6.599-3.922
					c-2.544-0.918-5.318-1.379-8.321-1.379c-3.428,0-6.466,0.584-9.116,1.75c-2.649,1.166-4.876,2.694-6.678,4.584
					c-1.802,1.891-3.172,4.047-4.107,6.467c-0.937,2.42-1.404,4.902-1.404,7.445c0,2.65,0.485,5.194,1.457,7.633
					c0.972,2.438,2.358,4.576,4.161,6.412c1.802,1.838,3.982,3.305,6.545,4.399c2.562,1.095,5.433,1.644,8.612,1.644
					c3.074,0,5.918-0.521,8.533-1.564c2.614-1.041,4.876-2.49,6.784-4.346c1.908-1.854,3.392-4.055,4.452-6.598
					c1.06-2.545,1.59-5.301,1.59-8.269C681.045,400.201,680.523,397.498,679.481,395.096z M673.625,404.344
					c0,3.114-0.362,5.795-1.087,8.042s-1.669,4.087-2.835,5.521c-1.166,1.432-2.5,2.494-4.002,3.184
					c-1.502,0.691-3.013,1.035-4.531,1.035c-2.226,0-4.258-0.495-6.095-1.485c-1.838-0.991-3.401-2.362-4.69-4.113
					c-1.291-1.751-2.298-3.804-3.021-6.157c-0.725-2.354-1.086-4.893-1.086-7.617c0-2.689,0.317-5.113,0.953-7.271
					c0.637-2.158,1.528-3.98,2.677-5.467c1.148-1.485,2.499-2.627,4.055-3.424c1.555-0.795,3.25-1.193,5.088-1.193
					c2.155,0,4.134,0.496,5.937,1.486c1.802,0.99,3.347,2.335,4.637,4.033c1.29,1.699,2.288,3.697,2.995,5.998
					c0.706,2.301,1.06,4.777,1.06,7.43H673.625z"/>
			</g>
		</g>
		<g>
			<path fill-rule="evenodd" clip-rule="evenodd" fill="#1E4276" d="M653.333,397.117c0.367,0,0.687,0,1.035,0
				c0.023,0.31,0.029,0.607,0.071,0.9c0.058,0.406,0.111,0.818,0.22,1.214c0.317,1.147,1.079,1.855,2.24,2.088
				c0.607,0.122,1.233,0.195,1.854,0.204c1.2,0.013,2.41,0.044,3.602-0.076c2.062-0.208,3.013-1.254,3.191-3.32
				c0.028-0.32,0.048-0.643,0.073-0.995c0.328,0,0.654,0,1.012,0c0,4.442,0,8.888,0,13.37c-0.301,0-0.588,0.016-0.872-0.012
				c-0.062-0.007-0.143-0.163-0.156-0.259c-0.076-0.516-0.104-1.04-0.204-1.551c-0.273-1.401-1.156-2.238-2.548-2.41
				c-1.166-0.144-2.352-0.155-3.529-0.167c-0.73-0.007-1.476,0.027-2.191,0.162c-1.582,0.295-2.396,1.195-2.62,2.788
				c-0.056,0.396-0.087,0.797-0.113,1.195c-0.011,0.179-0.065,0.261-0.256,0.257c-0.976-0.012-0.805,0.138-0.806-0.763
				c-0.004-4.063-0.002-8.128-0.002-12.191C653.333,397.419,653.333,397.288,653.333,397.117z"/>
		</g>
	</g>
</g>
</svg>
