<?xml version="1.0" encoding="utf-8"?>
<!-- Generator: Adobe Illustrator 16.0.0, SVG Export Plug-In . SVG Version: 6.00 Build 0)  -->
<!DOCTYPE svg PUBLIC "-//W3C//DTD SVG 1.1//EN" "http://www.w3.org/Graphics/SVG/1.1/DTD/svg11.dtd">
<svg version="1.1" id="Layer_1" xmlns="http://www.w3.org/2000/svg" xmlns:xlink="http://www.w3.org/1999/xlink" x="0px" y="0px"
	 width="960px" height="560px" viewBox="0 0 960 560" enable-background="new 0 0 960 560" xml:space="preserve">
<g>
	<g>
		<g>
			<g>
				<g>
					<path fill="#21D0A5" d="M498,178.69c0,33.824,0,67.691,0,101.117c14,0,37.467,0.169,37.467,0.169l0.121-72.744
						c4.601,2.701,9.398,4.697,12.184,7.172L548.214,279c0,0,8.786,0,13.786,0c0-22,0-46.221,0-69.729c-8-4.91-17-9.771-26-14.641
						c0-2.206,0-4.084,0-6.053c-5-2.371-7.756-4.671-11.647-7.019c-0.161,0.494-0.228,0.597-0.228,0.7l0.364,86.493
						c-3.986,0-10.489-0.086-12.489-0.086c0-33.426,0-63.474,0-95.2c-12-6.41-22.093-12.429-32.512-18.491
						c-0.083,0.049,0.512,0.098-0.488,0.146v12.581c1-0.078,0.54-0.155,0.673-0.233C486.071,171.25,493,174.865,498,178.69z"/>
					<path fill="#21D0A5" d="M486,183.978c-2-1.187-4.792-2.288-6.705-3.39c-0.105,0.065,0.705,0.129-0.295,0.194V279c3,0,4,0,7,0
						V183.978z"/>
				</g>
				<g>
					<path fill="#21D0A5" d="M461,178.69c0,33.824,0,67.691,0,101.117c-14,0-37.147,0.169-37.147,0.169l0.04-72.744
						c-4.601,2.701-9.318,4.697-12.104,7.172L411.428,279c0,0-9.428,0-14.428,0c0-22,0-46.221,0-69.729c8-4.91,17-9.771,26-14.641
						c0-2.206,0-4.084,0-6.053c5-2.371,8.077-4.671,11.968-7.019c0.161,0.494,0.388,0.597,0.388,0.7l-0.605,86.493
						c3.986,0,10.249-0.086,12.249-0.086c0-33.426,0-63.474,0-95.2c12-6.41,22.093-12.429,32.512-18.491
						c0.083,0.049,0.488,0.098,0.488,0.146v12.581c0-0.078-0.54-0.155-0.674-0.233C472.929,171.25,466,174.865,461,178.69z"/>
					<path fill="#21D0A5" d="M473,183.978c2-1.187,4.792-2.288,6.705-3.39c0.105,0.065,0.295,0.129,0.295,0.194V279c-2,0-4,0-7,0
						V183.978z"/>
				</g>
			</g>
		</g>
	</g>
	<g>
		<g>
			<path d="M290.376,349.095h-13.372v39.994h-9.5v-39.994h-13.372v-8.351h36.243V349.095z"/>
			<path d="M331.217,389.089h-9.378V367.67h-19.06v21.419h-9.378v-48.345h9.378v19.181h19.06v-19.181h9.378V389.089z"/>
			<path d="M369.214,389.089h-31.947v-48.345h31.947v7.745h-22.75v11.557h22.448v7.563h-22.448v13.312h22.75V389.089z"/>
			<path d="M423.427,356.96c0,2.3-0.435,4.447-1.305,6.444c-0.87,1.996-2.053,3.731-3.548,5.203
				c-1.496,1.473-3.255,2.623-5.276,3.449c-2.022,0.827-4.166,1.24-6.43,1.24h-8.007v15.792h-9.378v-48.345h17.396
				c2.263,0,4.404,0.414,6.425,1.24c2.02,0.827,3.778,1.967,5.273,3.419c1.495,1.452,2.676,3.167,3.545,5.144
				C422.992,352.524,423.427,354.662,423.427,356.96z M414.049,356.839c0-1.25-0.233-2.42-0.696-3.509
				c-0.464-1.09-1.1-2.037-1.906-2.844c-0.807-0.807-1.754-1.452-2.844-1.937c-1.089-0.484-2.259-0.727-3.509-0.727h-6.232v18.273
				h6.232c1.25,0,2.42-0.252,3.509-0.757c1.089-0.504,2.037-1.18,2.844-2.026c0.807-0.848,1.442-1.825,1.906-2.935
				C413.816,359.27,414.049,358.09,414.049,356.839z"/>
			<path d="M462.755,389.089h-10.328l-3.44-11.012c-0.362-1.211-0.815-2.319-1.357-3.328c-0.543-1.008-1.198-1.876-1.962-2.602
				c-0.765-0.727-1.68-1.291-2.746-1.694s-2.324-0.605-3.772-0.605h-3.5v19.241h-9.258v-48.345l19.086-0.061
				c2.054,0,3.966,0.354,5.738,1.06c1.772,0.706,3.301,1.685,4.59,2.935c1.288,1.25,2.295,2.723,3.02,4.417
				c0.724,1.693,1.087,3.529,1.087,5.506c0,1.412-0.221,2.783-0.662,4.114s-1.062,2.562-1.863,3.69
				c-0.802,1.13-1.753,2.129-2.854,2.995c-1.102,0.868-2.314,1.523-3.636,1.967c1.522,0.565,2.764,1.382,3.727,2.45
				c0.962,1.069,1.724,2.351,2.285,3.843c0.28,0.686,0.541,1.371,0.781,2.057c0.24,0.687,0.491,1.402,0.752,2.148
				c0.261,0.747,0.542,1.553,0.842,2.42c0.3,0.868,0.63,1.825,0.992,2.874c0.443,1.331,0.856,2.472,1.24,3.419
				C461.898,387.527,462.311,388.363,462.755,389.089z M450.533,355.266c0-1.129-0.212-2.157-0.635-3.086
				c-0.423-0.927-0.999-1.733-1.725-2.42c-0.726-0.686-1.583-1.22-2.571-1.604c-0.989-0.383-2.048-0.574-3.177-0.574h-6.776v15.065
				h6.776c1.129,0,2.188-0.171,3.177-0.514c0.988-0.343,1.845-0.837,2.571-1.482s1.301-1.422,1.725-2.33
				C450.321,357.415,450.533,356.396,450.533,355.266z"/>
			<path d="M515.032,364.887c0,3.47-0.675,6.736-2.025,9.802s-3.193,5.729-5.53,7.986c-2.337,2.26-5.056,4.045-8.159,5.355
				c-3.103,1.311-6.406,1.966-9.911,1.966c-3.506,0-6.819-0.655-9.942-1.966c-3.123-1.311-5.852-3.096-8.189-5.355
				c-2.337-2.258-4.18-4.91-5.53-7.956c-1.35-3.045-2.024-6.323-2.024-9.832c0-3.51,0.674-6.797,2.024-9.863
				c1.35-3.064,3.193-5.727,5.53-7.986c2.337-2.259,5.066-4.033,8.189-5.324c3.123-1.291,6.437-1.937,9.942-1.937
				c3.504,0,6.808,0.646,9.911,1.937c3.103,1.291,5.822,3.076,8.159,5.354c2.337,2.279,4.18,4.941,5.53,7.986
				C514.357,358.101,515.032,361.377,515.032,364.887z M505.654,364.887c0-2.219-0.424-4.306-1.273-6.263
				c-0.849-1.956-2.011-3.67-3.486-5.144c-1.475-1.472-3.203-2.641-5.183-3.509c-1.979-0.867-4.081-1.301-6.304-1.301
				c-2.264,0-4.386,0.434-6.366,1.301c-1.979,0.868-3.708,2.037-5.183,3.509c-1.475,1.474-2.637,3.188-3.486,5.144
				c-0.849,1.957-1.272,4.044-1.272,6.263c0,2.178,0.423,4.256,1.272,6.231c0.849,1.978,2.011,3.701,3.486,5.174
				c1.475,1.473,3.203,2.643,5.183,3.509c1.979,0.868,4.102,1.301,6.366,1.301c2.223,0,4.324-0.433,6.304-1.301
				c1.979-0.866,3.708-2.036,5.183-3.509c1.475-1.473,2.637-3.196,3.486-5.174C505.229,369.143,505.654,367.065,505.654,364.887z"/>
			<path d="M562.348,364.887c0,3.349-0.565,6.484-1.694,9.408c-1.129,2.925-2.703,5.486-4.719,7.685
				c-2.018,2.199-4.427,3.933-7.23,5.203c-2.804,1.271-5.86,1.906-9.167,1.906h-20.209v-48.405h20.209
				c3.307,0,6.362,0.646,9.167,1.937c2.803,1.291,5.213,3.025,7.23,5.203c2.017,2.179,3.59,4.74,4.719,7.685
				C561.783,358.454,562.348,361.58,562.348,364.887z M552.849,364.645c0.04-2.259-0.302-4.396-1.028-6.414
				c-0.726-2.017-1.776-3.781-3.146-5.294c-1.372-1.513-3.056-2.702-5.052-3.57c-1.997-0.866-4.246-1.301-6.747-1.301h-8.168v33.036
				h8.168c2.46,0,4.668-0.413,6.625-1.24c1.956-0.826,3.62-1.976,4.992-3.448c1.371-1.473,2.43-3.207,3.177-5.204
				C552.415,369.213,552.808,367.025,552.849,364.645z"/>
			<path d="M575.961,389.089h-9.378v-48.345h9.378V389.089z"/>
			<path d="M626.242,380.376c-2.42,2.945-5.355,5.285-8.804,7.019c-3.449,1.734-7.251,2.602-11.406,2.602
				c-3.59,0-6.958-0.655-10.104-1.966c-3.146-1.311-5.884-3.096-8.212-5.355c-2.328-2.258-4.164-4.91-5.506-7.956
				c-1.342-3.045-2.014-6.323-2.014-9.832c0-3.51,0.671-6.786,2.014-9.833c1.342-3.045,3.178-5.707,5.506-7.986
				c2.328-2.278,5.066-4.063,8.212-5.354c3.146-1.291,6.514-1.937,10.104-1.937c4.154,0,7.957,0.868,11.406,2.602
				c3.449,1.735,6.323,3.993,8.622,6.776l-6.474,6.656c-1.493-2.138-3.419-3.862-5.778-5.174c-2.36-1.31-4.952-1.966-7.775-1.966
				c-2.259,0-4.387,0.434-6.383,1.301c-1.997,0.868-3.742,2.037-5.234,3.509c-1.493,1.474-2.672,3.188-3.54,5.144
				c-0.868,1.957-1.301,4.044-1.301,6.263c0,2.178,0.433,4.245,1.301,6.201c0.867,1.957,2.047,3.672,3.54,5.144
				c1.492,1.473,3.237,2.643,5.234,3.509c1.997,0.868,4.124,1.302,6.383,1.302c2.985,0,5.627-0.676,7.926-2.027
				c2.299-1.351,4.215-3.136,5.748-5.354L626.242,380.376z"/>
			<path d="M670.532,340.684v26.26c0,3.228-0.484,6.232-1.452,9.016s-2.37,5.214-4.205,7.291c-1.836,2.078-4.075,3.712-6.716,4.901
				c-2.643,1.189-5.657,1.784-9.046,1.784c-3.308,0-6.292-0.585-8.955-1.754c-2.663-1.17-4.931-2.773-6.807-4.811
				c-1.875-2.036-3.318-4.437-4.326-7.2c-1.009-2.763-1.513-5.738-1.513-8.925v-26.563h9.378v26.623
				c0,1.855,0.262,3.601,0.787,5.233c0.524,1.634,1.291,3.056,2.299,4.266c1.008,1.211,2.269,2.169,3.782,2.874
				c1.513,0.707,3.237,1.06,5.173,1.06c2.057,0,3.842-0.333,5.354-0.999c1.513-0.665,2.763-1.593,3.751-2.783
				c0.988-1.189,1.734-2.591,2.239-4.205c0.504-1.612,0.756-3.388,0.756-5.324v-26.744H670.532z"/>
			<path d="M707.683,376.383c0,1.814-0.394,3.539-1.18,5.173c-0.787,1.634-1.886,3.076-3.298,4.326
				c-1.413,1.251-3.086,2.249-5.022,2.995s-4.075,1.119-6.414,1.119c-2.098,0-3.984-0.121-5.657-0.362
				c-1.674-0.242-3.248-0.625-4.72-1.15c-1.473-0.523-2.884-1.199-4.235-2.026c-1.352-0.826-2.753-1.825-4.205-2.995l6.656-6.717
				c1.936,1.614,3.832,2.754,5.688,3.419c1.855,0.666,3.872,0.998,6.05,0.998c0.887,0,1.725-0.13,2.511-0.393
				c0.787-0.262,1.472-0.615,2.057-1.06c0.584-0.443,1.048-0.968,1.392-1.572c0.342-0.605,0.514-1.271,0.514-1.997
				c0-0.766-0.142-1.452-0.423-2.058c-0.283-0.604-0.787-1.189-1.513-1.754s-1.735-1.14-3.025-1.725
				c-1.292-0.585-2.945-1.24-4.961-1.967c-1.775-0.645-3.479-1.381-5.113-2.208s-3.066-1.825-4.296-2.995
				c-1.231-1.17-2.219-2.542-2.965-4.115c-0.747-1.572-1.119-3.428-1.119-5.566c0-2.057,0.413-3.952,1.24-5.688
				c0.826-1.733,1.956-3.216,3.388-4.447c1.432-1.229,3.106-2.188,5.022-2.874c1.916-0.686,3.983-1.028,6.202-1.028
				c3.71,0,6.837,0.484,9.378,1.452c2.541,0.968,4.8,2.381,6.777,4.235L699.877,352c-1.21-1.17-2.562-2.067-4.054-2.693
				c-1.493-0.625-3.248-0.938-5.264-0.938c-0.928,0-1.785,0.142-2.571,0.424s-1.462,0.656-2.027,1.119
				c-0.565,0.464-1.019,1.009-1.361,1.634c-0.343,0.626-0.515,1.281-0.515,1.966c0,0.768,0.161,1.463,0.484,2.088
				c0.322,0.626,0.867,1.23,1.633,1.815c0.766,0.585,1.785,1.17,3.056,1.755s2.854,1.22,4.75,1.905
				c2.42,0.848,4.497,1.775,6.232,2.783c1.734,1.009,3.146,2.118,4.235,3.328c1.089,1.21,1.896,2.571,2.42,4.084
				C707.42,372.783,707.683,374.488,707.683,376.383z"/>
		</g>
		<g>
			<g>
				<path d="M419.485,430.922c-0.85,1.05-1.775,1.956-2.774,2.719c-1,0.763-2.043,1.394-3.131,1.894s-2.2,0.868-3.337,1.105
					c-1.138,0.237-2.268,0.356-3.393,0.356c-2.225,0-4.312-0.4-6.262-1.2s-3.65-1.899-5.099-3.299c-1.45-1.4-2.6-3.05-3.45-4.95
					c-0.85-1.898-1.275-3.949-1.275-6.148c0-2.149,0.418-4.168,1.256-6.056c0.837-1.887,1.987-3.53,3.449-4.931
					c1.462-1.399,3.168-2.506,5.118-3.318c1.95-0.812,4.037-1.219,6.262-1.219c2.574,0,4.917,0.525,7.03,1.575
					c2.112,1.05,3.905,2.45,5.38,4.199l-3.93,4.012c-1.124-1.524-2.383-2.618-3.781-3.28c-1.398-0.662-2.958-0.994-4.679-0.994
					c-1.422,0-2.758,0.263-4.005,0.788c-1.248,0.524-2.339,1.243-3.275,2.155c-0.937,0.913-1.672,1.976-2.209,3.188
					c-0.537,1.213-0.804,2.506-0.804,3.881c0,1.4,0.268,2.706,0.804,3.918c0.536,1.213,1.272,2.281,2.208,3.206
					c0.935,0.925,2.026,1.649,3.274,2.175c1.247,0.524,2.581,0.787,4.003,0.787c1.347,0,2.619-0.25,3.816-0.75
					c1.197-0.5,2.27-1.162,3.217-1.987v-2.887h-6.149v-4.949h11.736V430.922z"/>
				<path d="M454.017,436.434h-6.4l-2.132-6.824c-0.224-0.75-0.505-1.437-0.841-2.063c-0.337-0.624-0.742-1.162-1.215-1.611
					c-0.474-0.45-1.041-0.8-1.702-1.051c-0.661-0.249-1.44-0.374-2.337-0.374h-2.169v11.923h-5.737v-29.958l11.827-0.038
					c1.272,0,2.458,0.22,3.556,0.656c1.098,0.438,2.046,1.044,2.844,1.818c0.798,0.775,1.422,1.688,1.872,2.737
					c0.449,1.05,0.673,2.188,0.673,3.412c0,0.875-0.137,1.725-0.41,2.55c-0.273,0.825-0.658,1.588-1.154,2.287
					c-0.497,0.7-1.086,1.318-1.769,1.856c-0.683,0.537-1.434,0.943-2.253,1.218c0.943,0.351,1.713,0.856,2.309,1.519
					c0.597,0.663,1.068,1.457,1.416,2.381c0.174,0.426,0.335,0.851,0.484,1.275c0.148,0.425,0.304,0.868,0.465,1.331
					c0.162,0.463,0.336,0.962,0.522,1.5c0.187,0.537,0.391,1.131,0.615,1.78c0.275,0.825,0.531,1.532,0.769,2.119
					C453.485,435.465,453.741,435.984,454.017,436.434z M446.443,415.474c0-0.699-0.131-1.337-0.394-1.912
					c-0.263-0.574-0.619-1.074-1.069-1.499c-0.45-0.425-0.981-0.756-1.593-0.994c-0.613-0.237-1.269-0.356-1.969-0.356h-4.199v9.337
					h4.199c0.7,0,1.356-0.106,1.969-0.319c0.612-0.212,1.144-0.519,1.593-0.918c0.45-0.4,0.806-0.882,1.069-1.444
					C446.312,416.805,446.443,416.174,446.443,415.474z"/>
				<path d="M495.786,421.436c0,2.15-0.418,4.175-1.255,6.074c-0.837,1.9-1.979,3.55-3.427,4.949
					c-1.448,1.4-3.133,2.507-5.056,3.318c-1.923,0.813-3.97,1.219-6.142,1.219c-2.172,0-4.226-0.406-6.161-1.219
					c-1.935-0.812-3.626-1.918-5.075-3.318c-1.448-1.399-2.59-3.043-3.427-4.931c-0.836-1.887-1.254-3.918-1.254-6.093
					s0.418-4.212,1.254-6.111c0.837-1.899,1.979-3.549,3.427-4.949c1.448-1.399,3.14-2.499,5.075-3.3c1.935-0.8,3.988-1.2,6.161-1.2
					c2.172,0,4.219,0.4,6.142,1.2c1.923,0.801,3.608,1.906,5.056,3.318s2.59,3.063,3.427,4.949
					C495.368,417.231,495.786,419.261,495.786,421.436z M489.974,421.436c0-1.374-0.263-2.668-0.789-3.881
					c-0.526-1.212-1.246-2.274-2.16-3.187c-0.914-0.912-1.985-1.637-3.211-2.175c-1.227-0.537-2.529-0.807-3.907-0.807
					c-1.402,0-2.718,0.27-3.944,0.807c-1.227,0.538-2.298,1.263-3.211,2.175c-0.914,0.912-1.634,1.975-2.16,3.187
					c-0.526,1.213-0.789,2.507-0.789,3.881c0,1.35,0.262,2.638,0.789,3.862c0.526,1.225,1.246,2.293,2.16,3.206
					c0.914,0.912,1.985,1.637,3.211,2.174c1.227,0.538,2.542,0.807,3.944,0.807c1.377,0,2.68-0.269,3.907-0.807
					c1.227-0.537,2.298-1.262,3.211-2.174c0.914-0.913,1.634-1.981,2.16-3.206C489.711,424.074,489.974,422.786,489.974,421.436z"/>
				<path d="M534.105,406.438v16.273c0,2-0.3,3.861-0.9,5.586c-0.6,1.726-1.469,3.231-2.605,4.519
					c-1.138,1.288-2.525,2.3-4.162,3.037c-1.638,0.737-3.506,1.106-5.605,1.106c-2.05,0-3.899-0.363-5.549-1.088
					s-3.056-1.718-4.218-2.98c-1.162-1.263-2.056-2.75-2.681-4.462c-0.625-1.712-0.938-3.556-0.938-5.53v-16.461h5.812v16.498
					c0,1.15,0.162,2.23,0.487,3.243c0.325,1.013,0.8,1.894,1.425,2.644c0.625,0.75,1.406,1.344,2.343,1.781s2.006,0.656,3.206,0.656
					c1.274,0,2.381-0.207,3.318-0.619c0.938-0.412,1.712-0.987,2.325-1.725c0.612-0.737,1.075-1.605,1.388-2.606
					c0.312-0.999,0.468-2.1,0.468-3.299v-16.573H534.105z"/>
				<path d="M567.513,416.524c0,1.425-0.27,2.756-0.809,3.994c-0.539,1.237-1.272,2.312-2.199,3.224
					c-0.927,0.913-2.017,1.626-3.27,2.138c-1.253,0.513-2.582,0.769-3.984,0.769h-4.962v9.786h-5.812v-29.958h10.78
					c1.402,0,2.729,0.256,3.981,0.769c1.252,0.513,2.341,1.219,3.268,2.118c0.926,0.9,1.659,1.963,2.197,3.188
					C567.243,413.775,567.513,415.099,567.513,416.524z M561.701,416.45c0-0.774-0.145-1.5-0.432-2.175
					c-0.288-0.675-0.681-1.262-1.181-1.763c-0.5-0.499-1.087-0.899-1.762-1.199c-0.675-0.301-1.4-0.45-2.175-0.45h-3.862v11.323
					h3.862c0.774,0,1.5-0.156,2.175-0.469c0.675-0.313,1.262-0.731,1.762-1.256c0.5-0.525,0.893-1.131,1.181-1.818
					C561.557,417.956,561.701,417.224,561.701,416.45z"/>
			</g>
			<rect x="580" y="419" width="125" height="3"/>
			<rect x="255" y="419" width="125" height="3"/>
		</g>
	</g>
</g>
</svg>
