<?xml version="1.0" encoding="utf-8"?>
<!-- Generator: Adobe Illustrator 16.0.0, SVG Export Plug-In . SVG Version: 6.00 Build 0)  -->
<!DOCTYPE svg PUBLIC "-//W3C//DTD SVG 1.1//EN" "http://www.w3.org/Graphics/SVG/1.1/DTD/svg11.dtd">
<svg version="1.1" id="Layer_1" xmlns="http://www.w3.org/2000/svg" xmlns:xlink="http://www.w3.org/1999/xlink" x="0px" y="0px"
	 width="960px" height="560px" viewBox="0 0 960 560" enable-background="new 0 0 960 560" xml:space="preserve">
<defs>
	<filter id="Adobe_OpacityMaskFilter" filterUnits="userSpaceOnUse" x="254.279" y="109.275" width="453.588" height="329.106">
		<feFlood  style="flood-color:white;flood-opacity:1" result="back"/>
		<feBlend  in="SourceGraphic" in2="back" mode="normal"/>
	</filter>
</defs>
<mask maskUnits="userSpaceOnUse" x="254.279" y="109.275" width="453.588" height="329.106" id="SVGID_1_">
	<g filter="url(#Adobe_OpacityMaskFilter)">
		
			<ellipse transform="matrix(0.8606 -0.5093 0.5093 0.8606 -16.368 224.1992)" opacity="0.25" fill="#1A1A1A" cx="401.334" cy="141.997" rx="171" ry="60.666"/>
		<rect x="211" y="324" opacity="0.25" fill="#1A1A1A" width="608" height="36"/>
		<rect x="358" y="399" opacity="0.25" fill="#1A1A1A" width="235" height="21"/>
	</g>
</mask>
<g mask="url(#SVGID_1_)">
	<g>
		<g>
			<g>
				<path fill-rule="evenodd" clip-rule="evenodd" fill="#1E4276" d="M364.64,164.746c38.349-18.437,76.698-36.874,115.38-55.471
					c38.736,18.623,77.298,37.16,115.856,55.698c-0.105,0.486-0.214,0.973-0.323,1.458c-76.794,0-153.591,0-230.385,0
					C364.989,165.87,364.815,165.309,364.64,164.746z M480.115,115.437c-29.883,14.916-59.343,29.622-88.805,44.328
					c0.228,0.514,0.456,1.028,0.685,1.54c58.887,0,117.777,0,176.663,0c0.095-0.475,0.189-0.952,0.285-1.428
					C539.629,145.212,510.316,130.547,480.115,115.437z"/>
			</g>
			<g>
				<path fill="#1E4276" d="M480.037,119.912L405.042,158.5c0,0,99.257,0,147.498,0c0.044-1,0.091-1.23,0.134-1.689
					C528.437,144.61,504.262,132.104,480.037,119.912z M419.336,155.5h-5.238l64.057-32.35L419.336,155.5z"/>
			</g>
		</g>
		<g>
			<rect x="356.5" y="172.5" fill-rule="evenodd" clip-rule="evenodd" fill="#21D0A5" width="246" height="4"/>
			<rect x="363.5" y="179.5" fill-rule="evenodd" clip-rule="evenodd" fill="#21D0A5" width="231" height="3"/>
			<rect x="356.5" y="282.5" fill-rule="evenodd" clip-rule="evenodd" fill="#21D0A5" width="246" height="4"/>
			<rect x="363.5" y="275.5" fill-rule="evenodd" clip-rule="evenodd" fill="#21D0A5" width="231" height="3"/>
			<path fill-rule="evenodd" clip-rule="evenodd" fill="#1E4276" d="M362.5,188.953v0.098c0,2.763,7.333,5.795,10.021,6.238
				l-0.1,70.211h0.035l-8.663,7h36.288c61.299,0,122.628,0.05,183.916,0.02l0.011-0.02h13.203l-9.712-8.291c0,0,0-43.709,0-68.709
				h1.384c1.78,0,8.616-4.67,8.616-6.449v-0.098c0-1.778-0.724-2.453-2.502-2.453H575.28c-1.779,0-3.78,0.675-3.78,2.453v0.098
				c0,0.225,0.332,0.446,0.421,0.666c-0.013,0.008,0.114,0.016,0.103,0.024c0.02,0.007,0.052,0.014,0.071,0.021
				c0.901,2.094,5.405,3.914,8.405,4.662c0,22.769,0,45.558,0,69.79l-22,0.014c0-23.839,0-46.633,0-69.468c2-0.329,10-4.011,10-5.71
				v-0.098c0-1.778-1.404-2.453-3.183-2.453H545.6c-1.778,0-4.1,0.675-4.1,2.453v0.098c0,2.148,5,4.112,8,5.089
				c0,23.369,0,46.828,0,70.095l-20,0.014c0-23.13,0-46.286,0-69.487c2-0.329,9-4.011,9-5.71v-0.098
				c0-1.778-1.084-2.453-2.863-2.453h-19.718c-1.778,0-3.419,0.675-3.419,2.453v0.098c0,2.385,5,4.543,8,5.374
				c0,23.016,0,45.847,0,69.829l-21,0.014c0-23.271,0-46.224,0-69.618c3-0.709,8-4.016,8-5.599v-0.098
				c0-1.778-0.268-2.453-2.047-2.453h-19.717c-1.779,0-3.236,0.675-3.236,2.453v0.098c0,2.428,5.559,4.619,8.729,5.417
				l-0.132,69.806l-20.598,0.014c0-23.634,0-46.503,0-69.794c2-0.947,8-3.955,8-5.442v-0.098c0-1.778-1.451-2.453-3.23-2.453
				h-19.717c-1.779,0-4.053,0.675-4.053,2.453v0.098c0,2.516,6,4.778,10,5.497c0,23.085,0,45.989,0,69.745l-21,0.014
				c0-23.707,0-46.582,0-69.813c3-0.947,8-3.955,8-5.442v-0.098c0-1.778-1.131-2.453-2.91-2.453h-19.718
				c-1.778,0-3.372,0.675-3.372,2.453v0.098c0,2.385,5,4.543,8,5.374c0,23.536,0,46.579,0,69.889l-20,0.013
				c0-23.662,0-46.597,0-69.833c3-0.947,8-3.955,8-5.442v-0.098c0-1.778-0.813-2.453-2.59-2.453h-19.719
				c-1.778,0-3.691,0.675-3.691,2.453v0.098c0,2.265,5,4.322,8,5.236c0,23.382,0,46.286,0,70.045l-18.916,0.014l-2.308-69.56
				c1.807-0.022,9.224-3.961,9.224-5.735v-0.098c0-1.778-0.995-2.453-2.774-2.453h-19.718
				C364.229,186.5,362.5,187.175,362.5,188.953z"/>
		</g>
	</g>
	<g>
		<g>
			<g>
				<path fill="#1A1A1A" d="M278.5,366.113l-7.49-0.006l-0.019,23.528l-15.068-0.013l0.05-62.389l22.911,0.02
					c13.658,0.01,24.405,4.953,24.394,19.229C303.266,360.935,291.542,366.125,278.5,366.113z M277.641,339.413l-6.609-0.005
					l-0.012,14.715l6.345,0.006c5.64,0.004,10.84-1.666,10.845-7.57C288.214,340.566,283.016,339.418,277.641,339.413z"/>
				<path fill="#1A1A1A" d="M345.28,389.695l-13.463-24.772l-5.111-0.005l-0.02,24.762l-14.804-0.012l0.05-62.389l23.792,0.02
					c11.984,0.01,23.877,4.602,23.865,18.877c-0.007,8.371-4.946,14.359-12.968,16.82l16.282,26.713L345.28,389.695z
					 M334.658,339.459l-8.02-0.007l-0.012,14.54l7.138,0.006c4.847,0.004,10.928-1.225,10.933-7.57
					C344.702,340.612,339.152,339.463,334.658,339.459z"/>
				<path fill="#1A1A1A" d="M400.885,391.414c-19.475-0.016-33.916-13.422-33.9-33.16c0.017-20.004,14.479-32.593,33.953-32.577
					c19.563,0.016,34.004,12.628,33.987,32.632C434.91,378.047,420.448,391.43,400.885,391.414z M400.927,339.247
					c-10.575-0.009-17.808,8.093-17.816,19.021c-0.009,11.279,7.299,19.392,17.785,19.4c10.486,0.008,17.895-8.094,17.903-19.373
					C418.808,347.369,411.501,339.256,400.927,339.247z"/>
				<path fill="#1A1A1A" d="M467.686,389.793l-23.264-0.019l0.05-62.389l22.559,0.019c17.711,0.014,35.682,7.43,35.663,31.047
					C502.676,380.393,484.869,389.807,467.686,389.793z M466.667,340.27l-7.49-0.006l-0.029,36.48l7.138,0.006
					c10.751,0.01,20.712-4.389,20.722-18.313C487.02,344.428,477.066,340.277,466.667,340.27z"/>
				<path fill="#1A1A1A" d="M512.189,389.828l0.049-62.389l15.156,0.013l-0.049,62.389L512.189,389.828z"/>
				<path fill="#1A1A1A" d="M570.436,391.55c-19.211-0.016-33.564-13.421-33.549-32.983c0.018-20.004,14.832-32.77,33.865-32.754
					c8.725,0.007,18.15,3.188,23.344,9.184l-10.23,10.213c-2.816-3.879-7.838-5.733-12.596-5.737
					c-10.486-0.009-17.982,8.093-17.992,19.108c-0.008,11.367,7.299,19.127,17.697,19.135c5.904,0.005,10.576-2.635,13.223-6.334
					l10.479,9.878C589.207,387.6,580.922,391.559,570.436,391.55z"/>
				<path fill="#1A1A1A" d="M626.658,391.595c-16.389-0.013-26.604-10.243-26.592-25.224l0.031-38.861l14.98,0.013l-0.029,37.627
					c-0.006,6.697,3.25,12.868,11.709,12.875c8.547,0.007,11.725-6.159,11.73-12.856l0.031-37.627l15.068,0.012l-0.031,38.861
					C653.545,381.395,642.961,391.607,626.658,391.595z"/>
				<path fill="#1A1A1A" d="M698.254,343.803c-2.553-3.262-7.221-5.381-11.1-5.384c-3.877-0.003-8.725,1.315-8.729,6.249
					c-0.004,4.143,3.697,5.467,9.6,7.322c8.457,2.738,19.381,6.359,19.371,18.785c-0.012,14.363-11.561,20.786-23.896,20.776
					c-8.9-0.007-17.887-3.274-23.344-9.007l9.877-10.037c2.992,3.791,8.541,6.615,13.477,6.619c4.582,0.004,8.637-1.756,8.641-6.778
					c0.004-4.759-4.754-6.261-12.947-8.91c-7.928-2.562-15.943-6.622-15.934-17.901c0.01-13.834,12.527-19.553,24.16-19.543
					c7.049,0.006,14.979,2.656,20.438,7.683L698.254,343.803z"/>
			</g>
			<g>
				<path d="M269.74,319.209c-0.618,0.394-1.335,0.688-2.148,0.885c-0.815,0.196-1.63,0.295-2.443,0.295
					c-1.433,0-2.641-0.176-3.623-0.526c-0.983-0.351-1.77-0.892-2.359-1.622c-0.59-0.729-1.019-1.656-1.285-2.78
					c-0.267-1.123-0.399-2.443-0.399-3.96v-10.658h-3.202v-2.738c1.966-0.814,3.56-2.021,4.781-3.623
					c1.222-1.601,2.058-3.679,2.507-6.234h1.979v7.119h6.15v5.477h-6.15v11.079c0,0.618,0.077,1.124,0.232,1.517
					c0.153,0.394,0.357,0.703,0.61,0.927c0.253,0.226,0.541,0.38,0.863,0.464c0.323,0.084,0.667,0.126,1.032,0.126
					c0.478,0,1.054-0.084,1.728-0.253c0.674-0.168,1.249-0.448,1.728-0.842V319.209z"/>
				<path d="M295.353,319.757h-6.066v-14.576c0-0.87-0.134-1.636-0.401-2.296c-0.269-0.659-0.621-1.207-1.059-1.643
					c-0.437-0.436-0.944-0.759-1.522-0.969c-0.578-0.211-1.178-0.316-1.798-0.316c-0.931,0-1.819,0.142-2.665,0.422
					c-0.847,0.28-1.664,0.674-2.454,1.179v18.199h-6.066v-34.923h6.066l0.042,11.964c0.898-0.702,1.938-1.222,3.117-1.559
					c1.18-0.337,2.317-0.506,3.413-0.506c1.264,0,2.457,0.204,3.58,0.611s2.12,1.025,2.991,1.854
					c0.87,0.828,1.559,1.868,2.064,3.117c0.505,1.25,0.758,2.731,0.758,4.444V319.757z"/>
				<path d="M325.137,307.54c0,0.394-0.021,0.801-0.063,1.222s-0.092,0.857-0.147,1.306h-19.463
					c0.225,0.703,0.541,1.369,0.948,2.001c0.406,0.632,0.905,1.18,1.495,1.644c0.59,0.463,1.257,0.828,2.001,1.095
					c0.744,0.268,1.565,0.4,2.465,0.4c1.095,0,2.19-0.189,3.286-0.568c1.095-0.379,2.007-0.892,2.737-1.538l3.834,3.834
					c-1.686,1.264-3.335,2.155-4.95,2.675s-3.321,0.779-5.118,0.779c-1.826,0-3.532-0.337-5.118-1.011
					c-1.587-0.674-2.964-1.587-4.129-2.738s-2.085-2.507-2.759-4.065s-1.011-3.223-1.011-4.992s0.337-3.434,1.011-4.992
					s1.601-2.913,2.78-4.064s2.555-2.064,4.128-2.738c1.573-0.675,3.258-1.012,5.056-1.012c1.713,0,3.355,0.316,4.929,0.948
					c1.572,0.632,2.963,1.51,4.171,2.633c1.207,1.124,2.162,2.465,2.864,4.023S325.137,305.659,325.137,307.54z M318.775,305.181
					c-0.479-1.544-1.327-2.786-2.549-3.728s-2.605-1.411-4.149-1.411c-1.517,0-2.879,0.47-4.087,1.411
					c-1.207,0.941-2.05,2.184-2.527,3.728H318.775z"/>
			</g>
		</g>
		<g>
			<path d="M409.417,431.558c-0.955,1.18-1.994,2.197-3.117,3.054c-1.123,0.857-2.296,1.566-3.518,2.128s-2.472,0.976-3.749,1.242
				c-1.278,0.267-2.549,0.4-3.813,0.4c-2.5,0-4.845-0.449-7.035-1.348s-4.101-2.135-5.729-3.707
				c-1.629-1.573-2.921-3.427-3.875-5.562c-0.955-2.134-1.433-4.437-1.433-6.908c0-2.415,0.47-4.683,1.411-6.804
				c0.94-2.12,2.232-3.967,3.876-5.54c1.643-1.572,3.56-2.814,5.75-3.728c2.19-0.912,4.535-1.369,7.035-1.369
				c2.893,0,5.525,0.59,7.898,1.77c2.373,1.179,4.388,2.752,6.046,4.718l-4.416,4.508c-1.263-1.713-2.678-2.942-4.248-3.687
				s-3.322-1.116-5.257-1.116c-1.599,0-3.099,0.295-4.501,0.885c-1.401,0.59-2.628,1.397-3.68,2.422
				c-1.052,1.025-1.879,2.219-2.481,3.581c-0.604,1.362-0.904,2.815-0.904,4.36c0,1.573,0.301,3.04,0.904,4.402
				c0.602,1.362,1.429,2.563,2.479,3.602s2.277,1.854,3.679,2.443c1.4,0.59,2.9,0.885,4.498,0.885c1.513,0,2.941-0.28,4.287-0.843
				c1.345-0.562,2.55-1.306,3.615-2.232v-3.244h-6.909v-5.561h13.186V431.558z"/>
			<path d="M448.216,437.75h-7.19l-2.396-7.667c-0.252-0.843-0.567-1.614-0.945-2.317c-0.379-0.701-0.834-1.306-1.366-1.812
				c-0.532-0.505-1.169-0.898-1.912-1.179c-0.742-0.281-1.617-0.422-2.626-0.422h-2.438v13.396h-6.445v-33.659l13.288-0.042
				c1.43,0,2.762,0.246,3.995,0.737s2.299,1.173,3.195,2.043c0.896,0.871,1.598,1.896,2.103,3.075s0.757,2.458,0.757,3.833
				c0,0.983-0.153,1.938-0.46,2.865c-0.308,0.927-0.739,1.783-1.298,2.569c-0.559,0.787-1.221,1.481-1.987,2.086
				c-0.768,0.604-1.611,1.06-2.531,1.369c1.06,0.394,1.925,0.962,2.595,1.706s1.2,1.636,1.591,2.675
				c0.194,0.478,0.376,0.955,0.544,1.433c0.167,0.478,0.342,0.976,0.523,1.495s0.377,1.081,0.586,1.685
				c0.209,0.604,0.439,1.271,0.69,2.002c0.309,0.927,0.597,1.72,0.863,2.38S447.907,437.244,448.216,437.75z M439.707,414.201
				c0-0.786-0.147-1.502-0.442-2.148c-0.295-0.646-0.695-1.207-1.2-1.686c-0.506-0.477-1.103-0.849-1.791-1.116
				c-0.688-0.267-1.426-0.399-2.211-0.399h-4.719v10.489h4.719c0.785,0,1.522-0.119,2.211-0.358
				c0.688-0.238,1.285-0.582,1.791-1.032c0.505-0.448,0.905-0.989,1.2-1.622C439.559,415.696,439.707,414.987,439.707,414.201z"/>
			<path d="M495.145,420.899c0,2.416-0.471,4.69-1.41,6.824c-0.939,2.135-2.223,3.988-3.85,5.561
				c-1.627,1.573-3.52,2.816-5.68,3.729s-4.461,1.369-6.901,1.369c-2.44,0-4.748-0.457-6.922-1.369
				c-2.175-0.912-4.074-2.155-5.702-3.729c-1.627-1.572-2.91-3.418-3.85-5.539c-0.94-2.12-1.409-4.402-1.409-6.846
				s0.469-4.732,1.409-6.867c0.939-2.134,2.223-3.987,3.85-5.561c1.628-1.572,3.527-2.808,5.702-3.707
				c2.174-0.898,4.481-1.348,6.922-1.348c2.439,0,4.741,0.449,6.901,1.348c2.16,0.899,4.053,2.142,5.68,3.729s2.91,3.44,3.85,5.561
				C494.674,416.175,495.145,418.456,495.145,420.899z M488.615,420.899c0-1.544-0.295-2.998-0.887-4.36
				c-0.592-1.361-1.4-2.555-2.428-3.581c-1.025-1.024-2.229-1.839-3.607-2.443c-1.378-0.604-2.841-0.905-4.389-0.905
				c-1.576,0-3.054,0.302-4.432,0.905c-1.379,0.604-2.582,1.419-3.608,2.443c-1.027,1.026-1.836,2.22-2.428,3.581
				c-0.591,1.362-0.886,2.816-0.886,4.36c0,1.517,0.295,2.963,0.886,4.339c0.592,1.376,1.4,2.577,2.428,3.602
				c1.026,1.026,2.229,1.84,3.608,2.443c1.378,0.604,2.855,0.906,4.432,0.906c1.548,0,3.011-0.302,4.389-0.906
				c1.379-0.604,2.582-1.417,3.607-2.443c1.027-1.024,1.836-2.226,2.428-3.602S488.615,422.416,488.615,420.899z"/>
			<path d="M538.199,404.049v18.283c0,2.247-0.338,4.339-1.012,6.276s-1.65,3.63-2.928,5.076c-1.279,1.447-2.838,2.584-4.676,3.412
				c-1.84,0.828-3.939,1.243-6.299,1.243c-2.303,0-4.381-0.407-6.234-1.222s-3.434-1.931-4.74-3.35
				c-1.305-1.417-2.309-3.089-3.012-5.013c-0.701-1.923-1.053-3.995-1.053-6.214v-18.493h6.529v18.535
				c0,1.293,0.184,2.507,0.549,3.645c0.363,1.138,0.898,2.127,1.6,2.97c0.703,0.843,1.58,1.51,2.633,2.001
				c1.055,0.492,2.254,0.737,3.602,0.737c1.434,0,2.676-0.231,3.729-0.695c1.055-0.463,1.924-1.109,2.613-1.938
				c0.688-0.828,1.207-1.805,1.559-2.928c0.35-1.123,0.525-2.359,0.525-3.707v-18.62H538.199z"/>
			<path d="M575.732,415.381c0,1.601-0.303,3.096-0.908,4.486s-1.428,2.598-2.469,3.623c-1.043,1.025-2.268,1.826-3.674,2.401
				c-1.408,0.575-2.9,0.863-4.477,0.863h-5.576v10.995H552.1v-33.659h12.113c1.574,0,3.064,0.288,4.473,0.863
				c1.406,0.576,2.631,1.369,3.672,2.381c1.041,1.011,1.863,2.205,2.469,3.58C575.43,412.292,575.732,413.78,575.732,415.381z
				 M569.203,415.297c0-0.87-0.162-1.686-0.484-2.443c-0.322-0.759-0.766-1.418-1.326-1.98c-0.563-0.562-1.223-1.011-1.98-1.348
				s-1.572-0.506-2.443-0.506h-4.34v12.723h4.34c0.871,0,1.686-0.176,2.443-0.527c0.758-0.351,1.418-0.821,1.98-1.411
				c0.561-0.59,1.004-1.271,1.326-2.043C569.041,416.989,569.203,416.167,569.203,415.297z"/>
		</g>
	</g>
</g>
</svg>
