<svg xmlns="http://www.w3.org/2000/svg">
 <g>
  <g id="svg_1">
   <g id="g6" transform="matrix(0.587,0,0,0.676,-231.85,-104.67) ">
    <path fill="#21d0a5" d="m498,178.69c0,33.824 0,67.691 0,101.117c14,0 37.467,0.169 37.467,0.169l0.121,-72.744c4.601,2.701 9.398,4.697 12.184,7.172l0.442,64.596c0,0 8.786,0 13.786,0c0,-22 0,-46.221 0,-69.729c-8,-4.91 -17,-9.771 -26,-14.641c0,-2.206 0,-4.084 0,-6.053c-5,-2.371 -7.756,-4.671 -11.647,-7.019c-0.161,0.494 -0.228,0.597 -0.228,0.7l0.364,86.493c-3.986,0 -10.489,-0.086 -12.489,-0.086c0,-33.426 0,-63.474 0,-95.2c-12,-6.41 -22.093,-12.429 -32.512,-18.491c-0.083,0.049 0.512,0.098 -0.488,0.146l0,12.581c1,-0.078 0.54,-0.155 0.673,-0.233c6.398,3.782 13.327,7.397 18.327,11.222z" id="path2"/>
    <path fill="#21d0a5" d="m486,183.978c-2,-1.187 -4.792,-2.288 -6.705,-3.39c-0.105,0.065 0.705,0.129 -0.295,0.194l0,98.218c3,0 4,0 7,0l0,-95.022z" id="path4"/>
   </g>
   <g transform="matrix(0.58779342,0,0,0.67641394,-231.8544,-104.67469) ">
    <path fill="#21d0a5" d="m461,178.69c0,33.824 0,67.691 0,101.117c-14,0 -37.147,0.169 -37.147,0.169l0.04,-72.744c-4.601,2.701 -9.318,4.697 -12.104,7.172l-0.361,64.596c0,0 -9.428,0 -14.428,0c0,-22 0,-46.221 0,-69.729c8,-4.91 17,-9.771 26,-14.641c0,-2.206 0,-4.084 0,-6.053c5,-2.371 8.077,-4.671 11.968,-7.019c0.161,0.494 0.388,0.597 0.388,0.7l-0.605,86.493c3.986,0 10.249,-0.086 12.249,-0.086c0,-33.426 0,-63.474 0,-95.2c12,-6.41 22.093,-12.429 32.512,-18.491c0.083,0.049 0.488,0.098 0.488,0.146l0,12.581c0,-0.078 -0.54,-0.155 -0.674,-0.233c-6.397,3.782 -13.326,7.397 -18.326,11.222z" id="path8"/>
    <path fill="#21d0a5" d="m473,183.978c2,-1.187 4.792,-2.288 6.705,-3.39c0.105,0.065 0.295,0.129 0.295,0.194l0,98.218c-2,0 -4,0 -7,0l0,-95.022z" id="path10"/>
   </g>
  </g>
 </g>
</svg>