<?xml version="1.0" encoding="utf-8"?>
<!-- Generator: Adobe Illustrator 16.0.0, SVG Export Plug-In . SVG Version: 6.00 Build 0)  -->
<!DOCTYPE svg PUBLIC "-//W3C//DTD SVG 1.1//EN" "http://www.w3.org/Graphics/SVG/1.1/DTD/svg11.dtd">
<svg version="1.1" id="Layer_1" xmlns="http://www.w3.org/2000/svg" xmlns:xlink="http://www.w3.org/1999/xlink" x="0px" y="0px"
	 width="960px" height="560px" viewBox="0 0 960 560" enable-background="new 0 0 960 560" xml:space="preserve">
<g>
	<g>
		<path fill="#1E4276" d="M390.148,391.252h-14.063l-4.685-14.996c-0.493-1.646-1.109-3.158-1.849-4.531
			c-0.74-1.373-1.633-2.555-2.671-3.543c-1.042-0.988-2.288-1.758-3.74-2.307s-3.164-0.824-5.138-0.824h-4.767v26.201H340.63V325.42
			l25.99-0.082c2.796,0,5.401,0.48,7.813,1.44c2.412,0.962,4.496,2.294,6.25,3.997s3.125,3.707,4.11,6.014
			c0.986,2.307,1.481,4.807,1.481,7.498c0,1.924-0.302,3.791-0.901,5.604s-1.444,3.488-2.537,5.025
			c-1.092,1.539-2.387,2.898-3.887,4.078c-1.502,1.182-3.151,2.074-4.951,2.678c2.072,0.771,3.765,1.883,5.074,3.338
			c1.312,1.455,2.348,3.199,3.111,5.23c0.382,0.936,0.735,1.869,1.063,2.803c0.326,0.934,0.668,1.908,1.023,2.924
			c0.354,1.02,0.737,2.115,1.146,3.297c0.41,1.184,0.859,2.484,1.352,3.912c0.604,1.814,1.167,3.365,1.688,4.656
			C388.978,389.123,389.542,390.262,390.148,391.252z M373.506,345.193c0-1.537-0.289-2.938-0.865-4.201
			c-0.577-1.264-1.359-2.361-2.35-3.297c-0.988-0.934-2.155-1.66-3.502-2.184c-1.347-0.521-2.788-0.781-4.324-0.781h-9.229v20.516
			h9.229c1.536,0,2.979-0.234,4.324-0.701c1.347-0.465,2.514-1.139,3.502-2.018c0.989-0.879,1.771-1.938,2.35-3.174
			C373.217,348.119,373.506,346.732,373.506,345.193z"/>
		<path fill="#1E4276" d="M461.335,358.295c0,4.725-0.92,9.174-2.758,13.348c-1.839,4.176-4.348,7.801-7.529,10.875
			c-3.183,3.076-6.886,5.51-11.11,7.291c-4.225,1.785-8.723,2.68-13.496,2.68c-4.772,0-9.285-0.895-13.537-2.68
			c-4.252-1.781-7.969-4.215-11.151-7.291c-3.183-3.074-5.691-6.688-7.529-10.834s-2.756-8.609-2.756-13.389
			s0.918-9.256,2.756-13.432c1.838-4.174,4.348-7.799,7.529-10.875c3.184-3.076,6.899-5.492,11.151-7.251
			c4.252-1.757,8.764-2.638,13.537-2.638s9.271,0.881,13.496,2.638c4.226,1.759,7.928,4.188,11.11,7.292s5.69,6.729,7.529,10.875
			C460.415,349.053,461.335,353.516,461.335,358.295z M448.564,358.295c0-3.021-0.578-5.863-1.734-8.529
			c-1.155-2.662-2.737-4.996-4.746-7.002c-2.008-2.006-4.36-3.598-7.058-4.777c-2.697-1.182-5.558-1.771-8.585-1.771
			c-3.082,0-5.972,0.59-8.668,1.771c-2.695,1.182-5.049,2.771-7.057,4.777c-2.009,2.006-3.592,4.34-4.746,7.002
			c-1.156,2.666-1.733,5.51-1.733,8.529c0,2.965,0.577,5.795,1.733,8.486c1.154,2.691,2.737,5.039,4.746,7.043
			c2.008,2.006,4.36,3.6,7.057,4.779c2.696,1.182,5.586,1.771,8.668,1.771c3.027,0,5.889-0.59,8.585-1.771
			c2.696-1.18,5.05-2.773,7.058-4.779c2.009-2.004,3.591-4.352,4.746-7.043C447.986,364.09,448.564,361.26,448.564,358.295z"/>
		<path fill="#1E4276" d="M525.766,358.295c0,4.561-0.77,8.83-2.307,12.813c-1.539,3.982-3.682,7.471-6.428,10.465
			s-6.027,5.354-9.846,7.086c-3.818,1.729-7.979,2.594-12.482,2.594h-27.52v-65.914h27.52c4.504,0,8.664,0.879,12.482,2.637
			c3.816,1.76,7.1,4.119,9.846,7.086s4.889,6.455,6.428,10.465C524.996,349.533,525.766,353.791,525.766,358.295z M512.83,357.965
			c0.055-3.076-0.412-5.984-1.4-8.732c-0.988-2.746-2.418-5.15-4.285-7.209c-1.867-2.063-4.16-3.682-6.879-4.861
			c-2.719-1.182-5.781-1.771-9.188-1.771h-11.124v44.986h11.124c3.35,0,6.356-0.563,9.021-1.689c2.663-1.125,4.93-2.689,6.798-4.695
			c1.866-2.004,3.31-4.367,4.325-7.086C512.24,364.186,512.775,361.207,512.83,357.965z"/>
		<path fill="#1E4276" d="M544.305,391.252h-12.771V325.42h12.771V391.252z"/>
		<path fill="#1E4276" d="M612.771,379.387c-3.295,4.01-7.291,7.195-11.988,9.557c-4.694,2.361-9.873,3.543-15.531,3.543
			c-4.889,0-9.475-0.893-13.758-2.678c-4.285-1.783-8.014-4.215-11.184-7.291s-5.67-6.688-7.498-10.836
			c-1.828-4.145-2.742-8.609-2.742-13.389s0.914-9.24,2.742-13.389c1.828-4.146,4.328-7.771,7.498-10.875s6.898-5.534,11.184-7.293
			c4.283-1.757,8.869-2.637,13.758-2.637c5.658,0,10.837,1.183,15.531,3.543c4.697,2.361,8.61,5.438,11.741,9.229l-8.815,9.063
			c-2.032-2.91-4.655-5.26-7.868-7.045c-3.214-1.783-6.743-2.678-10.589-2.678c-3.075,0-5.973,0.59-8.69,1.771
			s-5.096,2.773-7.127,4.777c-2.033,2.006-3.642,4.34-4.819,7.004c-1.183,2.666-1.771,5.508-1.771,8.527
			c0,2.967,0.59,5.783,1.771,8.445c1.18,2.666,2.786,5,4.819,7.004c2.031,2.006,4.408,3.598,7.127,4.777
			c2.72,1.184,5.615,1.771,8.69,1.771c4.064,0,7.664-0.92,10.795-2.76s5.738-4.271,7.826-7.293L612.771,379.387z"/>
		<path fill="#1E4276" d="M673.082,325.338v35.758c0,4.396-0.658,8.486-1.978,12.275c-1.317,3.791-3.228,7.102-5.728,9.93
			c-2.5,2.83-5.547,5.055-9.145,6.674c-3.599,1.619-7.703,2.432-12.318,2.432c-4.504,0-8.567-0.797-12.192-2.391
			c-3.626-1.594-6.716-3.775-9.271-6.551c-2.555-2.771-4.52-6.041-5.892-9.805c-1.374-3.762-2.06-7.813-2.06-12.152v-36.17h12.771
			v36.252c0,2.527,0.354,4.902,1.07,7.127c0.713,2.227,1.758,4.16,3.131,5.811c1.373,1.646,3.09,2.953,5.149,3.914
			s4.408,1.439,7.045,1.439c2.802,0,5.23-0.453,7.291-1.357c2.061-0.906,3.763-2.172,5.107-3.791
			c1.346-1.619,2.361-3.527,3.049-5.727c0.688-2.197,1.03-4.615,1.03-7.252v-36.416H673.082L673.082,325.338z"/>
		<path fill="#1E4276" d="M723.672,373.949c0,2.471-0.535,4.818-1.607,7.045c-1.07,2.225-2.568,4.188-4.49,5.891
			s-4.201,3.064-6.838,4.078c-2.637,1.016-5.549,1.523-8.734,1.523c-2.855,0-5.424-0.164-7.702-0.494
			c-2.28-0.328-4.423-0.852-6.427-1.564c-2.006-0.713-3.928-1.635-5.769-2.76c-1.841-1.127-3.749-2.486-5.726-4.08l9.063-9.145
			c2.637,2.197,5.219,3.748,7.745,4.654s5.272,1.359,8.239,1.359c1.207,0,2.348-0.178,3.419-0.535
			c1.071-0.355,2.005-0.838,2.802-1.441c0.795-0.604,1.428-1.318,1.895-2.143c0.468-0.826,0.701-1.73,0.701-2.719
			c0-1.043-0.192-1.979-0.576-2.803c-0.387-0.822-1.071-1.619-2.061-2.391c-0.988-0.768-2.363-1.551-4.119-2.348
			c-1.76-0.795-4.012-1.689-6.757-2.678c-2.418-0.877-4.737-1.881-6.962-3.008c-2.225-1.125-4.176-2.484-5.852-4.078
			c-1.676-1.592-3.021-3.461-4.037-5.604c-1.016-2.143-1.523-4.668-1.523-7.58c0-2.801,0.563-5.383,1.689-7.744
			c1.125-2.361,2.664-4.381,4.613-6.058c1.948-1.674,4.229-2.979,6.84-3.913c2.606-0.933,5.422-1.4,8.443-1.4
			c5.055,0,9.311,0.66,12.771,1.979s6.537,3.241,9.229,5.768l-8.898,8.98c-1.647-1.592-3.487-2.814-5.52-3.666
			c-2.033-0.852-4.423-1.277-7.169-1.277c-1.265,0-2.431,0.193-3.501,0.576c-1.072,0.385-1.992,0.896-2.761,1.525
			c-0.771,0.631-1.388,1.373-1.854,2.225s-0.699,1.744-0.699,2.678c0,1.043,0.22,1.99,0.658,2.844
			c0.439,0.852,1.182,1.676,2.226,2.471c1.043,0.797,2.432,1.594,4.161,2.391s3.886,1.662,6.468,2.596
			c3.296,1.152,6.125,2.418,8.485,3.789c2.361,1.373,4.285,2.885,5.769,4.531c1.483,1.648,2.582,3.502,3.296,5.563
			C723.314,369.047,723.672,371.367,723.672,373.949z"/>
	</g>
	<g>
		<g>
			<path fill="#1E4276" d="M251.016,197.242c0,1.008,0.75,1.345,0.75,1.345v-2.689C251.766,195.897,251.016,196.234,251.016,197.242
				z"/>
			<g>
				<path fill="#1E4276" d="M300.507,355.941c-1.455-1.002-2.493-2.232-3.089-3.693c-0.893-2.189-1.405-4.729-1.405-7.621
					c0,2.895,0.499,5.432,1.392,7.621C297.999,353.709,299.047,354.939,300.507,355.941z"/>
			</g>
			<g>
				<path fill="#1E4276" d="M363.994,223.991c-9.587-7.888-22.063-11.89-37.434-11.89c15.37,0,27.778,4.002,37.365,11.89
					c9.587,7.891,14.312,18.429,14.312,31.563c0-13.135-4.795-23.673-14.381-31.563c9.586,7.891,14.381,18.43,14.381,31.563
					c0,0.105-0.004,0.208-0.004,0.313c-0.037,9.042-1.658,17.084-4.996,24.066c-0.633,1.325-1.311,2.605-2.031,3.843
					c-3.13,5.366-7.104,9.929-11.961,13.687c-5.899,4.627-12.364,8.008-19.428,10.154c-7.064,2.148-14.537,3.211-22.454,3.211
					c7.917,0,15.408-1.063,22.472-3.211c7.063-2.146,13.547-5.527,19.446-10.154c5.978-4.627,10.654-10.469,14.03-17.531
					c3.377-7.064,5.064-15.207,5.064-24.377C378.374,242.421,373.579,231.882,363.994,223.991z"/>
				<path fill="#1E4276" d="M365.836,221.753c-10.084-8.297-23.299-12.263-39.276-12.263h-78.562c0,0-6.003,1.384-6.003,6.707
					c0,5.322,3.603,7.695,6.003,7.888l2.836,0.174c2.019,0.159,4.498,0.439,7.322,0.88c2.694,0.422,5.467,1.127,8.219,2.125
					c1.996,0.813,3.564,1.875,4.029,3.258c0.657,1.959,1.361,4.217,1.361,6.725v126.886c0,2.672-0.773,4.826-1.577,6.41
					c-0.724,1.426-2.087,2.502-3.822,3.303c-0.621,0.293-2.381,0.859-6.589,1.352c-3.48,0.41-6.229,0.697-8.063,0.859l-3.695,0.443
					c0,0-6.014,1.328-6.014,6.652c0,5.32,3.597,7.791,5.998,7.982l77.719,0.117c2.399-0.197,6.002-2.848,6.002-8.305
					c0-5.459-6.003-6.822-6.003-6.822l-2.873-0.08c-2.819-0.078-5.952-0.359-9.376-0.84c-4.083-0.572-5.878-1.09-6.682-1.422
					c-2.032-0.84-3.334-1.922-3.898-3.309c-0.722-1.77-1.128-3.904-1.128-6.344V314.49h15.596c8.165,0,16.004-1.344,23.3-3.563
					c7.379-2.244,14.244-5.939,20.389-10.761c6.338-4.903,11.365-11.241,14.943-18.727s5.394-16.074,5.394-25.71
					C381.387,241.616,376.155,230.245,365.836,221.753z M295.766,307.49v56.641c0,3.322,0.567,6.316,1.622,8.896
					c1.219,2.994,3.661,5.262,7.22,6.73c1.636,0.678,4.24,1.27,8.05,1.801c2.499,0.354,4.965,0.605,7.065,0.754
					c0,0,0.771,0.283,0.771,1.318c0,1.033-0.729,1.295-0.729,1.295v0.025l-65.742,0.129c0,0-0.878-0.309-0.878-1.449
					c0-1.035,0.62-1.318,0.62-1.318v-0.01c3-0.158,4.364-0.492,6.443-0.732c3.937-0.461,6.639-1.057,8.329-1.855
					c2.953-1.359,5.534-3.422,6.906-6.127c1.284-2.527,2.321-5.709,2.321-9.455V237.247c0-3.241-0.806-6.23-1.693-8.887
					c-1.084-3.225-3.698-5.621-7.419-7.121l-0.182-0.037c-3.115-1.131-6.357-1.949-9.433-2.431
					c-1.782-0.277-3.518-0.504-5.019-0.677c0,0-1.623-0.139-1.623-1.303c0-1.162,1.603-1.301,1.603-1.301h72.561
					c14.612,0,26.588,3.723,35.592,11.129c8.89,7.316,13.211,16.785,13.211,28.983c0,8.616-1.594,16.313-4.738,22.889
					c-3.144,6.575-7.557,12.085-13.133,16.401c-5.58,4.377-11.799,7.546-18.484,9.58c-6.759,2.057-14.04,3.018-21.646,3.018H295.766
					z"/>
				<g>
					<path fill="#1E4276" d="M350.862,246.693c-1.137-5.29-3.136-9.992-5.936-13.965c-3.012-4.301-7.006-7.521-11.877-9.888
						c-4.802-2.329-10.784-3.35-17.784-3.35h-19.5v84h14.959c8.815,0,16.142-1.618,21.772-4.594
						c5.675-2.996,10.032-6.883,12.955-11.444c2.854-4.296,4.775-8.86,5.71-13.514c0.896-4.458,1.349-8.552,1.349-12.145
						C352.511,256.868,351.955,251.779,350.862,246.693z M340.487,283.77c-2.333,3.649-5.921,7.085-10.667,9.591
						c-4.792,2.532-11.217,4.13-19.095,4.13h-8.96v-72h13.5c6.131,0,11.273,1.031,15.284,2.977c3.937,1.912,7.148,4.643,9.554,8.076
						c2.295,3.258,3.938,7.157,4.887,11.566c0.993,4.618,1.496,9.221,1.496,13.666c0,3.143-0.408,6.776-1.214,10.793
						c-0.765,3.807-2.364,7.559-4.753,11.148L340.487,283.77z"/>
				</g>
			</g>
		</g>
		<path fill="#1E4276" d="M337.329,196.99c0,3.248-3.408,5.5-7.614,5.5h-85.771c-4.206,0-7.615-2.252-7.615-5.5l0,0
			c0-3.248,3.41-5.5,7.615-5.5h85.771C333.921,191.49,337.329,193.742,337.329,196.99L337.329,196.99z"/>
		<path fill="#1E4276" d="M337.329,403.99c0,3.25-3.408,5.5-7.614,5.5h-85.771c-4.206,0-7.615-2.25-7.615-5.5l0,0
			c0-3.248,3.41-5.5,7.615-5.5h85.771C333.921,398.49,337.329,400.742,337.329,403.99L337.329,403.99z"/>
	</g>
	<g>
		<path fill="#1E4276" d="M269.606,156.422h-9.468v28.319h-6.728v-28.319h-9.468v-5.912h25.663V156.422z"/>
		<path fill="#1E4276" d="M300.666,184.741h-6.641v-15.167H280.53v15.167h-6.641V150.51h6.641v13.581h13.495V150.51h6.641V184.741z"
			/>
		<path fill="#1E4276" d="M329.715,184.741h-22.622V150.51h22.622v5.483h-16.109v8.184H329.5v5.354h-15.895v9.426h16.109V184.741z"
			/>
	</g>
	<g>
		<path fill="#1E4276" d="M567.65,308.523c-1.115,1.379-2.332,2.57-3.645,3.572c-1.314,1.002-2.686,1.83-4.114,2.487
			c-1.429,0.656-2.89,1.142-4.384,1.453c-1.496,0.312-2.98,0.468-4.459,0.468c-2.924,0-5.666-0.525-8.229-1.576
			c-2.562-1.052-4.796-2.496-6.699-4.336c-1.904-1.838-3.416-4.006-4.533-6.502c-1.115-2.496-1.674-5.189-1.674-8.08
			c0-2.824,0.549-5.477,1.649-7.955c1.101-2.48,2.611-4.64,4.532-6.479s4.163-3.293,6.725-4.36c2.563-1.067,5.305-1.601,8.229-1.601
			c3.383,0,6.461,0.689,9.236,2.068c2.774,1.379,5.131,3.219,7.069,5.518l-5.164,5.271c-1.477-2.002-3.132-3.438-4.968-4.311
			c-1.837-0.87-3.887-1.306-6.146-1.306c-1.869,0-3.625,0.345-5.265,1.034c-1.639,0.688-3.073,1.635-4.304,2.832
			c-1.229,1.201-2.196,2.596-2.901,4.188c-0.704,1.595-1.058,3.294-1.058,5.099c0,1.84,0.353,3.558,1.058,5.148
			c0.703,1.594,1.671,2.998,2.9,4.213s2.661,2.168,4.301,2.857c1.64,0.688,3.394,1.033,5.26,1.033c1.771,0,3.441-0.328,5.015-0.984
			c1.574-0.656,2.981-1.527,4.229-2.611v-3.793h-8.08v-6.504h15.42V308.523L567.65,308.523z"/>
		<path fill="#1E4276" d="M603.17,315.766h-8.408l-2.801-8.967c-0.295-0.984-0.664-1.889-1.105-2.709
			c-0.443-0.82-0.977-1.527-1.598-2.119c-0.623-0.59-1.367-1.052-2.236-1.379c-0.867-0.328-1.893-0.492-3.07-0.492H581.1v15.666
			h-7.537v-39.363l15.54-0.049c1.672,0,3.229,0.288,4.671,0.862c1.443,0.575,2.688,1.372,3.738,2.39
			c1.048,1.018,1.867,2.217,2.459,3.596c0.589,1.379,0.885,2.875,0.885,4.482c0,1.149-0.18,2.268-0.539,3.352
			c-0.359,1.083-0.863,2.086-1.518,3.004c-0.652,0.92-1.428,1.733-2.324,2.439c-0.896,0.707-1.884,1.24-2.96,1.602
			c1.239,0.459,2.251,1.125,3.034,1.994c0.783,0.871,1.404,1.914,1.861,3.129c0.228,0.559,0.438,1.117,0.635,1.675
			c0.195,0.56,0.4,1.142,0.611,1.749c0.213,0.607,0.441,1.266,0.688,1.971c0.244,0.707,0.514,1.486,0.807,2.34
			c0.361,1.085,0.697,2.013,1.01,2.783C602.473,314.493,602.809,315.174,603.17,315.766z M593.219,288.227
			c0-0.92-0.172-1.758-0.518-2.514c-0.345-0.755-0.813-1.41-1.403-1.971c-0.591-0.559-1.29-0.993-2.095-1.307
			c-0.806-0.312-1.666-0.467-2.586-0.467h-5.519v12.267h5.519c0.92,0,1.78-0.14,2.586-0.418c0.805-0.279,1.504-0.683,2.095-1.207
			c0.591-0.525,1.06-1.158,1.403-1.896C593.047,289.975,593.219,289.146,593.219,288.227z"/>
		<path fill="#1E4276" d="M648.199,296.059c0,2.826-0.551,5.485-1.649,7.981s-2.601,4.664-4.502,6.502
			c-1.902,1.841-4.117,3.293-6.644,4.36c-2.527,1.066-5.217,1.602-8.07,1.602c-2.853,0-5.551-0.533-8.094-1.602
			c-2.543-1.067-4.766-2.521-6.668-4.36c-1.902-1.838-3.404-3.997-4.502-6.479c-1.1-2.479-1.647-5.147-1.647-8.005
			c0-2.858,0.549-5.534,1.647-8.03c1.098-2.496,2.6-4.663,4.502-6.503c1.902-1.839,4.125-3.284,6.668-4.335
			c2.543-1.051,5.24-1.576,8.094-1.576c2.854,0,5.543,0.525,8.07,1.576c2.525,1.051,4.74,2.504,6.644,4.358
			c1.903,1.855,3.403,4.023,4.502,6.504C647.648,290.534,648.199,293.202,648.199,296.059z M640.563,296.059
			c0-1.805-0.346-3.504-1.037-5.099c-0.691-1.593-1.638-2.987-2.838-4.188c-1.201-1.199-2.607-2.15-4.221-2.857
			c-1.611-0.706-3.322-1.06-5.133-1.06c-1.842,0-3.57,0.354-5.184,1.06c-1.611,0.707-3.019,1.658-4.22,2.857
			c-1.201,1.198-2.146,2.595-2.838,4.188c-0.691,1.595-1.037,3.294-1.037,5.099c0,1.773,0.346,3.467,1.037,5.074
			c0.69,1.61,1.637,3.015,2.838,4.213c1.201,1.199,2.606,2.151,4.22,2.856c1.612,0.707,3.342,1.06,5.184,1.06
			c1.811,0,3.521-0.353,5.133-1.06c1.611-0.705,3.02-1.657,4.221-2.856c1.2-1.198,2.146-2.603,2.838-4.213
			C640.217,299.525,640.563,297.833,640.563,296.059z"/>
		<path fill="#1E4276" d="M688.693,276.354v21.381c0,2.629-0.394,5.074-1.182,7.341c-0.789,2.267-1.93,4.245-3.424,5.937
			c-1.495,1.691-3.318,3.021-5.469,3.99c-2.151,0.969-4.606,1.453-7.365,1.453c-2.693,0-5.123-0.477-7.291-1.428
			c-2.168-0.953-4.016-2.258-5.543-3.918c-1.527-1.657-2.701-3.611-3.521-5.861c-0.822-2.25-1.232-4.672-1.232-7.268v-21.627h7.638
			v21.677c0,1.511,0.213,2.931,0.642,4.261c0.426,1.33,1.051,2.488,1.87,3.475c0.821,0.984,1.849,1.767,3.08,2.341
			c1.229,0.573,2.636,0.86,4.212,0.86c1.676,0,3.129-0.271,4.36-0.813c1.229-0.542,2.248-1.297,3.054-2.266
			c0.805-0.969,1.411-2.111,1.823-3.426c0.409-1.313,0.614-2.759,0.614-4.334v-21.775H688.693z"/>
		<path fill="#1E4276" d="M722.736,289.605c0,1.873-0.354,3.621-1.063,5.246c-0.708,1.627-1.672,3.039-2.889,4.238
			c-1.219,1.198-2.65,2.135-4.297,2.808c-1.647,0.673-3.392,1.01-5.234,1.01h-6.521v12.858h-7.636v-39.363h14.165
			c1.842,0,3.585,0.338,5.229,1.01c1.646,0.674,3.076,1.602,4.295,2.784c1.217,1.183,2.179,2.579,2.887,4.188
			C722.383,285.993,722.736,287.734,722.736,289.605z M715.1,289.508c0-1.018-0.189-1.971-0.566-2.856s-0.895-1.658-1.551-2.316
			c-0.658-0.655-1.43-1.182-2.316-1.575c-0.885-0.395-1.84-0.592-2.856-0.592h-5.073v14.879h5.073c1.019,0,1.972-0.205,2.856-0.615
			c0.888-0.411,1.658-0.961,2.316-1.65c0.656-0.689,1.174-1.486,1.551-2.391S715.1,290.525,715.1,289.508z"/>
	</g>
</g>
</svg>
