<?xml version="1.0" encoding="utf-8"?>
<!-- Generator: Adobe Illustrator 16.0.0, SVG Export Plug-In . SVG Version: 6.00 Build 0)  -->
<!DOCTYPE svg PUBLIC "-//W3C//DTD SVG 1.1//EN" "http://www.w3.org/Graphics/SVG/1.1/DTD/svg11.dtd">
<svg version="1.1" id="Layer_1" xmlns="http://www.w3.org/2000/svg" xmlns:xlink="http://www.w3.org/1999/xlink" x="0px" y="0px"
	 width="1000px" height="1000px" viewBox="0 0 1000 1000" enable-background="new 0 0 1000 1000" xml:space="preserve">
<rect fill="#1E4276" width="1000" height="1000"/>
<g>
	<g>
		<g>
			<path fill="#FFFFFF" d="M342.3,688.995h-24.683l-8.223-26.318c-0.865-2.893-1.948-5.543-3.245-7.954
				c-1.299-2.408-2.863-4.482-4.688-6.218c-1.828-1.735-4.015-3.085-6.564-4.049c-2.549-0.963-5.554-1.446-9.015-1.446h-8.367
				v45.985H255.39V573.452l45.615-0.145c4.908,0,9.479,0.846,13.713,2.531c4.234,1.688,7.89,4.026,10.97,7.014
				c3.078,2.989,5.484,6.507,7.217,10.556c1.731,4.05,2.599,8.438,2.599,13.16c0,3.375-0.529,6.651-1.582,9.833
				c-1.053,3.182-2.538,6.123-4.454,8.821c-1.916,2.7-4.189,5.086-6.822,7.158c-2.634,2.074-5.531,3.64-8.69,4.699
				c3.638,1.352,6.607,3.304,8.907,5.857c2.3,2.556,4.119,5.617,5.461,9.183c0.669,1.641,1.292,3.278,1.867,4.916
				c0.574,1.641,1.172,3.352,1.796,5.134c0.624,1.785,1.295,3.713,2.014,5.784c0.718,2.074,1.507,4.363,2.37,6.869
				c1.06,3.182,2.047,5.906,2.964,8.171C340.25,685.26,341.238,687.26,342.3,688.995z M313.089,608.159
				c0-2.698-0.506-5.156-1.519-7.375c-1.012-2.217-2.386-4.145-4.121-5.785c-1.735-1.638-3.785-2.914-6.146-3.832
				c-2.363-0.915-4.894-1.374-7.592-1.374h-16.196v36.008h16.196c2.698,0,5.229-0.409,7.592-1.229c2.361-0.818,4.411-2,6.146-3.543
				c1.735-1.541,3.109-3.398,4.121-5.567C312.583,613.292,313.089,610.858,313.089,608.159z"/>
			<path fill="#FFFFFF" d="M467.241,631.151c0,8.293-1.613,16.102-4.84,23.427c-3.227,7.328-7.63,13.69-13.216,19.089
				c-5.586,5.399-12.084,9.666-19.5,12.798c-7.416,3.131-15.31,4.699-23.687,4.699c-8.378,0-16.298-1.568-23.761-4.699
				c-7.463-3.132-13.986-7.398-19.572-12.798c-5.586-5.398-9.99-11.736-13.216-19.017c-3.227-7.277-4.837-15.111-4.837-23.499
				c0-8.387,1.611-16.243,4.837-23.571c3.227-7.325,7.63-13.688,13.216-19.088c5.585-5.398,12.108-9.64,19.572-12.726
				c7.463-3.085,15.383-4.628,23.761-4.628c8.376,0,16.271,1.543,23.687,4.628c7.416,3.086,13.914,7.353,19.5,12.798
				c5.585,5.447,9.989,11.811,13.216,19.088C465.627,614.933,467.241,622.765,467.241,631.151z M444.826,631.151
				c0-5.301-1.015-10.29-3.043-14.967c-2.029-4.675-4.806-8.771-8.331-12.292c-3.524-3.518-7.655-6.313-12.386-8.387
				c-4.731-2.072-9.754-3.109-15.067-3.109c-5.409,0-10.481,1.037-15.213,3.109c-4.731,2.074-8.862,4.869-12.387,8.387
				c-3.525,3.521-6.302,7.617-8.331,12.292c-2.029,4.677-3.041,9.666-3.041,14.967c0,5.206,1.012,10.173,3.041,14.895
				c2.029,4.725,4.806,8.847,8.331,12.364c3.525,3.521,7.655,6.315,12.387,8.388c4.731,2.074,9.804,3.109,15.213,3.109
				c5.313,0,10.335-1.035,15.067-3.109c4.731-2.072,8.862-4.867,12.386-8.388c3.525-3.518,6.302-7.64,8.331-12.364
				C443.812,641.324,444.826,636.357,444.826,631.151z"/>
			<path fill="#FFFFFF" d="M580.324,631.151c0,8.003-1.352,15.498-4.049,22.487c-2.7,6.99-6.46,13.111-11.28,18.365
				c-4.821,5.255-10.581,9.399-17.28,12.436c-6.702,3.037-14.005,4.556-21.908,4.556h-48.299V573.308h48.299
				c7.903,0,15.206,1.544,21.908,4.628c6.699,3.087,12.459,7.23,17.28,12.437c4.82,5.206,8.58,11.329,11.28,18.365
				C578.973,615.775,580.324,623.248,580.324,631.151z M557.62,630.573c0.096-5.398-0.723-10.507-2.458-15.329
				c-1.735-4.819-4.243-9.038-7.52-12.653c-3.278-3.615-7.303-6.457-12.075-8.531c-4.771-2.072-10.147-3.109-16.124-3.109h-19.521
				v78.957h19.521c5.88,0,11.158-0.988,15.835-2.965c4.675-1.975,8.651-4.723,11.931-8.243c3.276-3.518,5.807-7.664,7.592-12.436
				C556.583,641.491,557.523,636.263,557.62,630.573z"/>
			<path fill="#FFFFFF" d="M612.86,688.995h-22.415V573.452h22.415V688.995z"/>
			<path fill="#FFFFFF" d="M733.028,668.172c-5.784,7.038-12.798,12.63-21.04,16.774c-8.243,4.144-17.33,6.218-27.259,6.218
				c-8.582,0-16.63-1.568-24.149-4.699c-7.52-3.132-14.063-7.398-19.627-12.798c-5.563-5.398-9.95-11.736-13.159-19.017
				c-3.208-7.277-4.813-15.111-4.813-23.499c0-8.387,1.604-16.219,4.813-23.499c3.209-7.277,7.597-13.641,13.159-19.088
				c5.563-5.445,12.107-9.712,19.627-12.798c7.52-3.085,15.567-4.628,24.149-4.628c9.929,0,19.016,2.074,27.259,6.219
				c8.242,4.146,15.111,9.544,20.606,16.196l-15.473,15.906c-3.568-5.108-8.171-9.229-13.811-12.364
				c-5.64-3.131-11.835-4.699-18.582-4.699c-5.4,0-10.484,1.037-15.256,3.109c-4.772,2.074-8.943,4.869-12.509,8.387
				c-3.568,3.521-6.388,7.617-8.46,12.292c-2.074,4.677-3.109,9.666-3.109,14.967c0,5.206,1.035,10.147,3.109,14.822
				c2.072,4.678,4.892,8.774,8.46,12.292c3.565,3.521,7.736,6.315,12.509,8.388c4.771,2.074,9.855,3.108,15.256,3.108
				c7.133,0,13.448-1.613,18.943-4.844c5.495-3.229,10.073-7.495,13.738-12.798L733.028,668.172z"/>
			<path fill="#FFFFFF" d="M838.882,573.308v62.761c0,7.714-1.157,14.895-3.471,21.547c-2.313,6.651-5.664,12.461-10.05,17.425
				c-4.389,4.967-9.739,8.871-16.052,11.714c-6.315,2.842-13.521,4.266-21.619,4.266c-7.906,0-15.039-1.398-21.402-4.193
				c-6.362-2.795-11.785-6.627-16.269-11.497c-4.482-4.866-7.931-10.604-10.339-17.208c-2.411-6.603-3.615-13.713-3.615-21.33
				v-63.483h22.414v63.628c0,4.436,0.626,8.604,1.88,12.509c1.252,3.904,3.084,7.303,5.495,10.195
				c2.408,2.892,5.423,5.184,9.038,6.869c3.615,1.688,7.736,2.53,12.364,2.53c4.916,0,9.183-0.795,12.798-2.386
				s6.603-3.808,8.966-6.652c2.361-2.843,4.144-6.193,5.351-10.05c1.204-3.855,1.808-8.099,1.808-12.726v-63.918H838.882z"/>
			<path fill="#FFFFFF" d="M927.672,658.627c0,4.339-0.94,8.46-2.82,12.364s-4.508,7.353-7.881,10.34
				c-3.376,2.989-7.375,5.375-12.003,7.158c-4.627,1.782-9.738,2.675-15.328,2.675c-5.014,0-9.521-0.289-13.521-0.867
				c-4.001-0.579-7.761-1.494-11.279-2.748c-3.521-1.252-6.894-2.867-10.122-4.844c-3.231-1.976-6.58-4.361-10.051-7.158
				l15.907-16.052c4.627,3.856,9.158,6.579,13.593,8.17c4.434,1.591,9.255,2.387,14.461,2.387c2.12,0,4.122-0.313,6.002-0.94
				c1.88-0.626,3.518-1.469,4.916-2.53c1.396-1.06,2.506-2.314,3.326-3.76c0.818-1.446,1.229-3.037,1.229-4.772
				c0-1.83-0.339-3.471-1.013-4.917c-0.676-1.446-1.88-2.842-3.615-4.193c-1.735-1.349-4.146-2.723-7.23-4.121
				c-3.086-1.396-7.038-2.965-11.857-4.7c-4.243-1.541-8.315-3.301-12.22-5.278c-3.904-1.975-7.327-4.36-10.268-7.158
				c-2.941-2.795-5.303-6.073-7.085-9.833c-1.785-3.76-2.676-8.193-2.676-13.304c0-4.917,0.987-9.447,2.965-13.594
				c1.975-4.144,4.675-7.687,8.098-10.629c3.421-2.939,7.423-5.229,12.003-6.869c4.577-1.638,9.52-2.458,14.822-2.458
				c8.868,0,16.341,1.157,22.414,3.471c6.074,2.313,11.472,5.689,16.196,10.123l-15.617,15.762
				c-2.893-2.795-6.124-4.939-9.689-6.435c-3.567-1.494-7.761-2.242-12.581-2.242c-2.219,0-4.266,0.34-6.146,1.013
				c-1.88,0.676-3.495,1.568-4.845,2.676c-1.351,1.109-2.436,2.41-3.254,3.904c-0.819,1.495-1.229,3.062-1.229,4.699
				c0,1.833,0.384,3.496,1.156,4.989c0.771,1.496,2.072,2.941,3.905,4.338c1.83,1.399,4.266,2.798,7.303,4.194
				c3.036,1.398,6.818,2.917,11.352,4.555c5.784,2.024,10.748,4.243,14.895,6.652c4.144,2.411,7.52,5.062,10.123,7.953
				c2.603,2.893,4.53,6.146,5.784,9.762C927.044,650.023,927.672,654.097,927.672,658.627z"/>
		</g>
		<g>
			<g>
				<path fill="#FFFFFF" d="M98.685,348.487c0,1.771,1.315,2.361,1.315,2.361v-4.72C100,346.127,98.685,346.718,98.685,348.487z"/>
				<g>
					<path fill="#FFFFFF" d="M184.968,627.022c-2.553-1.758-4.375-3.918-5.419-6.483c-1.567-3.842-2.469-8.298-2.469-13.374
						c0,5.076,0.876,9.532,2.442,13.374C180.568,623.104,182.405,625.265,184.968,627.022z"/>
				</g>
				<g>
					<path fill="#FFFFFF" d="M259.509,503.516c4.631-6.961,7.696-14.17,9.196-21.641c1.014-5.048,1.677-9.742,2.003-14.099
						c0.158-2.083,0.246-4.097,0.246-6.023c0-8.264-0.92-16.667-2.761-25.223c-1.265-5.887-3.16-11.262-5.686-16.119
						c-1.14-2.211-2.409-4.315-3.814-6.311c-4.771-6.815-11.036-12.873-18.803-16.645c-7.765-3.769-17.441-6.455-29.02-6.455H184
						v137h18.901c14.715,0,26.668-1.945,35.865-6.807C247.963,516.338,254.876,510.767,259.509,503.516z"/>
					<path fill="#FFFFFF" d="M296.396,395.435c-16.827-13.843-38.725-20.867-65.701-20.867c26.977,0,48.753,7.024,65.579,20.867
						c16.825,13.849,25.119,32.345,25.119,55.398c0-23.054-8.415-41.549-25.24-55.398c16.825,13.849,25.24,32.346,25.24,55.398
						c0,0.184-0.007,0.364-0.008,0.547c-0.064,15.87-2.91,29.984-8.769,42.239c-1.111,2.324-2.3,4.573-3.563,6.745
						c-5.494,9.418-12.472,17.426-20.994,24.02c-10.354,8.122-21.702,14.057-34.099,17.823c-12.398,3.772-25.514,5.636-39.409,5.636
						c13.896,0,27.042-1.863,39.44-5.636c12.396-3.767,23.774-9.701,34.129-17.823c10.49-8.119,18.7-18.372,24.625-30.768
						c5.927-12.398,8.891-26.69,8.891-42.784C321.636,427.781,313.221,409.284,296.396,395.435z"/>
					<path fill="#FFFFFF" d="M299.63,391.515C281.932,376.953,258.736,370,230.694,370H92.811c0,0-10.535,2.421-10.535,11.764
						c0,9.341,6.321,13.501,10.535,13.84l4.978,0.303c3.542,0.279,7.895,0.77,12.851,1.542c4.729,0.74,9.595,1.979,14.426,3.729
						c3.503,1.428,6.495,3.291,7.309,5.717c1.153,3.44,2.626,7.403,2.626,11.803v222.698c0,4.689-1.594,8.472-3.005,11.25
						c-1.27,2.504-3.783,4.394-6.827,5.797c-1.091,0.516-4.239,1.51-11.624,2.372c-6.11,0.719-10.965,1.224-14.182,1.509l-6.5,0.777
						c0,0-10.562,2.333-10.562,11.676c0,9.342,6.31,13.675,10.523,14.014l136.404,0.206c4.213-0.347,10.533-4.998,10.533-14.576
						c0-9.581-10.538-11.974-10.538-11.974l-5.041-0.141c-4.948-0.137-10.447-0.631-16.456-1.476
						c-7.166-1.005-10.316-1.911-11.726-2.494c-3.568-1.474-5.941-3.374-6.931-5.805c-1.267-3.107-2.07-6.854-2.07-11.136V554
						h27.551c14.329,0,28.088-2.223,40.894-6.115c12.951-3.94,24.999-10.359,35.783-18.818
						c11.124-8.607,19.948-19.698,26.229-32.834c6.28-13.138,9.465-28.19,9.465-45.103
						C326.922,426.356,317.739,406.419,299.63,391.515z M177,542v99.396c0,5.831,0.821,11.086,2.67,15.61
						c2.139,5.257,6.336,9.235,12.583,11.816c2.871,1.189,7.397,2.225,14.085,3.161c4.386,0.616,8.692,1.059,12.378,1.321
						c0,0,1.459,0.498,1.459,2.315c0,1.813-1.175,2.272-1.175,2.272v0.043l-115.5,0.228c0,0-1.565-0.541-1.565-2.543
						c0-1.817,1.064-2.315,1.064-2.315v-0.016c5-0.277,7.627-0.864,11.277-1.289c6.908-0.808,11.633-1.851,14.6-3.257
						c5.183-2.386,9.677-6.006,12.085-10.753c2.254-4.437,4.038-10.019,4.038-16.595V418.699c0-5.688-1.385-10.936-2.945-15.596
						c-1.902-5.66-6.476-9.867-13.007-12.499l-0.313-0.064c-5.468-1.986-11.154-3.423-16.551-4.267
						c-3.128-0.487-6.173-0.884-8.806-1.188c0,0-2.847,0-2.847-2.042c0-2.042,2.813-2.042,2.813-2.042h127.351
						c25.647,0,46.665,6.291,62.469,19.291c15.603,12.839,23.186,29.338,23.186,50.747c0,15.122-2.797,28.57-8.314,40.111
						c-5.518,11.54-13.264,21.18-23.051,28.756c-9.794,7.682-20.71,13.235-32.444,16.806C240.678,540.32,227.898,542,214.551,542
						H177z"/>
					<g>
						<path fill="#1E4276" d="M254.464,417.516c-4.22-6.025-9.858-10.903-16.768-14.258c-7.037-3.414-16.063-5.258-26.825-5.258H187
							v127h15.901c13.827,0,25.104-3.088,33.515-7.531c8.33-4.398,14.629-10.231,18.723-16.642l0.057-0.325
							c4.192-6.301,6.999-13.003,8.342-19.683c1.414-7.051,2.13-13.482,2.13-18.998c0-7.802-0.883-15.896-2.626-24.001
							C261.377,430.081,258.492,423.235,254.464,417.516z"/>
						<path fill="#FFFFFF" d="M273.348,435.279c-1.996-9.284-5.504-17.537-10.418-24.51c-5.285-7.548-12.297-12.968-20.846-17.121
							c-8.426-4.088-18.928-5.648-31.213-5.648H177v147h25.901c15.473,0,28.331-2.857,38.215-8.08
							c9.959-5.259,17.607-12.087,22.737-20.095c5.01-7.54,8.38-15.556,10.021-23.723c1.569-7.823,2.365-15.012,2.365-21.316
							C276.24,453.14,275.267,444.206,273.348,435.279z M255.139,500.353c-4.094,6.407-10.393,12.718-18.723,17.116
							c-8.411,4.443-19.688,7.531-33.515,7.531H187V398h23.871c10.762,0,19.788,1.844,26.825,5.258
							c6.909,3.355,12.548,8.164,16.768,14.19c4.028,5.718,6.913,12.57,8.577,20.31c1.743,8.104,2.626,16.186,2.626,23.988
							c0,5.516-0.716,11.896-2.13,18.945c-1.343,6.681-4.149,13.268-8.342,19.568L255.139,500.353z"/>
					</g>
					<path fill="#1E4276" d="M293.163,400.291c-15.804-13-36.821-19.291-62.469-19.291H103.344c0,0-2.83,0-2.83,2.042
						c0,2.042,2.83,2.202,2.83,2.202c2.635,0.306,5.643,0.623,8.771,1.109c5.397,0.842,11.016,2.24,16.483,4.226l0.177,0.043
						c6.53,2.633,11.378,6.83,13.281,12.49c1.56,4.66,2.945,9.898,2.945,15.586v222.698c0,6.576-1.744,12.158-3.996,16.595
						c-2.406,4.747-6.583,8.367-11.765,10.753c-2.969,1.406-7.917,2.449-14.825,3.257c-3.65,0.425-6.415,1.012-11.415,1.289v0.016
						c0,0-1.144,0.498-1.144,2.315c0,2.002,1.557,2.543,1.557,2.543L219,677.937v-0.043c0,0,1.16-0.459,1.16-2.272
						c0-1.817-1.394-2.315-1.394-2.315c-3.688-0.263-8.059-0.705-12.445-1.321c-6.688-0.937-11.288-1.972-14.16-3.161
						c-6.244-2.581-10.339-6.56-12.479-11.816c-1.848-4.524-2.681-9.779-2.681-15.61V542h37.551c13.348,0,26.127-1.701,37.988-5.311
						c11.734-3.566,22.65-9.156,32.444-16.84c9.787-7.574,17.533-17.248,23.051-28.788c5.518-11.539,8.314-24.903,8.314-40.027
						C316.349,429.626,308.766,413.13,293.163,400.291z M273.875,483.063c-1.642,8.169-5.012,16.142-10.021,23.682
						c-5.13,8.01-12.778,14.917-22.737,20.176c-9.884,5.223-22.742,8.08-38.215,8.08H177V388h33.871
						c12.285,0,22.787,1.561,31.213,5.648c8.549,4.153,15.561,9.771,20.846,17.32c4.914,6.972,8.422,15.126,10.418,24.409
						c1.919,8.926,2.893,17.792,2.893,26.437C276.24,468.12,275.444,475.24,273.875,483.063z"/>
				</g>
			</g>
			<path fill="#FFFFFF" d="M249.597,348c0,5.702-5.983,10-13.365,10H85.693c-7.381,0-13.365-4.298-13.365-10l0,0
				c0-5.701,5.984-10,13.365-10h150.538C243.613,338,249.597,342.299,249.597,348L249.597,348z"/>
			<path fill="#FFFFFF" d="M249.597,711.5c0,5.703-5.983,9.5-13.365,9.5H85.693c-7.381,0-13.365-3.797-13.365-9.5l0,0
				c0-5.703,5.984-9.5,13.365-9.5h150.538C243.613,702,249.597,705.797,249.597,711.5L249.597,711.5z"/>
		</g>
		<g>
			<path fill="#FFFFFF" d="M130.734,276.843h-16.618v49.704h-11.806v-49.704H85.692v-10.377h45.042V276.843z"/>
			<path fill="#FFFFFF" d="M185.249,326.547h-11.656v-26.619h-23.686v26.619h-11.655v-60.081h11.655v23.837h23.686v-23.837h11.656
				V326.547z"/>
			<path fill="#FFFFFF" d="M236.231,326.547h-39.703v-60.081h39.703v9.625h-28.273v14.363h27.897v9.398h-27.897v16.542h28.273
				V326.547z"/>
		</g>
		<g>
			<path fill="#FFFFFF" d="M653.836,543.799c-1.961,2.422-4.094,4.512-6.398,6.27c-2.307,1.759-4.713,3.214-7.221,4.366
				c-2.507,1.153-5.073,2.004-7.695,2.551c-2.623,0.547-5.231,0.821-7.825,0.821c-5.131,0-9.943-0.923-14.439-2.767
				c-4.496-1.845-8.417-4.38-11.76-7.609c-3.344-3.228-5.996-7.032-7.955-11.413c-1.96-4.38-2.939-9.107-2.939-14.181
				c0-4.957,0.965-9.611,2.896-13.964c1.931-4.353,4.583-8.142,7.955-11.371c3.372-3.228,7.307-5.778,11.803-7.652
				c4.496-1.873,9.309-2.81,14.439-2.81c5.937,0,11.341,1.21,16.213,3.631c4.87,2.421,9.006,5.65,12.407,9.684l-9.063,9.252
				c-2.59-3.516-5.496-6.037-8.719-7.565c-3.224-1.526-6.819-2.292-10.79-2.292c-3.28,0-6.359,0.605-9.237,1.816
				c-2.878,1.21-5.395,2.868-7.554,4.972c-2.159,2.104-3.855,4.555-5.094,7.35c-1.237,2.797-1.854,5.779-1.854,8.949
				c0,3.229,0.617,6.24,1.854,9.036c1.236,2.796,2.934,5.261,5.091,7.393c2.156,2.133,4.674,3.805,7.55,5.015
				c2.875,1.211,5.953,1.816,9.231,1.816c3.106,0,6.039-0.576,8.801-1.729c2.76-1.152,5.234-2.681,7.42-4.583v-6.658h-14.181
				v-11.413h27.064V543.799z"/>
			<path fill="#FFFFFF" d="M716.177,556.51h-14.759l-4.917-15.736c-0.518-1.729-1.164-3.314-1.939-4.756
				c-0.777-1.44-1.712-2.681-2.804-3.719c-1.093-1.037-2.4-1.844-3.925-2.421c-1.524-0.575-3.321-0.864-5.391-0.864h-5.003v27.496
				H664.21v-69.086l27.275-0.086c2.934,0,5.667,0.505,8.199,1.513c2.531,1.009,4.718,2.408,6.559,4.194
				c1.841,1.787,3.279,3.891,4.315,6.312c1.035,2.421,1.554,5.045,1.554,7.869c0,2.018-0.316,3.977-0.945,5.879
				c-0.63,1.902-1.518,3.661-2.663,5.274c-1.146,1.615-2.505,3.041-4.079,4.28c-1.575,1.24-3.307,2.177-5.196,2.811
				c2.176,0.808,3.951,1.975,5.326,3.502s2.463,3.358,3.266,5.49c0.399,0.98,0.772,1.96,1.116,2.939
				c0.343,0.981,0.701,2.004,1.073,3.07c0.373,1.067,0.774,2.22,1.204,3.458c0.43,1.24,0.901,2.609,1.417,4.107
				c0.634,1.902,1.225,3.531,1.772,4.886S715.541,555.473,716.177,556.51z M698.71,508.175c0-1.612-0.303-3.083-0.907-4.409
				c-0.605-1.325-1.427-2.478-2.465-3.459c-1.037-0.979-2.263-1.742-3.675-2.291c-1.413-0.547-2.926-0.821-4.539-0.821h-9.685v21.53
				h9.685c1.613,0,3.126-0.245,4.539-0.735c1.412-0.489,2.638-1.195,3.675-2.118c1.038-0.922,1.859-2.032,2.465-3.329
				C698.407,511.245,698.71,509.79,698.71,508.175z"/>
			<path fill="#FFFFFF" d="M795.206,521.924c0,4.958-0.965,9.627-2.894,14.007c-1.93,4.382-4.563,8.187-7.902,11.414
				c-3.34,3.229-7.226,5.779-11.659,7.652c-4.435,1.872-9.155,2.81-14.163,2.81c-5.01,0-9.745-0.938-14.208-2.81
				c-4.462-1.873-8.362-4.424-11.702-7.652c-3.34-3.228-5.973-7.018-7.902-11.371c-1.93-4.352-2.893-9.035-2.893-14.05
				c0-5.016,0.963-9.713,2.893-14.095c1.93-4.38,4.563-8.185,7.902-11.413c3.34-3.228,7.24-5.764,11.702-7.609
				c4.463-1.844,9.198-2.767,14.208-2.767c5.008,0,9.729,0.923,14.163,2.767c4.434,1.846,8.319,4.396,11.659,7.652
				c3.34,3.258,5.973,7.062,7.902,11.414C794.241,512.226,795.206,516.908,795.206,521.924z M781.804,521.924
				c0-3.17-0.606-6.153-1.819-8.949c-1.214-2.796-2.874-5.245-4.981-7.35s-4.577-3.775-7.406-5.016
				c-2.829-1.239-5.833-1.859-9.009-1.859c-3.234,0-6.268,0.62-9.097,1.859c-2.829,1.24-5.299,2.911-7.406,5.016
				s-3.769,4.554-4.981,7.35s-1.818,5.779-1.818,8.949c0,3.112,0.605,6.082,1.818,8.905c1.213,2.825,2.874,5.289,4.981,7.394
				s4.577,3.775,7.406,5.015c2.829,1.24,5.862,1.859,9.097,1.859c3.176,0,6.18-0.619,9.009-1.859
				c2.829-1.239,5.299-2.91,7.406-5.015s3.768-4.568,4.981-7.394C781.197,528.006,781.804,525.036,781.804,521.924z"/>
			<path fill="#FFFFFF" d="M866.281,487.337v37.526c0,4.612-0.692,8.906-2.075,12.884c-1.384,3.977-3.388,7.45-6.01,10.419
				c-2.624,2.97-5.823,5.304-9.598,7.004c-3.776,1.699-8.085,2.551-12.927,2.551c-4.728,0-8.992-0.837-12.797-2.508
				s-7.047-3.963-9.728-6.874c-2.681-2.91-4.742-6.341-6.183-10.29c-1.441-3.947-2.161-8.199-2.161-12.753v-37.959h13.402v38.045
				c0,2.652,0.374,5.145,1.124,7.479c0.748,2.335,1.844,4.366,3.285,6.096c1.44,1.729,3.243,3.1,5.404,4.107
				c2.162,1.009,4.626,1.513,7.393,1.513c2.94,0,5.491-0.476,7.652-1.427c2.162-0.951,3.948-2.276,5.361-3.978
				c1.412-1.699,2.478-3.703,3.199-6.009c0.72-2.305,1.081-4.842,1.081-7.609v-38.218H866.281z"/>
			<path fill="#FFFFFF" d="M926.028,510.597c0,3.285-0.621,6.354-1.864,9.208s-2.934,5.333-5.07,7.437
				c-2.138,2.104-4.652,3.748-7.54,4.929c-2.891,1.182-5.953,1.772-9.188,1.772h-11.442v22.567h-13.402v-69.086h24.86
				c3.233,0,6.293,0.592,9.182,1.772c2.888,1.182,5.399,2.81,7.536,4.885c2.136,2.075,3.825,4.526,5.066,7.35
				C925.407,504.256,926.028,507.311,926.028,510.597z M912.626,510.424c0-1.786-0.332-3.459-0.994-5.016
				c-0.663-1.557-1.571-2.91-2.724-4.063c-1.154-1.152-2.508-2.075-4.064-2.768c-1.556-0.691-3.229-1.037-5.015-1.037h-8.906v26.112
				h8.906c1.786,0,3.459-0.359,5.015-1.08c1.557-0.721,2.91-1.687,4.064-2.897c1.152-1.21,2.061-2.607,2.724-4.193
				C912.294,513.896,912.626,512.211,912.626,510.424z"/>
		</g>
	</g>
</g>
</svg>
