<?xml version="1.0" encoding="UTF-8" standalone="no"?>
<svg
   xmlns:dc="http://purl.org/dc/elements/1.1/"
   xmlns:cc="http://creativecommons.org/ns#"
   xmlns:rdf="http://www.w3.org/1999/02/22-rdf-syntax-ns#"
   xmlns:svg="http://www.w3.org/2000/svg"
   xmlns="http://www.w3.org/2000/svg"
   viewBox="0 0 1280 746.66669"
   height="746.66669"
   width="1280"
   xml:space="preserve"
   id="svg2"
   version="1.1"><metadata
     id="metadata8"><rdf:RDF><cc:Work
         rdf:about=""><dc:format>image/svg+xml</dc:format><dc:type
           rdf:resource="http://purl.org/dc/dcmitype/StillImage" /></cc:Work></rdf:RDF></metadata><defs
     id="defs6"><clipPath
       id="clipPath26"
       clipPathUnits="userSpaceOnUse"><path
         id="path24"
         d="M 0,560 H 960 V 0 H 0 Z" /></clipPath></defs><g
     transform="matrix(1.3333333,0,0,-1.3333333,0,746.66667)"
     id="g10"><path
       id="path12"
       style="fill:#f2f2f2;fill-opacity:1;fill-rule:nonzero;stroke:none"
       d="M 0,0 H 960 V 560 H 0 Z" /><path
       id="path14"
       style="fill:#1e4276;fill-opacity:1;fill-rule:nonzero;stroke:none"
       d="M 0,0 H 960 V 560 H 0 Z" /><text
       id="text18"
       style="font-variant:normal;font-weight:500;font-stretch:normal;font-size:82.39289856px;font-family:'Keep Calm Med';-inkscape-font-specification:KeepCalm-Medium;writing-mode:lr-tb;fill:#ffffff;fill-opacity:1;fill-rule:nonzero;stroke:none"
       transform="matrix(1,0,0,-1,335.2734,166.2393)"><tspan
         id="tspan16"
         y="0"
         x="0 53.308205 126.5555 190.90434 211.91454 274.69794 339.04678">RODICUS</tspan></text>
<g
       id="g20"><g
         clip-path="url(#clipPath26)"
         id="g22"><g
           transform="translate(252.2505,360.2485)"
           id="g28"><path
             id="path30"
             style="fill:#ffffff;fill-opacity:1;fill-rule:nonzero;stroke:none"
             d="M 0,0 C 0,-1.009 0.75,-1.345 0.75,-1.345 V 1.344 C 0.75,1.344 0,1.008 0,0" /></g><g
           transform="translate(301.7412,201.5488)"
           id="g32"><path
             id="path34"
             style="fill:#ffffff;fill-opacity:1;fill-rule:nonzero;stroke:none"
             d="m 0,0 c -1.455,1.001 -2.493,2.232 -3.088,3.694 -0.892,2.188 -1.406,4.728 -1.406,7.621 0,-2.893 0.499,-5.433 1.391,-7.621 C -2.507,2.232 -1.46,1.001 0,0" /></g><g
           transform="translate(344.2119,271.9189)"
           id="g36"><path
             id="path38"
             style="fill:#ffffff;fill-opacity:1;fill-rule:nonzero;stroke:none"
             d="m 0,0 c 2.638,3.966 4.385,8.074 5.24,12.33 0.577,2.876 0.955,5.551 1.141,8.033 0.09,1.187 0.14,2.335 0.14,3.432 0,4.708 -0.524,9.496 -1.573,14.371 -0.72,3.355 -1.801,6.417 -3.24,9.184 -0.648,1.26 -1.372,2.459 -2.173,3.596 -2.718,3.883 -6.287,7.322 -10.713,9.471 -4.424,2.146 -9.937,3.664 -16.534,3.664 h -15.5 v -78 h 10.959 c 8.384,0 15.194,1.093 20.435,3.862 C -6.579,-7.29 -2.64,-4.131 0,0" /></g><g
           transform="translate(365.2285,333.499)"
           id="g40"><path
             id="path42"
             style="fill:#ffffff;fill-opacity:1;fill-rule:nonzero;stroke:none"
             d="m 0,0 c -9.587,7.887 -22.064,11.889 -37.434,11.889 15.37,0 27.778,-4.002 37.365,-11.889 9.586,-7.891 14.311,-18.429 14.311,-31.564 0,13.135 -4.794,23.673 -14.381,31.564 9.587,-7.891 14.381,-18.43 14.381,-31.564 0,-0.105 -0.003,-0.207 -0.004,-0.312 -0.037,-9.042 -1.658,-17.083 -4.996,-24.066 -0.633,-1.324 -1.31,-2.605 -2.031,-3.843 -3.13,-5.367 -7.106,-9.928 -11.961,-13.686 -5.9,-4.627 -12.365,-8.008 -19.428,-10.155 -7.064,-2.149 -14.537,-3.211 -22.454,-3.211 7.917,0 15.407,1.062 22.471,3.211 7.063,2.147 13.546,5.528 19.446,10.155 5.977,4.626 10.654,10.469 14.03,17.531 3.377,7.064 5.066,15.207 5.066,24.376 C 14.381,-18.43 9.586,-7.891 0,0" /></g><g
           transform="translate(297,250)"
           id="g44"><path
             id="path46"
             style="fill:#ffffff;fill-opacity:1;fill-rule:nonzero;stroke:none"
             d="m 0,0 v -56.641 c 0,-3.322 0.568,-6.317 1.622,-8.895 1.219,-2.994 3.661,-5.26 7.22,-6.731 1.636,-0.678 4.24,-1.268 8.05,-1.802 2.499,-0.351 4.965,-0.603 7.065,-0.752 0,0 0.772,-0.284 0.772,-1.319 0,-1.034 -0.729,-1.296 -0.729,-1.296 v -0.024 l -65.742,-0.13 c 0,0 -0.878,0.309 -0.878,1.45 0,1.035 0.62,1.319 0.62,1.319 v 0.008 c 3,0.159 4.365,0.492 6.444,0.735 3.936,0.46 6.639,1.054 8.329,1.856 2.953,1.359 5.534,3.422 6.906,6.126 1.284,2.528 2.321,5.708 2.321,9.455 V 70.244 c 0,3.241 -0.805,6.231 -1.693,8.886 -1.084,3.225 -3.698,5.622 -7.419,7.122 l -0.182,0.037 c -3.116,1.131 -6.357,1.95 -9.432,2.431 -1.782,0.277 -3.518,0.504 -5.019,0.677 0,0 -1.623,0.138 -1.623,1.302 0,1.163 1.603,1.301 1.603,1.301 h 72.559 c 14.613,0 26.588,-3.722 35.593,-11.129 8.889,-7.316 13.21,-16.785 13.21,-28.983 0,-8.617 -1.594,-16.313 -4.737,-22.889 C 71.716,22.423 67.303,16.914 61.726,12.598 56.146,8.221 49.927,5.052 43.241,3.018 36.482,0.961 29.201,0 21.596,0 Z M 70.071,85.737 C 59.987,94.034 46.772,98 30.794,98 h -78.561 c 0,0 -6.003,-1.384 -6.003,-6.707 0,-5.322 3.603,-7.695 6.003,-7.888 l 2.836,-0.174 c 2.018,-0.159 4.498,-0.439 7.322,-0.879 2.694,-0.422 5.467,-1.128 8.219,-2.125 1.996,-0.813 3.565,-1.875 4.029,-3.258 0.657,-1.96 1.361,-4.218 1.361,-6.725 V -56.641 c 0,-2.671 -0.773,-4.827 -1.577,-6.409 -0.723,-1.428 -2.087,-2.504 -3.821,-3.303 -0.622,-0.294 -2.382,-0.861 -6.59,-1.353 -3.481,-0.408 -6.23,-0.696 -8.063,-0.859 l -3.695,-0.442 c 0,0 -6.013,-1.33 -6.013,-6.653 0,-5.322 3.597,-7.791 5.998,-7.985 l 77.719,-0.117 c 2.4,0.198 6.002,2.847 6.002,8.305 0,5.458 -6.003,6.822 -6.003,6.822 l -2.873,0.081 c -2.819,0.077 -5.952,0.359 -9.376,0.84 -4.083,0.572 -5.878,1.089 -6.681,1.421 -2.033,0.84 -3.334,1.923 -3.899,3.308 C 6.407,-61.214 6,-59.08 6,-56.641 V -7 h 15.596 c 8.165,0 16.004,1.344 23.3,3.562 7.379,2.245 14.244,5.94 20.388,10.761 6.338,4.904 11.366,11.241 14.945,18.726 3.578,7.485 5.392,16.074 5.392,25.71 0,14.115 -5.231,25.486 -15.55,33.978" /></g><g
           transform="translate(341.3374,320.918)"
           id="g48"><path
             id="path50"
             style="fill:#1e4276;fill-opacity:1;fill-rule:nonzero;stroke:none"
             d="m 0,0 c -2.404,3.433 -5.617,6.193 -9.554,8.105 -4.009,1.945 -9.152,2.977 -15.283,2.977 h -13.5 v -72 h 8.959 c 7.878,0 14.303,1.598 19.095,4.13 4.746,2.506 8.335,5.749 10.667,9.401 l 0.033,0.145 c 2.388,3.59 3.987,7.388 4.752,11.194 0.806,4.018 1.214,7.672 1.214,10.815 0,4.445 -0.503,9.052 -1.496,13.67 C 3.939,-7.154 2.295,-3.258 0,0" /></g><g
           transform="translate(341.7217,273.7207)"
           id="g52"><path
             id="path54"
             style="fill:#ffffff;fill-opacity:1;fill-rule:nonzero;stroke:none"
             d="m 0,0 c -2.333,-3.65 -5.921,-7.085 -10.667,-9.591 -4.792,-2.532 -11.217,-4.13 -19.096,-4.13 h -8.959 v 72 h 13.5 c 6.132,0 11.275,-1.031 15.284,-2.977 3.937,-1.911 7.149,-4.642 9.554,-8.075 C 1.911,43.969 3.555,40.069 4.503,35.66 5.496,31.042 5.999,26.44 5.999,21.995 5.999,18.852 5.591,15.218 4.785,11.201 4.02,7.395 2.421,3.643 0.032,0.053 Z m 10.375,37.077 c -1.137,5.289 -3.136,9.991 -5.936,13.965 -3.011,4.3 -7.006,7.521 -11.877,9.887 -4.801,2.329 -10.784,3.35 -17.784,3.35 h -19.5 v -84 h 14.959 c 8.816,0 16.142,1.618 21.774,4.594 5.674,2.996 10.032,6.882 12.954,11.444 2.855,4.296 4.775,8.861 5.71,13.514 0.895,4.458 1.348,8.552 1.348,12.144 0,4.926 -0.555,10.016 -1.648,15.102" /></g><g
           transform="translate(352.397,283.5718)"
           id="g56"><path
             id="path58"
             style="fill:#1e4276;fill-opacity:1;fill-rule:nonzero;stroke:none"
             d="m 0,0 c -0.935,-4.653 -2.855,-9.196 -5.71,-13.493 -2.922,-4.563 -7.28,-8.489 -12.955,-11.485 -5.631,-2.976 -12.957,-4.594 -21.773,-4.594 h -14.959 v 84 h 19.5 c 7,0 12.983,-1.021 17.784,-3.35 4.871,-2.367 8.866,-5.634 11.877,-9.935 2.8,-3.973 4.799,-8.651 5.936,-13.94 C 0.793,22.117 1.348,17.049 1.348,12.123 1.348,8.531 0.895,4.458 0,0 M 10.99,47.299 C 1.985,54.706 -9.99,58.428 -24.603,58.428 h -72.559 c 0,0 -1.613,-0.138 -1.613,-1.301 0,-1.164 1.613,-1.324 1.613,-1.324 1.501,-0.174 3.215,-0.389 4.997,-0.666 3.075,-0.48 6.276,-1.294 9.392,-2.426 l 0.1,-0.033 c 3.721,-1.5 6.499,-3.896 7.583,-7.12 0.888,-2.656 1.693,-5.644 1.693,-8.886 V -90.213 c 0,-3.746 -1.009,-6.927 -2.292,-9.455 -1.371,-2.704 -3.758,-4.767 -6.711,-6.126 -1.692,-0.802 -4.535,-1.396 -8.47,-1.855 -2.08,-0.244 -3.527,-0.577 -6.527,-0.736 v -0.008 c 0,0 -0.632,-0.284 -0.632,-1.319 0,-1.141 0.831,-1.45 0.831,-1.45 l 65.801,0.13 v 0.025 c 0,0 0.727,0.261 0.727,1.295 0,1.035 -0.762,1.319 -0.762,1.319 -2.101,0.149 -4.575,0.401 -7.074,0.752 -3.811,0.534 -6.424,1.124 -8.06,1.802 -3.558,1.471 -5.988,3.737 -7.207,6.732 -1.053,2.578 -1.624,5.572 -1.624,8.894 v 56.641 h 21.596 c 7.605,0 14.886,0.965 21.645,3.022 6.686,2.032 12.905,5.215 18.485,9.592 5.577,4.316 9.99,9.827 13.134,16.402 3.143,6.575 4.737,14.257 4.737,22.874 0,12.198 -4.321,21.665 -13.21,28.981" /></g><g
           transform="translate(338.5645,360.5)"
           id="g60"><path
             id="path62"
             style="fill:#ffffff;fill-opacity:1;fill-rule:nonzero;stroke:none"
             d="m 0,0 c 0,-3.249 -3.409,-5.5 -7.615,-5.5 h -85.771 c -4.206,0 -7.615,2.251 -7.615,5.5 0,3.249 3.409,5.5 7.615,5.5 H -7.615 C -3.409,5.5 0,3.249 0,0" /></g><g
           transform="translate(338.5645,153.5)"
           id="g64"><path
             id="path66"
             style="fill:#ffffff;fill-opacity:1;fill-rule:nonzero;stroke:none"
             d="m 0,0 c 0,-3.249 -3.409,-5.5 -7.615,-5.5 h -85.771 c -4.206,0 -7.615,2.251 -7.615,5.5 0,3.249 3.409,5.5 7.615,5.5 H -7.615 C -3.409,5.5 0,3.249 0,0" /></g><g
           transform="translate(270.8408,401.0684)"
           id="g68"><path
             id="path70"
             style="fill:#ffffff;fill-opacity:1;fill-rule:nonzero;stroke:none"
             d="m 0,0 h -9.468 v -28.319 h -6.727 V 0 h -9.468 V 5.913 H 0 Z" /></g><g
           transform="translate(301.9014,372.749)"
           id="g72"><path
             id="path74"
             style="fill:#ffffff;fill-opacity:1;fill-rule:nonzero;stroke:none"
             d="M 0,0 H -6.641 V 15.167 H -20.136 V 0 h -6.641 v 34.232 h 6.641 V 20.65 H -6.641 V 34.232 H 0 Z" /></g><g
           transform="translate(330.9492,372.749)"
           id="g76"><path
             id="path78"
             style="fill:#ffffff;fill-opacity:1;fill-rule:nonzero;stroke:none"
             d="M 0,0 H -22.622 V 34.232 H 0 V 28.748 H -16.109 V 20.564 H -0.214 V 15.209 H -16.109 V 5.784 L 0,5.784 Z" /></g></g></g><text
       id="text82"
       style="font-variant:normal;font-weight:500;font-stretch:normal;font-size:49.26520157px;font-family:'Keep Calm Med';-inkscape-font-specification:KeepCalm-Medium;writing-mode:lr-tb;fill:#ffffff;fill-opacity:1;fill-rule:nonzero;stroke:none"
       transform="matrix(1,0,0,-1,528.68554,241.7246)"><tspan
         id="tspan80"
         y="0"
         x="0 42.171013 76.508858 122.76888 163.70827">GROUP</tspan></text>
</g></svg>